<svg xmlns="http://www.w3.org/2000/svg" xmlns:xlink="http://www.w3.org/1999/xlink">

      
   <symbol id="logoPlastilin" viewBox="0 0 112 24"><g clip-path="url(#clip0_281_976)">
      
      <path d="M2.383 11.886C2.285 7.05 9.868 7.05 9.77 11.837a3.491 3.491 0 01-.915 2.5 3.458 3.458 0 01-2.778 1.114c-1.896 0-3.742-1.172-3.694-3.565h-.001zm-.584-4.347A5.912 5.912 0 000 11.84v10.985c-.049 1.563 2.43 1.514 2.383 0V16.72c3.79 3.127 9.964.098 9.77-4.884.146-3.613-3.112-6.153-6.27-6.153A5.98 5.98 0 001.8 7.54M13.954 1.224v15.872a1.236 1.236 0 00.751 1.142 1.22 1.22 0 001.338-.262 1.105 1.105 0 00.34-.88V1.224c.01-.301-.1-.594-.305-.815a1.13 1.13 0 00-.908-.36 1.16 1.16 0 00-.836.306 1.17 1.17 0 00-.376.809v.058M27.406 12c.049 1.905-1.114 3.76-3.503 3.711a3.364 3.364 0 01-2.688-.998A3.396 3.396 0 0120.257 12a3.589 3.589 0 01.944-2.567 3.558 3.558 0 012.474-1.144h.228a3.453 3.453 0 012.464.99 3.484 3.484 0 011.046 2.45c0 .09 0 .181-.007.27zm-7.874-4.295c-5.347 5.274 2.09 13.68 7.971 9.18.05 1.515 2.432 1.612 2.383 0v-4.788c.194-3.663-2.965-6.154-6.174-6.154a5.324 5.324 0 00-4.18 1.76M31.107 9.557a3.442 3.442 0 00.83 2.488 3.412 3.412 0 002.718 1.176c2.723.39.291 4.15-1.214 1.76-1.8-2.735-3.598.684-1.07 2.344 3.451 2.93 8.07-2.393 4.862-5.47-.924-1.171-2.383-.732-3.451-1.465-1.41-1.368 1.311-3.125 1.99-1.465 2.188 3.321 4.279-2.784-1.114-3.076h-.099a3.53 3.53 0 00-2.479 1.103 3.561 3.561 0 00-.976 2.542v.064M43.39.004c-2.09-.098-.923 4.981-1.166 6.105h-.535c-1.021-.05-2.431-.099-2.431 1.22-.049 1.317 1.41 1.268 2.43 1.22h.487v8.596c-.023.317.08.63.287.872a1.193 1.193 0 002.095-.872V8.5h1.702a1.128 1.128 0 001.068-.671 1.143 1.143 0 00.099-.546 1.144 1.144 0 00-.62-1.102 1.13 1.13 0 00-.426-.12 1.004 1.004 0 00-.12 0h-1.703c-.243-1.028.924-6.057-1.07-6.057h-.096zM48.654 7.28c.097.293-.34 10.94.34 10.695a1.2 1.2 0 002.042-.88V7.28a1.143 1.143 0 00-.307-.815 1.132 1.132 0 00-.908-.36 1.143 1.143 0 00-1.073.696c-.06.14-.092.29-.094.44v.04zm1.264-6.056a1.13 1.13 0 00-.812.308c-.219.207-.348.493-.357.794v.118a1.142 1.142 0 00.623 1.1 1.129 1.129 0 00.544.118 1.105 1.105 0 001.061-.63c.064-.131.1-.275.108-.42a1.091 1.091 0 000-.17 1.203 1.203 0 00-.333-.852 1.192 1.192 0 00-.833-.368M52.906 1.224v15.872a1.236 1.236 0 00.751 1.143 1.22 1.22 0 001.339-.263 1.109 1.109 0 00.34-.88V1.224a1.146 1.146 0 00-.306-.816 1.132 1.132 0 00-.91-.358 1.16 1.16 0 00-.836.305 1.17 1.17 0 00-.377.809v.058M57.108 7.28v9.816a1.215 1.215 0 00.734 1.125c.145.062.302.095.46.096h.023a1.171 1.171 0 001.167-1.164V7.28a1.132 1.132 0 00-1.214-1.174 1.116 1.116 0 00-1.063.65 1.13 1.13 0 00-.103.522l-.004.002zm1.219-6.058a1.128 1.128 0 00-1.07.669 1.142 1.142 0 00-.1.55 1.143 1.143 0 00.623 1.101 1.13 1.13 0 00.544.118c.294.016.583-.085.802-.282a1.117 1.117 0 00.364-.939 1.142 1.142 0 00-.622-1.1 1.13 1.13 0 00-.544-.117M61.107 16.887c-.049 1.563 2.48 1.563 2.382 0V12c-.097-4.834 7.486-4.786 7.39 0v4.885a1.192 1.192 0 002.382 0c.29-4.786.238-10.842-6.126-11.04-6.223.195-6.271 6.202-6.028 11.04"/>
      
      <path fill="currentColor" d="M94.219 17.096c.097 1.612-2.334 1.514-2.383 0-5.882 4.541-13.32-3.906-7.972-9.18 3.597-3.908 10.597-1.026 10.352 4.345v4.835h.003zm-5.98-1.172c4.715.146 4.666-7.471 0-7.374-4.763-.146-4.959 7.52 0 7.374zM98.303 17.096a1.202 1.202 0 01-.38.788 1.191 1.191 0 01-2.002-.788v-4.88c-.778-3.375 6.077-8.696 7.339-4.936a1.236 1.236 0 01-1.214 1.22c-4.521-.097-3.695 5.665-3.743 8.596M110.892 6.107a1.2 1.2 0 01.784 2.011 1.19 1.19 0 01-.784.382h-1.701v8.596c-.005.322-.133.63-.36.859a1.23 1.23 0 01-.852.365 1.2 1.2 0 01-1.167-1.22V8.5c-.972 0-2.965.293-2.917-1.22-.048-1.514 1.991-1.172 2.917-1.172.291-1.12-.926-6.202 1.167-6.108 2.089-.146.923 4.982 1.214 6.105l1.699.002z"/></g></symbol>

      <symbol id="phone" viewBox="0 0 23 24">
         <g clip-path="url(#clip0_296_79)">
            <path d="M16.58 16.901l.196-.144a2.224 2.224 0 013.11.466l1.266 1.713c.73.988.521 2.38-.467 3.11l-.195.145-3.91-5.29zM4.848 1.028l.198-.146a2.224 2.224 0 013.11.467l1.266 1.713c.73.988.521 2.38-.466 3.11l-.198.147-3.91-5.29z"/>
            <path d="M20.49 22.192a5.433 5.433 0 01-2.966 1.057l-1.377.067a5.432 5.432 0 01-4.631-2.197L3.24 9.922A5.432 5.432 0 012.5 4.85l.467-1.297a5.432 5.432 0 011.881-2.525l3.91 5.291-.813 1.159a1.642 1.642 0 00.024 1.919l5.437 7.356c.42.568 1.156.804 1.827.586l1.346-.438 3.91 5.291z"/>
         </g>
      </symbol>

</svg>