<svg xmlns="http://www.w3.org/2000/svg" xmlns:xlink="http://www.w3.org/1999/xlink"><defs><clipPath id="clip0_281_1660"><path d="M0 0h78v78H0z"/></clipPath><clipPath id="clip0_281_976"><path d="M0 0h112v24H0z"/></clipPath><clipPath id="clip0_296_79"><path d="M0 0h23v24H0z"/></clipPath></defs><symbol id="2hours" viewBox="0 0 102 102"><ellipse cx="50.5" cy="51" opacity=".2" rx="34.5" ry="34"/><circle cx="50.5" cy="50.5" r="26.5"/><path fill-rule="evenodd" d="M7.684 27.281c-.782-.428-1.766-.142-2.17.653A51 51 0 1034.341 2.798c-.843.291-1.26 1.227-.943 2.06.318.834 1.25 1.25 2.095.96A47.762 47.762 0 0149 3.271V7.5a1.5 1.5 0 003 0V3.24a47.762 47.762 0 0132.064 13.282l-3.012 3.012a1.5 1.5 0 002.122 2.12l2.989-2.988A47.764 47.764 0 0198.759 50H94.5a1.5 1.5 0 000 3h4.228a47.77 47.77 0 01-13.25 31.064l-3.012-3.012a1.5 1.5 0 00-2.12 2.121l2.989 2.99A47.77 47.77 0 0152 98.759V94.5a1.5 1.5 0 00-3 0v4.229a47.77 47.77 0 01-30.335-12.565l2.99-2.99a1.5 1.5 0 10-2.122-2.121l-3.012 3.012A47.77 47.77 0 013.272 53H7.5a1.5 1.5 0 000-3H3.24a47.77 47.77 0 015.11-20.513c.4-.797.117-1.777-.666-2.206zm7.373-10.111a1.494 1.494 0 012.113-2.114L49 46.886V23.5a1.5 1.5 0 013 0v23.243a4.373 4.373 0 01-1 8.628 4.371 4.371 0 01-3.962-6.22L15.057 17.17z" clip-rule="evenodd"/></symbol><symbol id="30min" viewBox="0 0 102 102"><path d="M51 76c3.414 0 6.795-.66 9.95-1.941a26.04 26.04 0 008.435-5.528 25.475 25.475 0 005.636-8.273A25.075 25.075 0 0077 50.5c0-3.349-.672-6.665-1.98-9.758a25.475 25.475 0 00-5.635-8.273 26.04 26.04 0 00-8.435-5.528A26.443 26.443 0 0051 25v51z"/><path d="M51 17c-9.017 0-17.665 3.53-24.042 9.812C20.582 33.094 17 41.615 17 50.5c0 8.885 3.582 17.406 9.958 23.688C33.335 80.47 41.983 84 51 84V17z" opacity=".2"/><path fill-rule="evenodd" d="M66.774 97.798c.285.845 1.202 1.302 2.038.99a51 51 0 10-36.977-.526c.827.335 1.757-.095 2.066-.932.309-.837-.12-1.763-.947-2.1a47.767 47.767 0 01-15.133-9.863l2.838-2.839a1.5 1.5 0 10-2.122-2.12l-2.808 2.808A47.76 47.76 0 013.271 53H7.5a1.5 1.5 0 000-3H3.24A47.763 47.763 0 0115.67 18.85l2.868 2.867a1.5 1.5 0 102.122-2.12l-2.902-2.902A47.773 47.773 0 0149 3.272V7.5a1.5 1.5 0 103 0V3.24a47.77 47.77 0 0131.586 12.83l-3.525 3.526a1.5 1.5 0 002.121 2.121l3.533-3.532A47.771 47.771 0 0198.759 50H94.5a1.5 1.5 0 000 3h4.228a47.77 47.77 0 01-13.423 31.243l-3.128-3.129a1.5 1.5 0 10-2.121 2.122l3.095 3.095a47.765 47.765 0 01-15.371 9.394c-.835.314-1.291 1.227-1.006 2.073zM51.989 55.259A4.373 4.373 0 0052 46.744V23.5a1.5 1.5 0 00-3 0v23.612a4.371 4.371 0 000 7.776v44.987a1.494 1.494 0 102.989 0V55.259z" clip-rule="evenodd"/></symbol><symbol id="bject" viewBox="0 0 92 92"><path d="M92 46c0 25.405-20.595 46-46 46S0 71.405 0 46 20.595 0 46 0s46 20.595 46 46z"/><circle cx="46" cy="46" r="10"/><path d="M72 46c0 14.36-11.64 26-26 26S20 60.36 20 46s11.64-26 26-26 26 11.64 26 26zm-42.87 0c0 9.317 7.553 16.87 16.87 16.87S62.87 55.316 62.87 46 55.316 29.13 46 29.13 29.13 36.684 29.13 46z"/><path fill-rule="evenodd" d="M46 8a1 1 0 00-1 1v10.018a26.997 26.997 0 00-21.2 11.615A27 27 0 0019.018 45H15a1 1 0 000 2h4.018A27 27 0 0046 73v6a1 1 0 002 0v-6.84a.997.997 0 00-.295-.71.966.966 0 00-.752-.315 25.154 25.154 0 118.663-1.892.95.95 0 00-.538 1.203.9.9 0 001.181.53A27 27 0 0072.981 47H77a1 1 0 100-2h-4.018a26.996 26.996 0 00-13.21-22.224A26.999 26.999 0 0047 19.018V9a1 1 0 00-1-1zm10.954 37A11.001 11.001 0 0047 35.045V33a1 1 0 00-2 0v2.045A10.999 10.999 0 0035.045 45H33a1 1 0 000 2h2.045A11 11 0 0045 56.954V59a1 1 0 102 0v-2.046a10.992 10.992 0 007.796-4.35c.29-.385.166-.926-.24-1.184-.408-.258-.943-.134-1.238.247A9.256 9.256 0 0147 55.202V53a1 1 0 00-2 0v2.202A9.254 9.254 0 0136.798 47H39a1 1 0 000-2h-2.202a9.26 9.26 0 014.487-6.965A9.255 9.255 0 0145 36.798V39a1 1 0 102 0v-2.202A9.256 9.256 0 0155.202 45H53a1 1 0 000 2h6a1 1 0 000-2h-2.046zM48 46a2 2 0 11-4 0 2 2 0 014 0zM35.604 8.41a.915.915 0 011.128.666.95.95 0 01-.674 1.142 37.137 37.137 0 1020.401.148.95.95 0 01-.657-1.152.915.915 0 011.137-.65 39 39 0 11-21.335-.154z" clip-rule="evenodd"/></symbol><symbol id="bnote" viewBox="0 0 22 24"><path d="M18.419 14.448c.006.145.013.226.013.307 0 1.945.002 3.892 0 5.837-.002 1.72-1.169 2.878-2.895 2.878H3.722C2 23.47.824 22.302.824 20.593V3.414C.824 1.701 1.997.531 3.715.531 7.68.53 11.645.528 15.61.53c1.427.001 2.536.914 2.787 2.284.014.075.014.153.028.228.044.22-.03.35-.243.462-.411.215-.72.55-.953.95L10.8 15.508c-.366.63-.493 1.322-.514 2.037-.015.519-.091 1.048-.016 1.555.222 1.487 1.913 2.28 3.225 1.527.549-.315 1.07-.681 1.588-1.046.434-.305.755-.718 1.02-1.174.715-1.234 1.434-2.467 2.152-3.699.04-.07.087-.137.164-.26zM8.537 9.273h1.83c.843 0 1.685.002 2.528-.001.38-.001.61-.176.653-.483.053-.365-.23-.616-.699-.616H4.288c-.102 0-.208.007-.307.031a.533.533 0 00-.005 1.034c.115.029.238.033.357.033 1.401.002 2.802.002 4.204.002zm1.635-4.378c-1.402 0-2.804 0-4.206.002-.11 0-.225.004-.332.03a.534.534 0 00-.008 1.035c.107.027.22.033.332.033 2.812.002 5.624.002 8.436 0 .103 0 .208-.002.307-.024a.52.52 0 00.423-.56c-.017-.326-.257-.514-.67-.515-1.428-.002-2.856 0-4.284 0h.002zM7.61 11.45H4.338c-.499 0-.77.2-.761.56.008.352.27.541.756.541h6.698c.25-.002.456-.089.567-.326.18-.387-.105-.77-.587-.773-1.134-.006-2.268-.002-3.4-.002H7.61zm-.957 3.278H5.107c-.318 0-.636-.008-.953.003-.34.013-.57.236-.577.536-.008.306.232.538.58.56.06.004.12.002.18.002H8.95c.07 0 .138.002.206-.002.354-.02.59-.242.59-.551-.002-.31-.237-.541-.593-.545-.833-.009-1.666-.003-2.5-.003zm-.28 4.378h2.01c.076 0 .154.002.23-.008.303-.04.514-.268.512-.547-.002-.28-.213-.502-.518-.54-.068-.008-.137-.006-.205-.006H4.306c-.102 0-.207.005-.306.027a.536.536 0 00-.422.514.54.54 0 00.43.533c.099.022.204.025.306.025.687.002 1.374.001 2.06.001z"/><path d="M17.092 6.897l3.32 1.902c-.052.095-.094.177-.14.256-1.696 2.915-3.393 5.829-5.086 8.745a3.15 3.15 0 01-1.065 1.124c-.356.223-.702.46-1.054.69-.394.255-.806.293-1.214.046-.405-.244-.566-.62-.529-1.087.043-.535.047-1.075.125-1.605.048-.32.16-.653.321-.934 1.737-3.01 3.49-6.01 5.237-9.013.02-.035.046-.068.084-.124h.001zM17.63 5.946c.206-.352.386-.682.588-.997a1.634 1.634 0 012.142-.584c.214.108.423.227.624.356.715.46.963 1.36.573 2.112-.176.34-.38.665-.588 1.024l-3.34-1.91z"/></symbol><symbol id="checked" viewBox="0 0 12 9"><path d="M10.62.233A.801.801 0 0111.193 0a.82.82 0 01.571.233c.312.306.316.8.01 1.112l-6.45 7.401A.8.8 0 014.747 9a.82.82 0 01-.586-.232L.236 4.907A.79.79 0 010 4.346a.79.79 0 01.498-.734.82.82 0 01.88.172l3.33 3.276 5.89-6.804a.26.26 0 01.023-.023z"/></symbol><symbol id="equip" viewBox="0 0 78 78"><path d="M54.49 14.943c3.57 1.86 5.97 4.36 8.24 7.69 2.27 3.33 3.69 7.16 4.12 11.17a24.471 24.471 0 01-8.63 21.42 24.414 24.414 0 01-10.71 5.19c-3.94.82-8.03.66-11.9-.47a24.506 24.506 0 01-16.49-16.17h10.37c.74 2.36.73 2.43 2.5 4.16s3.84 2.53 6.22 3.23c2.38.7 4.94.51 7.36 0s4.68-1.6 6.58-3.19a15.055 15.055 0 002.77-20.02c-1.39-2.04-4.74-4.87-6.93-6.02l6.5-7v.01z"/><path d="M64.7 75.243c-.1-.36-.16-.67-.29-.96-.17-.4-.35-.8-.59-1.17a8.54 8.54 0 00-.93-1.22c-.34-.36-.74-.68-1.13-.97-.22-.17-.5-.27-.76-.39-.39-.16-.77-.34-1.17-.45-.4-.11-.83-.17-1.25-.21-.37-.03-.74-.01-1.1-.01H26.02c-.62 0-1.25.05-1.84.2-.62.15-1.21.42-1.78.75-.68.39-1.25.88-1.75 1.44-.38.43-.64.98-.91 1.49-.18.34-.3.71-.43 1.07-.04.12-.04.25-.07.42H49.82c.42 0 .8.07 1.11.35.36.33.59.95.31 1.53-.3.63-.78.81-1.41.81H17.91c-.5 0-.95-.11-1.24-.54a1.61 1.61 0 01-.27-.65c-.04-.36-.04-.74 0-1.1.06-.43.19-.85.29-1.27.01-.06 0-.13.03-.2.09-.29.18-.59.29-.88.11-.28.23-.56.37-.83.17-.35.32-.73.55-1.04.42-.56.86-1.11 1.35-1.61.52-.53 1.09-1.01 1.77-1.33.46-.22.92-.46 1.39-.66.43-.18.87-.31 1.31-.47h.03c.43-.06.86-.17 1.3-.17 1.74-.02 3.48 0 5.21-.03.49 0 .98-.09 1.45-.3.23-.1.5-.11.73-.21.28-.13.55-.3.81-.47.33-.22.66-.44.97-.68.56-.44 1-.99 1.33-1.62.22-.42.48-.84.63-1.29.15-.45.18-.93.26-1.38-8.68-2.22-14.74-7.38-18.29-15.57H12.32c-.48 0-.87-.22-1.09-.58-.23-.37-.33-.8-.1-1.28.29-.6.72-.81 1.34-.81h22.65c.47 0 .85.12 1.15.51.34.43.38.87.17 1.36-.09.21-.19.37-.37.51-.23.18-.47.31-.77.3h-4.61l-.04.07c.2.25.39.53.62.75.53.51 1.07 1.02 1.64 1.48.43.35.92.63 1.39.92.44.27.89.52 1.34.76.33.16.68.27 1.02.41.22.09.44.19.66.27.2.07.4.14.61.2.3.08.61.14.92.2.55.11 1.11.2 1.66.31.04 0 .07.01.11.01.9 0 1.8.02 2.69 0 .4-.01.8-.08 1.19-.17.56-.13 1.12-.3 1.68-.45.26-.07.53-.12.79-.21.33-.11.65-.24.96-.39.49-.24 1-.48 1.46-.77.62-.39 1.23-.82 1.82-1.26.44-.33.84-.72 1.25-1.09.26-.24.51-.49.76-.73.33-.32.79-.33 1.23-.16.3.12.5.3.66.55.08.12.12.26.15.4.09.47.02.91-.35 1.25-.7.67-1.38 1.34-2.1 1.99-.36.32-.76.62-1.17.87-.64.38-1.31.72-1.98 1.07-.42.22-.85.44-1.29.62-.4.16-.81.27-1.22.39-.5.15-1 .31-1.51.44-.33.09-.68.15-1.02.19-1.33.18-2.67.26-4 .16-.57-.04-1.12-.18-1.69-.27-.41-.07-.81-.12-1.21-.22-.29-.07-.57-.19-.86-.28l-.6-.18c-.37-.12-.76-.22-1.11-.38-.41-.18-.8-.4-1.19-.6-.37-.19-.74-.37-1.1-.58-.28-.15-.54-.33-.8-.51-.35-.25-.71-.51-1.03-.8-.69-.62-1.38-1.25-2.03-1.92-.45-.46-.84-.99-1.24-1.5-.17-.22-.29-.47-.45-.69-.05-.07-.16-.11-.25-.11-.49-.01-.98 0-1.47 0h-4.08c-.13 0-.25.02-.38.03.11.24.21.46.31.66.14.28.29.55.44.82.13.24.27.48.41.72.11.2.22.41.35.6.33.48.64.97 1 1.42.62.78 1.24 1.56 1.92 2.28.62.65 1.29 1.25 1.99 1.83.54.45 1.13.83 1.71 1.22.56.36 1.14.69 1.71 1.03.37.22.73.45 1.11.64.3.15.64.24.95.37.36.15.71.32 1.07.46.23.09.48.14.71.22.26.08.52.18.78.26.23.07.46.15.7.2.35.08.71.14 1.07.21.44.09.88.18 1.31.27.04 0 .07.01.11.02 1.61.19 3.22.27 4.83.16.83-.06 1.66-.18 2.48-.32.6-.1 1.19-.3 1.78-.45.28-.07.56-.12.84-.2.24-.07.48-.19.71-.28.19-.07.38-.13.57-.2.49-.18.99-.34 1.47-.55.47-.2.94-.41 1.37-.68 1.07-.67 2.16-1.31 3.16-2.1 1.02-.81 2.01-1.66 2.87-2.63.63-.71 1.19-1.49 1.77-2.26.35-.46.68-.94.98-1.43.21-.34.36-.73.55-1.08.2-.38.44-.75.62-1.14.15-.32.25-.66.38-.99.15-.38.31-.76.45-1.14.07-.17.12-.35.17-.53l.21-.78c.1-.36.2-.71.28-1.07.07-.29.13-.58.18-.88.08-.49.14-.99.2-1.48.17-1.29.21-2.59.14-3.9-.03-.63-.09-1.26-.18-1.88-.08-.59-.2-1.18-.33-1.76-.14-.63-.3-1.26-.5-1.88-.18-.56-.41-1.1-.61-1.64-.13-.34-.24-.69-.38-1.02-.13-.29-.3-.55-.45-.83-.07-.13-.13-.26-.2-.4-.12-.25-.24-.51-.38-.76-.15-.26-.31-.52-.48-.76-.61-.85-1.19-1.73-1.86-2.54-.79-.96-1.64-1.87-2.63-2.62-.61-.46-1.18-.97-1.79-1.44-.26-.2-.55-.37-.84-.54-.16-.1-.31-.09-.45.06-1.07 1.09-2.14 2.17-3.22 3.24-.15.15-.32.3-.52.48.29.15.55.28.8.42.19.11.38.22.56.34.3.21.6.42.88.65.57.46 1.17.9 1.7 1.4.61.58 1.18 1.2 1.73 1.84.36.43.65.93.96 1.41.33.52.67 1.04.96 1.58.22.4.37.84.55 1.27.16.38.31.76.46 1.14.07.18.13.37.17.55.08.31.14.62.21.92.09.37.17.74.26 1.11 0 .04.02.07.03.11.2 1.41.27 2.84.16 4.26-.06.73-.15 1.46-.33 2.16-.11.43-.12.91-.46 1.29-.33.37-1 .64-1.44.44-.32-.15-.64-.33-.8-.73-.17-.42-.2-.79 0-1.18 0-.02 0-.04.01-.06.06-.29.13-.58.17-.87.21-1.26.23-2.53.16-3.8-.03-.51-.18-1.02-.28-1.52 0-.05 0-.09-.02-.14l-.33-1.27c-.07-.26-.11-.52-.2-.77-.11-.32-.23-.63-.38-.93-.24-.5-.49-.99-.76-1.47-.22-.4-.45-.8-.72-1.17-.31-.43-.65-.84-.99-1.24-.52-.62-1.09-1.19-1.75-1.67-.49-.36-.97-.75-1.48-1.08-.44-.28-.92-.5-1.38-.75-.05-.03-.09-.07-.14-.09-.18-.08-.33-.14-.52.05-.8.81-1.62 1.6-2.42 2.4-.05.05-.03.26.03.33.28.32.56.62.58 1.09.03.53-.24.9-.58 1.25-.76.77-1.53 1.55-2.3 2.31-.71.7-1.43 1.38-2.13 2.09-.8.8-1.59 1.6-2.39 2.4-.39.39-.78.78-1.19 1.16-.38.35-.88.36-1.36.16-.58-.24-.88-.75-1.31-1.14-.47-.43-.9-.91-1.36-1.35-.05-.05-.26-.04-.32.02-.75.74-1.47 1.5-2.23 2.23-.37.36-.86.5-1.34.36-.7-.21-1.27-.96-.84-1.88.25-.54.74-.86 1.13-1.28.44-.47.93-.91 1.38-1.38.19-.2-.04-.36-.15-.47-.54-.55-1.09-1.09-1.64-1.63-.13-.13-.24-.12-.37.02-.73.75-1.45 1.51-2.21 2.23-.36.34-.83.49-1.32.35-.36-.1-.71-.31-.85-.71-.05-.14-.12-.29-.15-.43-.09-.54.18-.94.54-1.3.7-.69 1.4-1.38 2.09-2.08.06-.06.06-.27 0-.33-.73-.75-1.51-1.46-2.22-2.23-.56-.6-.6-1.32.03-1.97.59-.61 1.17-1.22 1.77-1.81.86-.86 1.74-1.7 2.6-2.56.71-.71 1.4-1.44 2.11-2.14.55-.54 1.1-1.09 1.68-1.59.62-.53 1.28-.41 1.81.12 1.57 1.53 3.11 3.08 4.66 4.63.77.77 1.51 1.55 2.28 2.32.43.44.88.85 1.32 1.29.13.13.23.12.35 0 .62-.63 1.23-1.27 1.85-1.89.76-.76 1.54-1.49 2.3-2.25.92-.92 1.82-1.87 2.75-2.79.76-.76 1.53-1.5 2.29-2.25.23-.23.47-.44.68-.68.05-.06.05-.25 0-.31-.69-.7-1.41-1.37-2.1-2.06-1.2-1.2-2.37-2.43-3.57-3.63-.33-.33-.33-.31-.66.02-.77.76-1.52 1.52-2.28 2.29-.59.6-1.18 1.2-1.77 1.79-.51.51-.99 1.05-1.55 1.5-.61.49-1.63.31-2-.47-.33-.72-.08-1.28.44-1.79.6-.58 1.18-1.17 1.77-1.75.53-.53 1.06-1.06 1.59-1.6l1.61-1.61c.55-.55 1.09-1.11 1.67-1.62.64-.56 1.26-.37 1.83.09.06.05.12.11.17.18.12.14.24.13.37 0 .93-.93 1.87-1.85 2.81-2.77.35-.34.69-.71 1.09-.97.39-.25.86-.4 1.31-.55.38-.13.78-.26 1.18-.27.58-.01 1.17 0 1.73.15.61.16 1.2.43 1.72.81.58.43 1.07.95 1.41 1.59.25.45.41.94.54 1.44.13.46.11.91.13 1.37.01.49-.11.95-.31 1.39-.18.41-.31.86-.56 1.21-.36.5-.81.93-1.23 1.38a98.45 98.45 0 01-2.52 2.53c-.14.13-.13.23 0 .36.31.29.56.61.59 1.07.02.37-.19.7-.58 1.26-.09.13-.18.24-.23.3.25.17.59.41.98.7.24.18.75.52 1.18.9.72.63 1.43 1.28 2.11 1.95.48.46.94.95 1.36 1.46.53.64 1.03 1.31 1.5 1.99.34.49.63 1.01.93 1.53.32.55.64 1.09.92 1.65.22.44.39.91.58 1.36.15.34.31.67.45 1.02.09.23.13.48.21.71.08.26.19.51.27.76.07.22.15.43.21.65.07.29.13.6.19.89.1.44.21.88.31 1.32v.06c.06.53.12 1.07.19 1.6.19 1.4.19 2.82.15 4.23-.02.67-.1 1.35-.17 2.02-.04.34-.1.67-.16 1.01-.11.55-.22 1.1-.34 1.64-.1.42-.21.83-.34 1.25-.16.5-.31 1-.51 1.49-.24.61-.5 1.21-.78 1.8-.33.7-.67 1.4-1.04 2.08-.28.51-.63.99-.95 1.48-.19.28-.36.57-.56.85-.29.39-.57.79-.9 1.15-.87.95-1.74 1.89-2.65 2.8-.49.49-1.04.92-1.57 1.35-.37.3-.76.58-1.16.84-.5.32-1.01.61-1.53.91-.55.32-1.11.65-1.68.94-.43.22-.88.38-1.32.57-.35.15-.69.31-1.05.45-.23.09-.47.14-.71.21-.26.08-.52.18-.78.27-.03.01-.07.03-.1.04-.53.12-1.06.24-1.58.37-.05.01-.13.1-.12.14.03.31-.07.63.13.92.11.17.12.4.19.6.35 1.13 1.06 2.03 1.93 2.8.35.31.79.51 1.2.76.38.23.77.39 1.2.51.6.18 1.19.3 1.82.31 1.63 0 3.27-.02 4.9.03.49.01.97.19 1.45.29.27.06.54.11.8.2.35.13.69.28 1.03.44.26.12.52.25.77.39.76.44 1.45.98 2.03 1.64.4.45.77.94 1.11 1.43.19.26.31.57.45.86.16.32.32.64.47.97.08.17.13.36.18.54.06.21.14.42.16.63.07.7.14 1.39.18 2.09.02.49-.33.89-.77 1.11-.26.13-.52.14-.79.14h-7.71c-.5 0-.9-.15-1.22-.53-.3-.35-.32-.91-.14-1.35.28-.67.79-.82 1.43-.82H64.64l.06-.02zm-22.02-48.45c-.07-.07-.12-.13-.17-.18-.47-.48-.94-.97-1.41-1.45-.59-.59-1.18-1.17-1.78-1.76l-2.91-2.88c-.79-.79-1.57-1.6-2.37-2.39-.06-.06-.28-.06-.34 0-1.13 1.1-2.25 2.21-3.36 3.32-.82.82-1.62 1.65-2.44 2.47-.13.13-.13.23 0 .37.69.68 1.39 1.36 2.07 2.05.66.66 1.32 1.33 1.98 2 .74.74 1.49 1.48 2.23 2.23s1.47 1.51 2.22 2.25c.05.05.26.03.32-.04.59-.58 1.15-1.17 1.73-1.76.72-.72 1.44-1.43 2.16-2.14.6-.59 1.21-1.17 1.81-1.77.09-.09.15-.2.25-.33l.01.01zm4.71 40.36c-.19-.25-.34-.44-.49-.64-.3-.39-.65-.75-.89-1.17-.29-.51-.5-1.08-.74-1.62-.25-.57-.44-1.16-.48-1.79-.01-.24-.11-.35-.35-.31-.33.05-.66.14-.99.14-.99.02-1.98 0-2.97 0-.1 0-.2-.03-.3-.04-.3-.04-.6-.08-.91-.09-.05 0-.13.1-.15.17-.08.37-.13.75-.21 1.13-.05.23-.1.46-.19.67-.25.55-.5 1.11-.8 1.63-.27.45-.61.86-.93 1.29-.15.2-.31.4-.49.64h10.89v-.01zM58.1 5.063c.02-.42-.14-.79-.31-1.16-.37-.8-1.07-1.14-1.85-1.28-.77-.14-1.47.15-2.03.68-1.08 1.03-2.12 2.1-3.16 3.16-.05.05-.04.26.02.32.24.26.51.5.76.75.79.79 1.57 1.59 2.37 2.38.06.06.27.05.33 0 .35-.32.68-.68 1.02-1.01l1.98-1.95c.52-.52.85-1.13.87-1.89z"/><path d="M42.68 26.793c-.1.13-.16.24-.25.33-.6.59-1.21 1.17-1.81 1.77-.72.71-1.44 1.42-2.16 2.14-.58.58-1.15 1.18-1.73 1.76-.06.06-.27.09-.32.04-.75-.74-1.48-1.5-2.22-2.25-.74-.75-1.49-1.48-2.23-2.23-.66-.66-1.32-1.34-1.98-2-.69-.69-1.38-1.37-2.07-2.05-.14-.13-.13-.24 0-.37.82-.82 1.62-1.65 2.44-2.47 1.11-1.11 2.23-2.22 3.36-3.32.06-.06.28-.06.34 0 .8.79 1.58 1.6 2.37 2.39.96.97 1.94 1.92 2.91 2.88.59.59 1.19 1.17 1.78 1.76.48.48.94.96 1.41 1.45.05.05.1.1.17.18l-.01-.01zM47.39 67.163H36.5c.18-.24.34-.44.49-.64.31-.43.66-.83.93-1.29.31-.52.55-1.08.8-1.63.09-.21.14-.44.19-.67.08-.37.13-.75.21-1.13.01-.07.1-.17.15-.17.3.02.61.06.91.09.1.01.2.04.3.04.99 0 1.98.01 2.97 0 .33 0 .66-.09.99-.14.24-.04.34.07.35.31.04.63.23 1.22.48 1.79.24.54.45 1.11.74 1.62.24.42.59.78.89 1.17.15.2.3.39.49.64v.01zM58.1 5.063c-.02.75-.35 1.37-.87 1.89l-1.98 1.95c-.34.34-.67.69-1.02 1.01-.06.06-.27.06-.33 0-.8-.78-1.58-1.58-2.37-2.38-.25-.25-.52-.49-.76-.75-.06-.07-.07-.27-.02-.32 1.04-1.06 2.09-2.13 3.16-3.16.55-.53 1.26-.82 2.03-.68.78.14 1.48.48 1.85 1.28.17.37.34.74.31 1.16z"/></symbol><symbol id="exp" viewBox="0 0 78 78"><g clip-path="url(#clip0_281_1660)"><path d="M66.93 45.75c-.08-.07-.15-.12-.22-.17-.32-.26-.62-.54-.96-.76-.49-.3-.99-.2-1.41.14-.5.41-.94.89-1.41 1.33-.23.22-.47.44-.69.66-.15.15-.27.15-.43 0-.63-.63-1.24-1.27-1.91-1.87-.59-.53-1.45-.63-2.07.05-.17.18-.33.37-.53.51-.09.06-.32.05-.41-.02-.27-.21-.48-.48-.74-.69-.19-.16-.12-.32-.04-.46.31-.57.63-1.13.95-1.69.21-.38.41-.77.63-1.15.18-.33.37-.66.56-.98.27-.48.55-.95.82-1.43.27-.47.54-.95.81-1.42.2-.34.38-.69.58-1.04.27-.47.55-.93.81-1.4.21-.37.39-.75.6-1.13.03-.06.11-.16.15-.15.07.02.15.08.19.15.31.55.61 1.11.92 1.66.27.48.54.95.82 1.43.51.89 1.03 1.78 1.53 2.67.26.46.49.95.75 1.41.37.66.75 1.3 1.12 1.95.22.39.43.79.64 1.19.08.16.04.28-.09.4-.24.22-.47.46-.71.68-.06.06-.16.08-.26.13z"/><path d="M52.44.07c.13.03.32.1.51.27.53.48.39 1.27.38 1.31-.15.34-.39.65-.6.96-.3.44-.6.87-.9 1.31-.43.64-.87 1.28-1.29 1.93-.05.07-.05.23 0 .3.46.69.95 1.36 1.41 2.05.38.56.72 1.14 1.11 1.68.23.32.34.65.31 1.04-.03.41-.31.78-.72.88-.3.07-.6.13-.91.13H40.23c0 .12-.01.22-.01.31 0 1.03.03 2.07-.01 3.09-.02.5.18.89.39 1.29.23.44.47.87.71 1.31.29.51.59 1.01.88 1.52.28.5.53 1.01.8 1.51.28.52.58 1.03.86 1.54.38.69.74 1.4 1.12 2.09.28.51.58 1.02.87 1.53.17.31.33.63.5.94.18.34.36.67.54 1.01.23.43.46.85.69 1.28.33.59.66 1.19.98 1.78.28.51.56 1.03.84 1.54.28.52.58 1.03.86 1.54.19.34.35.7.53 1.04.16.3.33.59.5.88.24.42.47.84.71 1.26.24.43.47.87.7 1.3.18.33.35.66.53.99l.63 1.17c.19.34.38.67.57 1.01.11.2.23.4.37.65.25-.45.47-.84.69-1.24.45-.81.91-1.62 1.35-2.43.28-.52.53-1.05.81-1.57.32-.59.66-1.16.99-1.75.23-.42.44-.85.67-1.26.28-.52.58-1.02.86-1.54.19-.34.33-.71.53-1.04.23-.4.45-.83.94-.98.45-.14 1.02 0 1.31.52.28.49.53 1.01.8 1.51.37.69.76 1.37 1.14 2.06.16.28-.03.96-.32 1.2-.72.59-1.52.27-1.9-.48-.21-.41-.43-.8-.68-1.27-.2.34-.37.63-.53.91-.25.44-.51.87-.74 1.31-.23.42-.42.85-.65 1.27-.27.5-.55.98-.82 1.48-.28.51-.56 1.03-.84 1.54-.28.51-.57 1.02-.85 1.54-.19.34-.35.69-.53 1.04-.07.13-.16.25-.23.38-.08.13-.1.24.05.37.24.2.43.45.65.67.11.11.21.13.35 0 .28-.27.58-.51.88-.76.17-.14.77-.16.94-.01.5.44 1 .89 1.48 1.35.28.27.52.57.83.91.57-.59 1.08-1.13 1.6-1.66.2-.2.42-.4.65-.55.4-.25.88-.19 1.24.12.21.19.41.38.62.58.14.14.26.16.41-.01.2-.23.41-.45.64-.65.14-.12.11-.22.04-.35-.29-.54-.57-1.08-.86-1.61-.32-.59-.66-1.18-.98-1.77-.27-.5.01-1.24.52-1.49.76-.37 1.41.08 1.69.75.13.31.31.6.47.9.19.35.39.7.59 1.06.39.7.79 1.4 1.18 2.11.46.84.93 1.68 1.38 2.52.37.69.73 1.38 1.09 2.07.4.76.81 1.51 1.23 2.26.28.51.59 1 .87 1.5.31.56.31.6.96 1.82.29.56.52.99.83 1.56.32.58.47.86.69 1.25.34.59.61 1.02.97 1.74.06.11.1.2.13.26.04.09.09.23.1.4.01.16 0 .29-.03.39-.02.07-.06.16-.13.25-.33.46-1.08.64-1.57.39-.18-.09-.35-.34-.67-.84-.26-.4-.44-.74-.61-1.06-.33-.63-.4-.8-.65-1.27-.31-.58-.64-1.16-.95-1.74-.23-.42-.47-.84-.7-1.27-.42-.77-.82-1.55-1.25-2.32-.28-.51-.6-.99-.88-1.5-.38-.7-.73-1.42-1.1-2.12-.22-.42-.48-.82-.72-1.23-.07-.13-.12-.27-.19-.4-.05-.09-.13-.16-.22-.28-.44.45-.86.88-1.28 1.3-.51.51-1.21.48-1.7-.05-.21-.22-.39-.47-.64-.76-.7.72-1.32 1.35-1.92 2-.33.36-.74.46-1.18.36-.23-.06-.44-.25-.62-.42-.61-.58-1.21-1.19-1.81-1.79-.52.35-.82 1.04-1.61 1.03l1.03 1.82c.22.4.43.81.65 1.21l.99 1.83.84 1.56c.28.51.57 1.01.85 1.51l.51.93c.19.35.39.69.58 1.04.22.41.42.83.65 1.24.39.7.79 1.4 1.18 2.11.28.52.53 1.06.82 1.57.32.59.67 1.17 1 1.75.23.41.44.83.66 1.24.38.71.77 1.41 1.16 2.11.27.49.62.95.78 1.46.23.76 0 1.57-1.04 1.6-.65.02-.93-.41-1.19-.89-.24-.44-.49-.86-.73-1.3-.23-.42-.43-.85-.66-1.27-.22-.4-.46-.79-.68-1.2-.18-.33-.35-.68-.53-1.01-.16-.31-.33-.61-.5-.92-.24-.42-.48-.84-.71-1.27-.33-.6-.66-1.21-.99-1.82l-.84-1.56c-.27-.5-.55-1-.83-1.5l-.57-1.08c-.15-.28-.31-.56-.46-.84-.19-.34-.38-.67-.57-1-.25-.44-.5-.87-.74-1.32-.23-.42-.42-.85-.65-1.27-.32-.59-.66-1.17-.99-1.76-.23-.41-.45-.84-.68-1.25-.34-.61-.68-1.21-1.01-1.82-.27-.5-.53-1-.8-1.5-.29-.53-.58-1.05-.86-1.58-.18-.34-.35-.68-.53-1.02-.15-.29-.31-.58-.47-.87-.24-.44-.49-.87-.73-1.31-.39-.7-.79-1.4-1.17-2.11-.28-.52-.54-1.06-.83-1.59-.33-.6-.68-1.18-1.01-1.77-.22-.39-.42-.8-.63-1.19-.39-.72-.8-1.44-1.19-2.16-.28-.52-.54-1.05-.82-1.57-.11-.21-.25-.4-.39-.63-.43.42-.85.83-1.27 1.26-.5.51-1.21.55-1.71.01-.21-.22-.41-.45-.64-.71-.42.42-.79.81-1.18 1.17-.36.34-.7.73-1.12.99-.57.35-1.03.14-1.41-.21-.58-.54-1.13-1.12-1.7-1.68-.07-.07-.15-.13-.22-.19-.27.25-.54.49-.8.74-.47.45-1.14.33-1.57-.1-.43-.42-.85-.85-1.28-1.27-.34.59-.68 1.14-.99 1.7-.38.7-.73 1.41-1.11 2.11-.24.45-.49.89-.76 1.33-.28.46-.86.55-1.4.34-.46-.18-.59-.56-.67-.95-.04-.21.06-.47.16-.68.22-.46.47-.91.72-1.36.17-.31.38-.6.55-.9.23-.4.43-.82.65-1.22.19-.35.4-.68.58-1.03.22-.42.42-.86.65-1.27.33-.6.67-1.18 1.01-1.78.22-.4.43-.81.66-1.22.34-.62.68-1.23 1.02-1.85l.81-1.53c.28-.52.57-1.03.86-1.55.32-.58.63-1.17.96-1.75.29-.53.6-1.05.89-1.58.22-.39.44-.79.63-1.2.06-.14.04-.33.04-.49V1.52c0-.41.05-.8.3-1.09.17-.2.42-.31.42-.31.21-.09.39-.11.5-.12h13.39l-.03.07zm-12.2 2.3c0 .12-.02.23-.02.33v6.55c0 .38 0 .38.39.38h9.2c.21-.01.2-.13.11-.26-.13-.2-.26-.39-.4-.58-.4-.57-.81-1.14-1.18-1.72-.2-.32-.47-.61-.48-1.03 0-.4.21-.68.43-.98.53-.74 1.02-1.5 1.52-2.26.08-.12.13-.25.21-.42h-9.79l.01-.01zm3.07 26.83c.09-.04.17-.07.22-.12.21-.2.41-.41.62-.61.11-.11.15-.22.08-.36-.19-.36-.37-.72-.56-1.07-.32-.59-.66-1.17-.98-1.76-.23-.42-.43-.85-.66-1.27-.44-.81-.89-1.6-1.34-2.41-.24-.43-.48-.86-.71-1.29-.27-.5-.53-1-.8-1.5a.311.311 0 00-.16-.14c-.03 0-.11.08-.13.13-.18.34-.34.68-.52 1.02-.23.42-.47.84-.71 1.26l-.51.93c-.24.43-.47.85-.71 1.28l-.72 1.29c-.16.29-.33.59-.49.89-.18.34-.36.69-.55 1.04-.28.51-.56 1.01-.83 1.53-.07.13-.13.28.04.42.23.2.42.44.65.63.08.06.28.08.36.02.18-.12.32-.29.46-.46.54-.61 1.29-.52 1.81-.04.58.53 1.12 1.11 1.67 1.68.14.14.24.14.38 0l.6-.6c.41-.4.8-.83 1.24-1.2.36-.31.8-.4 1.23-.13.3.19.56.45.84.68.06.05.12.1.19.15l-.01.01zM.1 65.01c.09-.16.21-.38.35-.65.08-.14.14-.25.25-.45.19-.34.28-.48.48-.86.22-.41.43-.83.65-1.24.18-.34.39-.67.57-1.01.22-.41.43-.84.65-1.25.24-.43.48-.86.75-1.26.39-.59 1.31-.52 1.78-.03.25.26.28.89.1 1.22-.33.6-.64 1.21-.96 1.8-.29.53-.59 1.04-.87 1.57-.66 1.22-.99 1.83-1.12 2.11 0 0-.12.24-.42.75-.19.32-.25.39-.32.46-.31.28-.68.32-.78.33-.13.01-.33.03-.56-.06a.993.993 0 01-.52-.45c-.07-.13-.12-.34-.12-.4S0 65.46 0 65.41c0-.09 0-.15.01-.22 0-.05.03-.12.07-.2l.02.02z"/><path d="M46 50.77c.08.32.14.6.22.87.09.31.18.62.28.92.12.37.26.74.38 1.12.08.26.15.52.22.77l.36 1.16c.08.26.16.53.25.79.12.4.25.79.37 1.19l.24.79c.12.39.24.78.36 1.16.08.27.17.54.25.81.12.39.25.77.37 1.16.08.26.16.53.24.8.12.38.24.75.36 1.13.09.27.16.55.24.83.12.38.24.75.36 1.13.09.28.16.57.25.85.12.38.25.75.36 1.12.08.26.16.53.24.8l.18.64c.14.47.28.94.44 1.41.18.55.39 1.1.57 1.65.18.57.32 1.14.49 1.71.13.43.29.84.43 1.27.12.4.19.81.34 1.19.14.34.17.68.15 1.03-.01.39-.28.59-.55.79-.23.17-.48.15-.74.15-9.1 0-18.2 0-27.29.01-.56 0-.94-.24-1.25-.64-.03-.04-.03-.1-.04-.15-.07-.54.03-1.06.26-1.55.08-.18.12-.38.18-.57.2-.63.4-1.26.59-1.9.13-.42.23-.85.36-1.27.12-.38.27-.76.39-1.14.08-.25.13-.51.21-.75.12-.39.26-.78.39-1.17.07-.2.14-.41.2-.62.16-.56.31-1.13.48-1.68.18-.57.39-1.13.57-1.71.18-.57.32-1.16.5-1.73.17-.56.38-1.12.55-1.68.13-.41.23-.83.35-1.25.11-.37.24-.73.35-1.1.09-.28.16-.57.25-.85.11-.37.24-.73.35-1.1.09-.28.17-.57.26-.85.12-.38.24-.75.36-1.13l.24-.79c.12-.39.25-.79.37-1.18l.24-.79c.12-.39.25-.79.37-1.18.04-.13.07-.27.11-.46h-3.06c-.42 0-.89-.5-.93-.93-.03-.43.1-.76.39-1.09.61-.69 1.17-1.43 1.75-2.15.39-.48.8-.95 1.2-1.43.46-.55.92-1.11 1.38-1.66.58-.69 1.18-1.38 1.76-2.07.64-.77 1.25-1.55 1.89-2.31.58-.7 1.17-1.4 1.78-2.08.55-.62 1.26-.47 1.73.08.52.61 1.02 1.26 1.54 1.87.63.74 1.27 1.47 1.9 2.22.59.7 1.16 1.42 1.75 2.13.42.51.86 1.02 1.28 1.53.59.72 1.18 1.45 1.78 2.17.41.5.85.98 1.26 1.48.29.36.63.7.57 1.25-.06.5-.5.99-1.01 1h-2.99l.02-.02zm-14.34-2.31c.15.01.25.03.34.03.48 0 .96-.01 1.44 0 .25.01.51.05.73.15.31.13.52.4.58.74.09.46-.1.88-.24 1.31-.13.4-.24.81-.36 1.22-.07.23-.14.46-.21.68-.13.4-.26.79-.39 1.18-.08.25-.12.51-.2.75-.18.55-.38 1.1-.56 1.65-.15.46-.29.92-.43 1.39-.07.22-.12.45-.19.67-.07.25-.15.5-.23.75-.12.39-.25.79-.38 1.18l-.24.79-.36 1.16c-.08.27-.16.55-.25.82-.12.38-.24.75-.36 1.13-.09.28-.17.56-.26.85-.12.38-.24.75-.35 1.13-.09.28-.17.57-.26.85-.12.37-.24.73-.35 1.1-.08.26-.15.51-.23.77-.12.39-.25.79-.38 1.18-.09.27-.17.55-.25.82l-.36 1.16-.24.79c-.12.39-.24.77-.37 1.16-.09.28-.19.55-.27.83-.09.32-.17.64-.26.99h24.49c-.1-.36-.19-.69-.28-1.02-.04-.15-.08-.3-.12-.44l-.27-.81-.21-.7c-.13-.42-.27-.83-.4-1.25-.12-.38-.22-.77-.34-1.15-.14-.44-.28-.88-.42-1.33-.07-.22-.12-.44-.19-.65-.08-.26-.18-.52-.26-.78-.12-.39-.22-.78-.34-1.17-.13-.44-.28-.87-.42-1.3-.12-.39-.21-.78-.33-1.17-.14-.45-.29-.9-.44-1.35l-.18-.61c-.09-.27-.19-.54-.27-.81l-.33-1.11c-.09-.3-.2-.59-.29-.89-.11-.36-.21-.73-.32-1.09-.09-.29-.2-.58-.29-.87-.11-.36-.2-.73-.32-1.08-.13-.42-.29-.83-.42-1.25-.13-.4-.22-.81-.35-1.21-.18-.55-.39-1.1-.56-1.65-.13-.39-.21-.8-.33-1.2-.06-.22-.17-.42-.2-.64-.05-.31-.14-.67-.03-.95.2-.51.63-.76 1.21-.74.5.02 1 0 1.49 0 .09 0 .18-.01.29-.02-.19-.26-.34-.5-.51-.7-.47-.57-.96-1.12-1.43-1.68-.63-.75-1.26-1.51-1.89-2.27-.66-.8-1.33-1.6-1.99-2.4-.46-.55-.91-1.11-1.38-1.66-.04-.04-.2-.05-.23 0-.43.5-.84 1.01-1.26 1.52a334.71 334.71 0 01-3.67 4.43l-1.37 1.64c-.3.36-.61.72-.95 1.13zM9.67 52.34c-.2.35-.35.62-.51.89-.35.61-.7 1.23-1.07 1.84-.14.23-.67.36-.97.32-.45-.07-.75-.31-.92-.72-.12-.27-.13-.53 0-.79.38-.72.75-1.44 1.14-2.16.23-.42.48-.82.71-1.24.23-.42.44-.86.67-1.29.16-.3.36-.59.52-.89.18-.32.34-.66.52-.98.24-.43.49-.86.73-1.29.23-.42.43-.85.66-1.27.16-.31.34-.62.51-.93.19-.34.37-.69.56-1.03.22-.4.45-.79.67-1.19.29-.52.57-1.04.86-1.56.33-.6.67-1.2 1-1.8.17-.3.3-.63.52-.89.35-.41.93-.48 1.41-.22.39.21.5.61.71.93.21.32.38.65.57.98.17.32.33.64.5.96.39.7.78 1.4 1.17 2.11.23.42.44.85.66 1.27l1.08 1.98c.05.09.14.16.23.26.39-.72.76-1.42 1.14-2.1.44-.79.89-1.58 1.33-2.38.37-.67.73-1.35 1.09-2.03.28-.54.72-.77 1.32-.68.28.04.8.48.84.83.07.54-.14.98-.39 1.43-.24.43-.47.86-.71 1.29-.29.51-.59 1.01-.87 1.53-.33.6-.63 1.22-.96 1.82-.23.42-.48.82-.71 1.23-.22.4-.43.81-.65 1.21-.25.45-.5.89-.75 1.35-.28.52-.53 1.05-.82 1.57-.33.6-.68 1.18-1.01 1.78-.23.42-.42.85-.65 1.27-.32.59-.66 1.17-.99 1.75-.23.42-.44.85-.67 1.26-.28.51-.59 1.02-.87 1.53-.18.33-.33.67-.51 1-.16.31-.33.61-.5.92-.23.41-.47.83-.7 1.24-.34.61-.67 1.22-1 1.84-.28.52-.55 1.05-.84 1.57-.33.6-.66 1.19-.99 1.79-.28.52-.56 1.04-.84 1.55-.39.7-.78 1.4-1.19 2.09-.42.72-1.61.62-1.95-.12-.15-.33-.16-.74.04-1.11.18-.33.34-.66.52-.99.22-.39.44-.78.66-1.18.19-.36.37-.72.56-1.08.15-.28.3-.56.46-.84.19-.33.39-.66.58-1 .25-.44.51-.89.75-1.34.23-.42.42-.86.65-1.28.38-.7.79-1.38 1.17-2.07.28-.52.53-1.06.82-1.58.32-.59.67-1.17.99-1.75.12-.21.21-.44.34-.71-.7.07-1.09-.35-1.49-.76-.44-.45-.9-.87-1.32-1.32-.15-.16-.23-.11-.35 0-.15.14-.46.54-.79.71-.03.02-.14.07-.3.11-.4.09-.73-.06-.83-.11-.23-.11-.36-.26-.44-.35-.27-.3-.62-.67-1.11-1.17l.01-.01zm6.44-11.79c-.1.17-.18.3-.25.42-.24.42-.47.85-.7 1.28l-.96 1.74c-.23.42-.43.85-.66 1.27-.24.44-.49.87-.73 1.3-.18.32-.35.65-.53.97-.23.41-.46.83-.69 1.24-.18.32-.37.64-.54.97-.09.18-.24.46-.17.55.27.35.61.63.93.95.21-.22.37-.41.55-.58.64-.59 1.07-.68 1.75-.17.36.27.66.64.98.96.33.33.66.67.98 1 .57-.56 1.11-1.09 1.65-1.63.36-.36.74-.69 1.29-.67.06 0 .15-.06.18-.12.25-.44.48-.88.72-1.33.17-.33.41-.61.09-1.03-.32-.42-.53-.92-.78-1.39-.23-.43-.43-.87-.66-1.3-.23-.44-.49-.86-.73-1.3-.17-.31-.31-.63-.49-.94-.23-.41-.49-.81-.72-1.23-.18-.31-.34-.64-.53-.99l.02.03z"/><path d="M40.2 2.37h9.82c.02.02-.03.12-.05.16-.04.07-.09.15-.16.25-.62 1.04-1.13 1.76-1.52 2.26-.17.21-.43.54-.43.98 0 .42.28.71.48 1.03.38.59.79 1.15 1.18 1.72l.4.58c.05.07.07.14.04.19-.03.05-.13.06-.16.07h-.19c-2.98.09-5.98.09-9.01 0h-.19-.09c-.04 0-.08-.01-.1-.04-.02-.02-.02-.05-.02-.15v-1.2-2.35-2.96l-.02-.56.02.02z"/><path d="M43.31 29.2a2.05 2.05 0 00-.19-.15c-.28-.23-.54-.49-.84-.68-.43-.27-.87-.18-1.23.13-.43.37-.83.8-1.24 1.2-.2.2-.41.39-.6.6-.13.14-.24.14-.38 0-.55-.57-1.09-1.15-1.67-1.68-.52-.48-1.27-.57-1.81.04-.14.16-.29.34-.46.46-.08.06-.28.04-.36-.02-.23-.19-.42-.43-.65-.63-.16-.14-.11-.29-.04-.42.27-.51.55-1.02.83-1.53.19-.34.36-.69.55-1.04.16-.3.32-.59.49-.89l.72-1.29c.24-.43.47-.85.71-1.28l.51-.93c.23-.42.48-.83.71-1.26.18-.33.34-.68.52-1.02.03-.06.1-.14.13-.13.06.01.13.08.16.14.27.5.53 1 .8 1.5.23.43.47.86.71 1.29.45.8.9 1.6 1.34 2.41.23.42.43.85.66 1.27.32.59.66 1.17.98 1.76.19.35.37.71.56 1.07.07.14.04.26-.08.36-.21.2-.41.41-.62.61-.05.05-.14.07-.22.12l.01-.01z"/><path d="M31.66 48.46c.35-.41.65-.77.95-1.13.46-.55.92-1.09 1.37-1.64.59-.71 1.19-1.42 1.78-2.13.63-.77 1.26-1.54 1.89-2.3.42-.51.83-1.02 1.26-1.52.03-.04.2-.03.23 0 .47.55.92 1.11 1.38 1.66.66.8 1.33 1.6 1.99 2.4.63.76 1.26 1.52 1.89 2.27.47.56.96 1.12 1.43 1.68.17.21.32.44.51.7-.11 0-.2.02-.29.02-.5 0-1 .02-1.49 0-.58-.02-1.01.23-1.21.74-.11.27-.01.63.03.95.03.22.14.43.2.64.11.4.2.81.33 1.2.18.55.38 1.1.56 1.65.13.4.22.81.35 1.21.13.42.29.83.42 1.25.11.36.21.72.32 1.08.09.29.2.58.29.87.11.36.21.73.32 1.09.09.3.2.59.29.89l.33 1.11.27.81c.07.2.12.41.18.61.14.45.3.9.44 1.35.12.39.21.78.33 1.17.13.44.28.87.42 1.3.12.39.22.78.34 1.17.08.26.18.52.26.78.07.22.12.44.19.65.14.44.29.88.42 1.33.12.38.22.77.34 1.15.13.42.27.83.4 1.25l.21.7.27.81c.05.15.08.29.12.44.09.33.18.66.28 1.02H26.78c.09-.35.17-.67.26-.99.08-.28.18-.56.27-.83.12-.39.25-.77.37-1.16l.24-.79.36-1.16c.08-.27.16-.55.25-.82.12-.39.26-.79.38-1.18.08-.26.15-.51.23-.77.11-.37.23-.73.35-1.1.09-.28.17-.57.26-.85.12-.38.24-.75.35-1.13.09-.28.17-.56.26-.85.12-.38.24-.75.36-1.13.09-.27.16-.54.25-.82l.36-1.16.24-.79c.12-.39.25-.79.38-1.18.08-.25.16-.5.23-.75.07-.22.12-.45.19-.67.14-.46.28-.93.43-1.39.18-.55.38-1.1.56-1.65.08-.25.12-.51.2-.75.12-.4.26-.79.39-1.18.07-.23.14-.46.21-.68.12-.41.23-.82.36-1.22.14-.43.33-.85.24-1.31a.98.98 0 00-.58-.74c-.22-.1-.48-.14-.73-.15-.48-.02-.96 0-1.44 0-.09 0-.19-.01-.34-.03h-.01z"/><path d="M16.1 40.54c.19.35.35.68.53.99.23.41.49.81.72 1.23.17.31.32.63.49.94.24.43.49.86.73 1.3.23.43.43.87.66 1.3.25.47.46.97.78 1.39.32.42.08.7-.09 1.03-.23.44-.47.89-.72 1.33-.03.06-.12.12-.18.12-.56-.01-.93.31-1.29.67-.54.53-1.08 1.06-1.65 1.63-.32-.33-.65-.66-.98-1-.32-.33-.62-.69-.98-.96-.68-.51-1.11-.43-1.75.17-.18.17-.35.36-.55.58-.32-.31-.66-.6-.93-.95-.07-.09.08-.37.17-.55.17-.33.36-.65.54-.97.23-.41.46-.83.69-1.24.18-.32.35-.65.53-.97.24-.43.49-.86.73-1.3.23-.42.43-.85.66-1.27.31-.58.64-1.16.96-1.74.23-.42.47-.85.7-1.28.07-.13.15-.25.25-.42l-.02-.03z"/></g></symbol><symbol id="healing" viewBox="0 0 92 92"><path d="M92 46c0 25.405-20.595 46-46 46S0 71.405 0 46 20.595 0 46 0s46 20.595 46 46z"/><path d="M37.225 54.52v15.225a2 2 0 002 2h14.55a2 2 0 002-2V54.52H70a2 2 0 002-2V38.97a2 2 0 00-2-2H55.775V22a2 2 0 00-2-2H39.5a2 2 0 00-2 2v14.97H23a2 2 0 00-2 2v13.55a2 2 0 002 2h14.225z"/><path fill-rule="evenodd" d="M13.982 68.268a.915.915 0 01.254-1.285.95.95 0 011.301.257 37.137 37.137 0 10-6.628-19.385.95.95 0 01-.87 1 .915.915 0 01-.988-.86 39 39 0 116.93 20.273zM72.9 53.245a1.9 1.9 0 01-1.9 1.9H56a.9.9 0 110-1.8h15a.1.1 0 00.1-.1v-14.5a.1.1 0 00-.1-.1H54.6v-16.9a.1.1 0 00-.1-.1H44a.9.9 0 110-1.8h10.5c1.05 0 1.9.85 1.9 1.9v15.1H71c1.05 0 1.9.85 1.9 1.9v14.5zM38 29.1a.9.9 0 01.9.9v8.645H22a.1.1 0 00-.1.1v14.5a.1.1 0 00.1.1h16.872v17.4a.1.1 0 00.1.1H54a.1.1 0 00.1-.1V63.5a.9.9 0 111.8 0v7.245a1.9 1.9 0 01-1.9 1.9H38.972a1.9 1.9 0 01-1.9-1.9v-15.6H22a1.9 1.9 0 01-1.9-1.9v-14.5c0-1.05.85-1.9 1.9-1.9h15.1V30a.9.9 0 01.9-.9z" clip-rule="evenodd"/></symbol><symbol id="individual" viewBox="0 0 78 78"><path d="M2.197 53a6 6 0 016-6h8.521v1.277a8.14 8.14 0 0016.282 0V48h10v27.718H2.197V53z"/><path d="M77.969 76.12v.21c-.08.57-.642 1.007-.969 1.17-1 .5-2.211.5-2.211.5-23.86-.03-47.73-.02-71.59-.02-.3 0-.61 0-.91-.01-1.27-.07-2.26-1.03-2.27-2.31-.03-2.72-.02-9.471 0-12.191 0-.77.45-1.27 1.11-1.29.68-.02 1.17.5 1.17 1.3.01 2.41 0 8.861 0 11.281v.88h32.62v-.9c0-4.42-.02-12.871 0-17.291.02-3.81 2.48-6.77 6.15-7.4.56-.1 1.14-.09 1.81-.14-.45-.57-.85-1.08-1.26-1.58-.08-.1-.26-.16-.39-.16h-6.47c.06 3.55-1.22 6.47-4.05 8.61-2.03 1.53-4.36 2.12-6.88 1.89-4.48-.42-9.02-4.26-8.92-10.45-.21-.01-.43-.04-.65-.04-1.88 0-3.76-.01-5.64 0-3.6.02-6.3 2.72-6.33 6.31v3.66c0 .88-.45 1.42-1.14 1.41-.7 0-1.16-.54-1.13-1.42.05-1.87-.1-3.79.25-5.61.74-3.89 4.22-6.6 8.2-6.63 2.84-.03 5.69 0 8.53 0h.81c.19-.69.05-1.12-.51-1.55-2.78-2.1-4.44-4.89-4.97-8.34-.05-.3-.1-.6-.15-.93l-.66-.15c-2.87-.55-4.69-3.52-3.77-6.3.28-.84.27-1.62.17-2.44-.28-2.19-.56-4.38-.85-6.56-.48-3.51 1.08-6.02 4.44-7.18.22-.08.47-.37.52-.61.84-4.04 4-6.7 8.11-6.82.66-.02 1.32-.03 1.98 0 .67.03 1.12.49 1.14 1.09.01.59-.43 1.11-1.09 1.16-.71.05-1.42.01-2.13.04-3.2.12-5.7 2.58-5.87 5.77-.06 1.04-.34 1.34-1.35 1.46-2.39.27-3.77 1.95-3.52 4.35.23 2.21.54 4.42.82 6.65.7-.19 1.36-.37 1.85-.5.5-1.57.87-3.1 1.47-4.54.82-1.98 2.22-3.56 3.94-4.85.55-.42 1.11-.52 1.66-.04 2.99 2.61 6.58 3.85 10.4 4.51 1.89.33 3.82.46 5.74.64 1.12.11 1.37.24 1.67 1.3.22.78.37 1.58.5 2.38.06.4.17.64.62.7.42.05.83.2 1.27.31.03-.04.1-.09.11-.15.3-2.29.67-4.57.86-6.87.16-2.02-1.32-3.6-3.41-3.87-1.32-.18-1.54-.45-1.41-1.79.28-2.92-1.82-5.35-4.75-5.45-1.12-.04-2.23 0-3.35-.02-.89-.01-1.4-.45-1.38-1.17.01-.69.5-1.12 1.35-1.1 1.6.03 3.22-.07 4.78.2 3.06.53 5.35 3.18 5.61 6.29.05.66.29.93.9 1.15 2.03.73 3.28 2.21 3.81 4.31.05.19.1.39.1.37.92-.83 1.85-1.76 2.87-2.57 5.22-4.17 11.07-5.1 17.25-2.78s9.86 6.99 10.94 13.51c.36 2.16.19 4.4.22 6.61 0 .65-.52 1.11-1.12 1.11-.63 0-1.12-.48-1.14-1.18-.03-1.24 0-2.49-.01-3.73-.02-7.48-4.99-13.52-12.33-14.96-9.02-1.77-17.49 5.01-17.65 14.19-.07 4.44-.07 8.89 0 13.33.06 3.6 1.61 6.5 4.53 8.62.38.27.91.41 1.39.45.93.07 1.87.02 2.92.02 0-.78.03-1.51-.02-2.22-.01-.17-.27-.34-.44-.47-3.55-2.46-5.35-5.87-5.47-10.17-.05-1.62-.02-3.25 0-4.87 0-1.21.61-1.65 1.77-1.33 1.66.46 3.27.22 4.85-.34 3.19-1.12 5.89-3.05 8.44-5.21 1.43-1.21 2.77-2.53 4.14-3.82.83-.78 1.45-.77 2.17.11 1.76 2.16 2.7 4.65 2.75 7.42.05 3.04.1 6.1-.09 9.13-.23 3.71-2.04 6.65-5.04 8.81-.59.43-.86.84-.77 1.54.06.44.01.9.01 1.57.48-.2.93-.25 1.13-.5 1.06-1.26 2.39-1.89 4.01-1.76.82.07 1.3-.25 1.74-.9 1.26-1.86 1.94-3.89 1.97-6.14.01-1.19 0-2.39 0-3.58 0-.88.46-1.41 1.16-1.4.7 0 1.14.54 1.12 1.43-.03 2.3.25 4.64-.47 6.88-.42 1.29-1 2.53-1.52 3.82 1.54.47 2.66 1.52 3.2 3.16.05.15.18.3.31.41.73.6.93.78 1.4 1.38.23.29.36.54.49.8.24.47.38.87.5 1.22.01.04.08.24.16.51.11.4.13.58.14.68.01.13.01.24.01.31V76.12h-.01zm-2.28-.46c0-5.01.01-13.971-.02-18.901 0-.57-.26-1.14-.4-1.71-.68 1.58-1.88 1.88-3.36 1.84-1.98-.06-3.96-.03-5.94 0-.98 0-1.94.01-2.63-.84-2.69 3.71-6.07 4.15-8.44 3.61-3.89-.88-5.96-3.48-6.53-7.41h-5.81c-3.29.02-5.36 2.09-5.36 5.39V74.86c0 .27-.01.53 0 .81h38.49v-.01zm-57.51-57.751c-2.29 2.05-3.6 4.53-3.69 7.55-.09 2.99-.06 5.99-.01 8.98.09 5.1 4.15 9.58 9.06 10.06 5.45.54 10.31-2.8 11.33-8.06.74-3.82.29-7.74.23-11.61 0-.38-.14-.75-.17-1.12-.05-.53-.3-.68-.84-.72-5.69-.38-11.15-1.51-15.91-5.09v.01zm46.4 6.01c-1.78 1.51-3.46 3.02-5.23 4.42-2.38 1.88-4.91 3.54-7.84 4.41-1.53.45-3.15.58-4.75.86 0 1.43-.12 3.03.02 4.6.43 4.91 4.73 8.73 9.69 8.73 4.91 0 9.28-3.83 9.63-8.69.23-3.15.13-6.34.08-9.51-.03-1.75-.62-3.37-1.6-4.83v.01zm-47.36 24.31c-.05 3.2 1.19 5.65 3.95 7.24 2.61 1.5 5.96 1.23 8.31-.63 2.13-1.69 3.07-3.92 2.96-6.6-.84-.07-1.6-.02-2.28-.23-.93-.29-.52-1.29-.73-2-3.1 1.17-6.14 1.15-9.21.02-.15.77.19 1.71-.73 1.99-.68.21-1.44.15-2.27.21zm33.52 4.01c.31 3.37 3.2 5.63 6.53 5.23 2.64-.32 5.14-3.02 4.8-5.18-1.61-.15-1.76-.32-1.76-1.97v-1.71c-2.6.85-5.11.8-7.68.04v2.4c-.03.72-.44 1.11-1.14 1.18-.22.02-.44 0-.73 0l-.02.01zm-11.61-17.58c-.39.1-.71.23-1.03.25-.53.03-.71.28-.77.8-.44 3.54-2.1 6.42-4.93 8.58-.59.45-.71.9-.53 1.56h8.37c-1.63-3.62-.87-7.42-1.11-11.19zm33.67 19.9c0-.86.06-1.67-.01-2.47-.1-1.11-1.04-1.92-2.17-1.95-1.09-.02-2.18-.02-3.27 0-1.13.02-2.03.73-2.18 1.84-.11.84-.02 1.7-.02 2.58h7.65zm-60.68-21.94v-5.16c-1.3.07-2.33 1.19-2.35 2.53-.03 1.35.99 2.52 2.35 2.63zm25.38-5.2v5.21c1.22-.11 1.67-.57 1.67-1.69 0-.61-.07-1.23.02-1.82.16-1.11-.6-1.58-1.68-1.7h-.01z"/><path d="M75.73 75.688H37.209v-4.88-13.18c0-3.3 2.07-5.37 5.36-5.39h5.81c.25 1.721.786 3.185 1.638 4.361 1.093 1.512 2.705 2.55 4.892 3.05 2.37.54 5.75.1 8.44-3.61.69.86 1.65.85 2.63.84 1.98-.02 3.96-.05 5.94 0 1.47.04 2.68-.25 3.36-1.84.14.57.4 1.14.4 1.71.03 4.92.06 13.91.06 18.93l-.01.01z"/><path d="M18.179 17.909c4.76 3.57 10.22 4.71 15.91 5.09.53.04.79.18.84.72.03.38.17.75.17 1.12.06 3.87.51 7.78-.23 11.61-1.02 5.26-5.89 8.6-11.33 8.06-4.91-.49-8.98-4.97-9.06-10.06-.05-2.99-.07-5.99.01-8.98.09-3.02 1.4-5.5 3.69-7.55v-.01zM64.579 23.919c.99 1.46 1.57 3.08 1.6 4.84.05 3.17.15 6.35-.08 9.51-.35 4.86-4.72 8.68-9.63 8.69-4.96 0-9.26-3.82-9.69-8.73-.14-1.58-.02-3.18-.02-4.6 1.6-.28 3.22-.41 4.75-.86 2.93-.87 5.47-2.53 7.84-4.41 1.77-1.4 3.45-2.91 5.23-4.42v-.02zM72.799 54.549h-7.65c0-.89-.09-1.75.02-2.58.14-1.11 1.05-1.82 2.18-1.84 1.09-.02 2.18-.02 3.27 0 1.13.02 2.07.84 2.17 1.95.07.8.01 1.61.01 2.47zM12.119 32.619a2.575 2.575 0 01-2.35-2.63c.03-1.34 1.05-2.46 2.35-2.53v5.16zM37.509 27.419c1.08.12 1.84.59 1.68 1.7-.08.6-.01 1.21-.02 1.82 0 1.11-.45 1.57-1.67 1.69v-5.21h.01z"/></symbol><symbol id="logoPlastilin" viewBox="0 0 112 24"><g clip-path="url(#clip0_281_976)"><path d="M2.383 11.886C2.285 7.05 9.868 7.05 9.77 11.837a3.491 3.491 0 01-.915 2.5 3.458 3.458 0 01-2.778 1.114c-1.896 0-3.742-1.172-3.694-3.565h-.001zm-.584-4.347A5.912 5.912 0 000 11.84v10.985c-.049 1.563 2.43 1.514 2.383 0V16.72c3.79 3.127 9.964.098 9.77-4.884.146-3.613-3.112-6.153-6.27-6.153A5.98 5.98 0 001.8 7.54M13.954 1.224v15.872a1.236 1.236 0 00.751 1.142 1.22 1.22 0 001.338-.262 1.105 1.105 0 00.34-.88V1.224c.01-.301-.1-.594-.305-.815a1.13 1.13 0 00-.908-.36 1.16 1.16 0 00-.836.306 1.17 1.17 0 00-.376.809v.058M27.406 12c.049 1.905-1.114 3.76-3.503 3.711a3.364 3.364 0 01-2.688-.998A3.396 3.396 0 0120.257 12a3.589 3.589 0 01.944-2.567 3.558 3.558 0 012.474-1.144h.228a3.453 3.453 0 012.464.99 3.484 3.484 0 011.046 2.45c0 .09 0 .181-.007.27zm-7.874-4.295c-5.347 5.274 2.09 13.68 7.971 9.18.05 1.515 2.432 1.612 2.383 0v-4.788c.194-3.663-2.965-6.154-6.174-6.154a5.324 5.324 0 00-4.18 1.76M31.107 9.557a3.442 3.442 0 00.83 2.488 3.412 3.412 0 002.718 1.176c2.723.39.291 4.15-1.214 1.76-1.8-2.735-3.598.684-1.07 2.344 3.451 2.93 8.07-2.393 4.862-5.47-.924-1.171-2.383-.732-3.451-1.465-1.41-1.368 1.311-3.125 1.99-1.465 2.188 3.321 4.279-2.784-1.114-3.076h-.099a3.53 3.53 0 00-2.479 1.103 3.561 3.561 0 00-.976 2.542v.064M43.39.004c-2.09-.098-.923 4.981-1.166 6.105h-.535c-1.021-.05-2.431-.099-2.431 1.22-.049 1.317 1.41 1.268 2.43 1.22h.487v8.596c-.023.317.08.63.287.872a1.193 1.193 0 002.095-.872V8.5h1.702a1.128 1.128 0 001.068-.671 1.143 1.143 0 00.099-.546 1.144 1.144 0 00-.62-1.102 1.13 1.13 0 00-.426-.12 1.004 1.004 0 00-.12 0h-1.703c-.243-1.028.924-6.057-1.07-6.057h-.096zM48.654 7.28c.097.293-.34 10.94.34 10.695a1.2 1.2 0 002.042-.88V7.28a1.143 1.143 0 00-.307-.815 1.132 1.132 0 00-.908-.36 1.143 1.143 0 00-1.073.696c-.06.14-.092.29-.094.44v.04zm1.264-6.056a1.13 1.13 0 00-.812.308c-.219.207-.348.493-.357.794v.118a1.142 1.142 0 00.623 1.1 1.129 1.129 0 00.544.118 1.105 1.105 0 001.061-.63c.064-.131.1-.275.108-.42a1.091 1.091 0 000-.17 1.203 1.203 0 00-.333-.852 1.192 1.192 0 00-.833-.368M52.906 1.224v15.872a1.236 1.236 0 00.751 1.143 1.22 1.22 0 001.339-.263 1.109 1.109 0 00.34-.88V1.224a1.146 1.146 0 00-.306-.816 1.132 1.132 0 00-.91-.358 1.16 1.16 0 00-.836.305 1.17 1.17 0 00-.377.809v.058M57.108 7.28v9.816a1.215 1.215 0 00.734 1.125c.145.062.302.095.46.096h.023a1.171 1.171 0 001.167-1.164V7.28a1.132 1.132 0 00-1.214-1.174 1.116 1.116 0 00-1.063.65 1.13 1.13 0 00-.103.522l-.004.002zm1.219-6.058a1.128 1.128 0 00-1.07.669 1.142 1.142 0 00-.1.55 1.143 1.143 0 00.623 1.101 1.13 1.13 0 00.544.118c.294.016.583-.085.802-.282a1.117 1.117 0 00.364-.939 1.142 1.142 0 00-.622-1.1 1.13 1.13 0 00-.544-.117M61.107 16.887c-.049 1.563 2.48 1.563 2.382 0V12c-.097-4.834 7.486-4.786 7.39 0v4.885a1.192 1.192 0 002.382 0c.29-4.786.238-10.842-6.126-11.04-6.223.195-6.271 6.202-6.028 11.04"/><path d="M94.219 17.096c.097 1.612-2.334 1.514-2.383 0-5.882 4.541-13.32-3.906-7.972-9.18 3.597-3.908 10.597-1.026 10.352 4.345v4.835h.003zm-5.98-1.172c4.715.146 4.666-7.471 0-7.374-4.763-.146-4.959 7.52 0 7.374zM98.303 17.096a1.202 1.202 0 01-.38.788 1.191 1.191 0 01-2.002-.788v-4.88c-.778-3.375 6.077-8.696 7.339-4.936a1.236 1.236 0 01-1.214 1.22c-4.521-.097-3.695 5.665-3.743 8.596M110.892 6.107a1.2 1.2 0 01.784 2.011 1.19 1.19 0 01-.784.382h-1.701v8.596c-.005.322-.133.63-.36.859a1.23 1.23 0 01-.852.365 1.2 1.2 0 01-1.167-1.22V8.5c-.972 0-2.965.293-2.917-1.22-.048-1.514 1.991-1.172 2.917-1.172.291-1.12-.926-6.202 1.167-6.108 2.089-.146.923 4.982 1.214 6.105l1.699.002z"/></g></symbol><symbol id="phone" viewBox="0 0 23 24"><g clip-path="url(#clip0_296_79)"><path d="M16.58 16.901l.196-.144a2.224 2.224 0 013.11.466l1.266 1.713c.73.988.521 2.38-.467 3.11l-.195.145-3.91-5.29zM4.848 1.028l.198-.146a2.224 2.224 0 013.11.467l1.266 1.713c.73.988.521 2.38-.466 3.11l-.198.147-3.91-5.29z"/><path d="M20.49 22.192a5.433 5.433 0 01-2.966 1.057l-1.377.067a5.432 5.432 0 01-4.631-2.197L3.24 9.922A5.432 5.432 0 012.5 4.85l.467-1.297a5.432 5.432 0 011.881-2.525l3.91 5.291-.813 1.159a1.642 1.642 0 00.024 1.919l5.437 7.356c.42.568 1.156.804 1.827.586l1.346-.438 3.91 5.291z"/></g></symbol><symbol id="prep" viewBox="0 0 92 92"><path d="M92 46c0 25.405-20.595 46-46 46S0 71.405 0 46 20.595 0 46 0s46 20.595 46 46z"/><path d="M50 30h6.584v1.494c0 5.377-.006 10.754.013 16.132.002.356.128.764.324 1.057 1.84 2.748 3.708 5.478 5.569 8.212 2.362 3.473 4.722 6.948 7.09 10.417.356.521.557 1.053.312 1.683-.266.688-.79 2.004-1.682 2.004H38.803c-.114 0-.228.003-.341-.003C37.5 70.5 37 69.5 37 69c-.215-.625.1-1.22.442-1.72 4.189-6.15 8.064-12.45 12.257-18.597a2.48 2.48 0 00.438-1.41C50.124 41.947 50 36.82 50 31.494V30z"/><path d="M53.021 26.005c1.532 0 3.063-.014 4.594.006.72.01 1.264.698 1.367 1.65.103.958-.24 1.85-.865 2.181-.179.096-.38.148-.571.148-3.03.01-6.061.017-9.091 0-.794-.004-1.353-.702-1.441-1.697-.09-1.003.277-1.89.934-2.181.212-.093.45-.105.674-.107 1.466-.009 2.933-.003 4.4-.003v.003z"/><path fill-rule="evenodd" d="M80.35 64.47a.915.915 0 01-1.261.354.95.95 0 01-.36-1.276 37.137 37.137 0 10-14.285 14.685.95.95 0 011.286.324.915.915 0 01-.32 1.27 39 39 0 1114.94-15.358zM41.936 20c.057 0 .141.003.238.016 1.113.15 1.79 1.337 1.863 1.47.508.92.607 2.234-.033 3.219-.524.805-1.388 1.154-1.572 1.228l-.005.002c-.229.091-.43.143-.575.172v.484l.001 2.48c.001 2.976.002 5.954-.011 8.93-.002.391.125.548.477.667 1.521.513 2.918 1.273 4.22 2.216.302.22.517.481.448.881-.108.614-.735.81-1.323.47a100.82 100.82 0 00-3.394-1.873c-.28-.148-.59-.241-.9-.334a15.396 15.396 0 01-.317-.098c-.632-.206-.792-.412-.792-1.09V26.147h-7.39v12.709c0 .811-.117.974-.882 1.232-6.786 2.283-10.973 8.801-10.293 16.018.588 6.244 4.936 11.491 10.93 13.19l.122.032c.104.028.207.056.308.09.478.167.713.576.588 1.011-.118.412-.521.666-.987.537-.687-.19-1.378-.385-2.03-.666-5.975-2.574-9.546-7.092-10.468-13.592-1.082-7.624 3.445-15.155 10.633-17.891.373-.143.493-.31.492-.712 0-.18-.006-.582-.014-1.137-.035-2.455-.112-7.912.009-10.475.01-.238.022-.43.03-.548-.1-.014-.24-.04-.404-.095-.768-.255-1.189-.854-1.33-1.058-.379-.552-.56-1.235-.51-1.978.015-.247.071-.584.223-.955.337-.827 1.08-1.632 2.021-1.821.116-.023.212-.032.268-.037h10.36zm-5.156 1.61l-1.508-.001h-3.018c-.973.003-1.61.587-1.605 1.455.007.845.64 1.438 1.58 1.44 3.017.006 6.035.006 9.053 0 .935-.002 1.575-.599 1.582-1.44.006-.863-.636-1.453-1.608-1.456-.995-.003-1.99-.002-2.984 0H36.779l.001.002zM24.335 53.903c.421-4.397 2.378-7.858 6-10.3.49-.332.943-.282 1.216.114.28.406.149.89-.358 1.23-2.541 1.701-4.222 4.04-4.96 7.06-.17.696-.248 1.42-.324 2.135-.074.689-.33 1.046-.827 1.035-.518-.013-.788-.415-.753-1.123l.006-.151zM47.9 28a1.1 1.1 0 001.1 1.1H57a1.1 1.1 0 100-2.2h-8a1.1 1.1 0 00-1.1 1.1zm12 0a2.9 2.9 0 01-2.326 2.843V47.55l1.66 2.445a.9.9 0 11-1.49 1.01l-1.814-2.674-.156-.228V30.9h-5.456V48.098l-.15.227L37.85 66.837c-.929 1.395.072 3.263 1.748 3.263h27.58c1.708 0 2.701-1.928 1.711-3.318l-6.146-8.63a.9.9 0 011.466-1.044l6.146 8.63c1.84 2.581-.006 6.162-3.176 6.162H39.6c-3.114 0-4.972-3.468-3.248-6.06L48.52 47.554V30.86a2.9 2.9 0 01.48-5.76h8a2.9 2.9 0 012.9 2.9z" clip-rule="evenodd"/></symbol><symbol id="price" viewBox="0 0 78 78"><path d="M37.496.03c.31.03.59.07.83.1.36.05.82.12 1.4.26.29.07.51.12.8.22.32.11.7.25 1.11.49.56.32 1 .77 1.29 1.35.18.36.32.75.4 1.14.07.37.04.75.02 1.13-.04.76-.34 1.42-.83 1.99-.45.53-.96 1.01-1.38 1.56-.38.51-.69 1.09-1.01 1.65-.26.44-.5.9-.72 1.36-.18.38-.35.78-.49 1.18-.32.95-.77 1.81-1.58 2.42-.31.23-.73.32-1.08.51-.4.22-.82.16-1.24.16-3.14 0-6.28 0-9.42.01-.71 0-1.37-.13-1.98-.49-.65-.39-1.17-.9-1.48-1.61-.19-.43-.38-.86-.59-1.27-.22-.42-.46-.83-.7-1.24-.22-.38-.44-.76-.69-1.12-.35-.5-.71-1.01-1.1-1.47-.53-.63-1.12-1.2-1.65-1.82-.3-.35-.46-.79-.6-1.23-.17-.51-.14-1.02-.1-1.53.03-.44.19-.84.4-1.24.21-.41.47-.77.82-1.06.39-.33.81-.59 1.3-.73 0 0 .9-.38 2-.56.26-.04.55-.08.55-.08.26-.03.49-.05.66-.06.27-.03.57-.04.89-.05.37 0 .71.01 1.02.04.09 0 .22.02.38.04.29.03.43.05.61.08.28.05.49.1.63.13.23.06.46.11.6.17.41.17.83.35 1.22.57.48.27.94.58 1.4.89.4.27.81.49 1.3.22.26-.15.51-.33.77-.49.47-.27.93-.57 1.42-.8.3-.14.79-.37 1.46-.55.45-.12.82-.18 1.03-.21.23-.03.44-.05.6-.06.29-.02.61-.03.93-.03.29 0 .56.01.82.03h-.02zm-7.17 12.92h4.81c.37 0 .69-.1.88-.42.18-.31.31-.64.46-.97.17-.4.31-.82.5-1.21.22-.47.46-.92.72-1.37.4-.71.78-1.44 1.25-2.1.4-.57.89-1.08 1.36-1.59.32-.35.52-.71.47-1.2-.05-.43-.41-.83-.81-.91-.23-.05-.45-.13-.68-.18-.64-.14-1.27-.31-1.91-.4-.48-.06-.98-.04-1.46 0-.35.02-.71.1-1.05.19-.36.1-.72.24-1.07.4-.33.16-.66.33-.96.55-.68.51-1.39.94-2.23 1.09-.6.1-1.21.03-1.79-.16-.24-.08-.48-.19-.7-.32-.35-.22-.65-.5-1.01-.7-.43-.24-.87-.47-1.33-.63-.5-.18-1.02-.34-1.54-.41-.89-.12-1.77.02-2.66.15-.04 0-.07.02-.11.03-.28.08-.55.15-.83.24-.29.09-.58.17-.85.3-.62.32-.69 1.21-.25 1.69.21.23.44.44.65.67.46.53.92 1.05 1.35 1.6.37.48.72.97 1.05 1.48.31.47.59.96.85 1.46.3.57.58 1.16.86 1.75.27.59.49.99 1.36.98 1.56-.03 3.11 0 4.67 0v-.01zM38.746 19.49h-15.4c-.51 0-.94-.13-1.23-.57-.24-.36-.36-.71-.16-1.17.27-.61.7-.86 1.34-.86h15.34c.2 0 .4.09.6.12.11.02.26.04.35-.01.55-.32 1.44.05 1.61.64.06.22.14.45.14.68.02.87.01 1.73 0 2.6 0 .18.05.31.2.42.44.36.93.6 1.47.77.64.2 1.28.18 1.9.08.7-.11 1.35-.45 1.86-.96.4-.4.86-.47 1.37-.38.4.08.64.36.81.73.38.8-.22 1.46-.74 1.85-.25.19-.5.38-.78.53-.36.2-.73.38-1.11.54-.28.12-.58.19-.87.28-.07.02-.14.02-.22.03-.33.03-.65.09-.98.1-.23 0-.45-.06-.68-.06-.81-.01-1.57-.22-2.27-.62-.4-.23-.79-.49-1.19-.73a.67.67 0 00-.31-.07h-15.03c-.64 0-1.15-.23-1.5-.78-.17-.26-.04-1.08.19-1.37.29-.36.65-.46 1.09-.46 1.59.01 3.19 0 4.78 0h9.04c.25 0 .38-.13.38-.38v-.95z"/><path d="M57.386 42.28c-.24.07-.45.15-.67.18-.76.11-1.47.38-2.16.66-.91.37-1.76.87-2.36 1.68-.17.24-.23.56-.36.84-.25.57-.13 1.16-.13 1.74-.01 3.38 0 6.77 0 10.15v.37c-.28-.07-.52-.13-.75-.2-.28-.08-.55-.22-.84-.26-.65-.09-1.31-.17-1.96-.2-.62-.02-1.25-.01-1.86.07-.53.07-1.04.27-1.56.4-.65.16-1.24.44-1.82.75-1.06.57-2 1.29-2.78 2.21-.41.48-.81.98-1.15 1.52-.27.43-.47.9-.67 1.37-.21.52-.41 1.05-.56 1.58-.1.35-.17.73-.19 1.1-.03.89-.04 1.78 0 2.67.02.51.16 1.02.25 1.53.06.33.14.65.21 1-.12.01-.446 2.56-.526 2.56-8.01 0-15.49.02-23.5 0-.4 0-1.084-2.61-1.454-2.74-.48-.18-.92-.45-1.36-.71-1.04-.61-1.86-1.45-2.57-2.42-.44-.6-.93-1.16-1.32-1.78-.41-.65-.76-1.34-1.11-2.03-.28-.54-.53-1.08-.77-1.64-.22-.52-.42-1.06-.61-1.59-.17-.48-.32-.97-.45-1.47-.13-.49-.24-.98-.32-1.47-.12-.68-.18-1.37-.31-2.05-.2-1.04-.12-2.09-.11-3.14 0-.67.09-1.34.17-2 .07-.56.16-1.12.28-1.67.11-.5.27-.99.4-1.49.07-.25.12-.51.2-.76.11-.35.23-.7.36-1.04.17-.44.35-.88.55-1.31.21-.48.42-.95.66-1.42.27-.51.55-1.02.87-1.5.5-.74.99-1.49 1.56-2.18.66-.8 1.36-1.58 2.11-2.3.65-.63 1.37-1.18 2.08-1.74.68-.54 1.38-1.05 2.08-1.57.55-.41 1.1-.81 1.65-1.21l1.68-1.23c.56-.41 1.12-.81 1.67-1.21.56-.4 1.1-.83 1.67-1.21.63-.42 1.27-.84 1.99-1.13.72-.29 1.47-.47 2.23-.61.87-.17 1.74-.1 2.61-.11 2.88-.02 5.77 0 8.65 0 .73 0 1.42.16 2.1.41.43.16.87.3 1.27.51.47.25.92.56 1.37.84.42.27.84.55 1.26.83.45.3.89.62 1.34.92.68.46 1.36.91 2.04 1.37.74.5 1.47 1.02 2.2 1.52.73.5 1.46 1 2.19 1.49.86.57 1.65 1.22 2.42 1.92.76.69 1.45 1.44 2.11 2.22.42.49.79 1.02 1.18 1.54.25.34.5.7.73 1.06.06.09.06.22.1.36l-.01.02zm-29.29-8.52c-.7.08-1.28.15-1.87.21-.03 0-.05 0-.08.02-.49.14-.99.27-1.48.43-.34.11-.68.22-1 .36-.38.16-.75.36-1.13.54-.43.21-.87.4-1.28.66-.67.42-1.32.87-1.95 1.35-.59.44-1.18.91-1.72 1.41-1.17 1.09-2.27 2.25-3.21 3.55-.36.5-.71 1-1.06 1.51-.21.31-.42.61-.6.93-.24.43-.45.88-.66 1.33-.29.62-.6 1.25-.85 1.89-.21.53-.35 1.09-.5 1.65-.15.56-.32 1.12-.41 1.69-.1.6-.13 1.22-.15 1.84 0 .25.03.55.16.76.26.44.65.71 1.22.67.69-.05 1.16-.49 1.2-1.19.04-.59.11-1.18.16-1.78 0-.03 0-.05.01-.08.08-.32.17-.65.25-.97.05-.21.11-.42.17-.62.08-.26.15-.51.25-.76.16-.43.34-.85.52-1.27.16-.36.31-.73.5-1.08.22-.41.47-.8.72-1.19.37-.58.73-1.16 1.13-1.71.35-.47.74-.92 1.14-1.35.55-.6 1.11-1.19 1.69-1.75.5-.48 1.03-.91 1.56-1.35.29-.24.61-.43.92-.64.34-.23.68-.47 1.04-.68.42-.24.85-.46 1.29-.66.41-.19.84-.35 1.27-.5.4-.14.79-.31 1.2-.39.58-.1 1.18-.14 1.77-.18.98-.07 1.49-.78 1.28-1.7-.08-.32-.28-.65-.67-.75-.31-.08-.62-.14-.83-.19v-.01z"/><path d="M40.086 67.58c-.1-4.24 3.62-7.91 7.97-7.78 4.23.13 7.64 3.64 7.58 7.86-.06 4.28-3.53 7.77-7.89 7.72-4.21-.05-7.72-3.5-7.66-7.8zM75.106 49.08c0 .1.02.22.02.33 0 1.15-.02 2.31.01 3.46.02.47-.28.67-.57.87-.31.22-.66.39-1.01.55-.31.15-.64.26-.97.38-.43.15-.87.3-1.3.43-.22.07-.44.11-.66.15-.33.06-.66.12-1 .18-.51.09-1.01.2-1.53.27-.34.05-.68 0-1.02.05-1.23.18-2.46.15-3.69.11-.65-.02-1.3-.07-1.95-.15-.47-.05-.93-.17-1.39-.25-.35-.06-.7-.11-1.05-.18-.34-.08-.67-.18-1.01-.28-.39-.11-.78-.21-1.17-.33-.31-.1-.61-.21-.9-.35-.36-.17-.72-.37-1.07-.57-.35-.2-.58-.46-.57-.92.03-1.09.01-2.18 0-3.26 0-.54.13-.49.56-.34.26.09.51.18.77.26.21.06.41.12.62.17.4.1.81.21 1.22.28.62.12 1.24.24 1.87.32.88.11 1.76.19 2.64.28 1.37.15 2.75.18 4.13.13.81-.03 1.61-.09 2.42-.17.73-.07 1.45-.16 2.18-.28.77-.13 1.53-.28 2.29-.48.71-.19 1.39-.45 2.11-.68l.02.02zM75.126 56.45v.36c0 1.24-.03 2.47.02 3.71.02.49-.19.8-.55 1.01-.51.29-1.05.55-1.59.77-.53.22-1.07.4-1.62.57-.31.1-.64.13-.96.2-.38.08-.75.19-1.13.26-.37.07-.74.12-1.11.17-1.56.21-3.12.21-4.68.16-.86-.03-1.71-.16-2.56-.26a22.7 22.7 0 01-1.41-.19c-.35-.06-.69-.18-1.04-.27-.24-.06-.48-.1-.71-.18-.37-.13-.8-.14-1.05-.52-.19-.29-.4-.58-.6-.87-.44-.68-1.04-1.22-1.62-1.78a.7.7 0 01-.2-.39c-.02-.81 0-1.62 0-2.43 0-.23.16-.32.36-.22.25.13.49.28.75.39.32.13.66.23.99.33.48.15.96.3 1.44.43.22.06.44.1.66.14.37.07.74.12 1.1.19l1.61.27c.05 0 .09.02.14.02 1.71.13 3.41.23 5.13.13.54-.03 1.08-.07 1.62-.13.71-.09 1.42-.19 2.13-.32.54-.1 1.07-.27 1.6-.41.43-.11.86-.19 1.28-.34.55-.19 1.09-.43 1.64-.65.11-.04.21-.08.38-.15h-.02zM57.836 70.49c.38-1.57.58-3.1.22-4.74.36.04.66.08.95.12.07 0 .14.05.21.05.71.07 1.43.1 2.13.2 1.92.26 3.84.11 5.76.11.66 0 1.31-.09 1.97-.17.67-.08 1.34-.17 2-.29.62-.11 1.23-.27 1.85-.42.43-.1.86-.21 1.28-.33.18-.05.34-.14.51-.21.12-.05.23-.08.39-.14 0 .14.02.24.02.34 0 1.12-.02 2.23.01 3.35.01.44-.15.73-.48.92-.4.24-.82.44-1.25.64-.45.21-.91.4-1.38.57-.25.09-.52.12-.79.19-.3.07-.59.16-.89.23-.29.07-.58.14-.88.2-.33.06-.66.12-1 .16-2 .22-4 .23-6 .14-.48-.02-.97-.07-1.45-.14-.59-.09-1.18-.2-1.77-.32-.41-.08-.81-.19-1.21-.3-.09-.03-.17-.12-.22-.16h.02z"/><path d="M28.096 33.76c.21.05.52.11.83.19.39.1.59.42.67.75.21.92-.3 1.63-1.28 1.7-.59.04-1.19.08-1.77.18-.41.07-.81.24-1.2.39-.43.15-.85.31-1.27.5-.44.2-.87.42-1.29.66-.36.21-.7.45-1.04.68-.31.21-.63.41-.92.64-.53.44-1.06.87-1.56 1.35-.58.56-1.14 1.15-1.69 1.75-.4.43-.79.88-1.14 1.35-.4.55-.77 1.13-1.13 1.71-.25.39-.5.78-.72 1.19-.19.35-.34.71-.5 1.08-.18.42-.36.84-.52 1.27-.1.25-.17.51-.25.77-.06.21-.11.42-.17.62-.08.32-.17.65-.25.97 0 .03-.01.05-.01.08-.06.59-.13 1.18-.16 1.78-.04.69-.5 1.14-1.2 1.19-.57.04-.95-.23-1.22-.67-.13-.21-.17-.51-.16-.76.02-.61.06-1.23.15-1.84.09-.57.26-1.13.41-1.69.15-.55.29-1.11.5-1.65.25-.64.56-1.26.85-1.89.21-.45.42-.9.66-1.33.18-.32.39-.63.6-.93.35-.51.7-1.01 1.06-1.51.94-1.3 2.05-2.45 3.21-3.55.54-.51 1.12-.97 1.72-1.41a33.7 33.7 0 011.95-1.35c.4-.26.85-.44 1.28-.66.37-.19.75-.38 1.13-.54.33-.14.66-.26 1-.36.49-.15.99-.29 1.48-.43.03 0 .05-.01.08-.02.58-.07 1.16-.13 1.87-.21z"/><path fill-rule="evenodd" d="M45.486 77.7c.35.08.66.15.89.19l-.01-.02c.43.06.92.1 1.46.1.42 0 .8-.02 1.15-.06l.113-.014c.129-.017.28-.035.447-.066a8.902 8.902 0 00.94-.188c.21-.055.58-.15.99-.302.583-.206.998-.445 1.38-.665l.13-.075c.45-.26.89-.54 1.28-.87.89-.75 1.72-1.56 2.31-2.58.06-.1.17-.27.39-.17.25.12.53.2.81.27.195.045.394.082.59.12.108.019.215.039.32.06.27.05.543.097.815.145.273.047.545.095.815.145.05.01.09.01.14.01.18.027.357.058.535.09.418.073.834.146 1.255.16l.47.015c2.114.068 4.226.135 6.32-.265.274-.054.547-.098.82-.141a18.546 18.546 0 002.78-.639c.467-.142.934-.318 1.4-.494l.28-.106c.78-.3 1.5-.7 2.14-1.23.8-.66 1.3-1.44 1.28-2.54a279.527 279.527 0 01-.015-5.364c.003-.766.005-1.531.005-2.296 0-1.634 0-3.266-.002-4.898-.002-3.264-.004-6.526.002-9.792.01-.78-.3-1.41-.86-1.93-.42-.4-.9-.72-1.45-.93-.195-.075-.386-.165-.577-.254a7.312 7.312 0 00-.723-.306c-.333-.121-.683-.202-1.03-.282l-.33-.078-.51-.123c-.434-.107-.872-.215-1.31-.287-.724-.127-1.459-.207-2.184-.285l-.046-.005c-.63-.07-1.26-.13-1.89-.16-2.01-.08-6.01.16-6.01.16s-.18.02-.38.02c-.16 0-.23-.01-.28-.05a.328.328 0 01-.06-.08s-.61-1.02-.93-1.52l-.197-.305c-.343-.53-.687-1.061-1.073-1.565a11.175 11.175 0 00-.757-.876c-.18-.195-.362-.39-.533-.594-.94-1.13-2.04-2.1-3.2-3a12.451 12.451 0 00-.895-.627c-.152-.1-.305-.2-.455-.303-.219-.154-.436-.313-.654-.473a30.048 30.048 0 00-2.06-1.402c-.368-.235-.736-.47-1.096-.715-.363-.24-.724-.494-1.085-.747-.284-.2-.568-.4-.855-.593a45.097 45.097 0 00-.979-.657c-.238-.157-.475-.313-.71-.473-.32-.215-.634-.437-.949-.658a49.43 49.43 0 00-1.162-.802 6.352 6.352 0 00-.795-.426 28.318 28.318 0 01-.458-.22 10.03 10.03 0 00-.927-.414c-.4-.14-.83-.25-1.25-.34a23.137 23.137 0 01-.327-.07c-.434-.094-.873-.19-1.313-.19-2.98-.02-5.97-.02-8.95 0-.24 0-.48-.008-.72-.017-.702-.025-1.406-.05-2.1.137-.262.066-.532.098-.797.13l-.173.02c-.641.082-1.232.308-1.834.537l-.166.063c-.77.29-1.46.71-2.14 1.15-.435.283-.859.595-1.28.904-.13.096-.26.192-.39.286-.56.4-1.12.81-1.68 1.22-.275.205-.552.407-.83.61-.277.203-.555.405-.83.61-.56.4-1.12.81-1.68 1.22l-.394.286c-.425.308-.856.621-1.276.934-.51.38-1.02.76-1.51 1.17-.143.12-.288.24-.433.359-.592.487-1.187.977-1.717 1.531-.96 1.02-1.9 2.06-2.69 3.23l-.09.131c-.55.807-1.103 1.617-1.54 2.499-.104.218-.224.428-.344.636-.133.232-.265.462-.376.704-.29.65-.56 1.31-.8 1.98a50.975 50.975 0 00-.596 1.826c-.058.185-.115.37-.174.554a4.132 4.132 0 00-.122.463l-.038.167-.057.217a11.35 11.35 0 00-.223.933c-.08.43-.14.85-.19 1.28-.026.214-.058.428-.089.64-.073.504-.147 1.004-.16 1.51-.05 1.67-.06 3.35.26 5 .053.263.086.53.118.795.022.18.043.358.071.535.04.28.1.55.17.82.048.198.107.396.166.594.04.132.078.264.114.396.037.127.07.255.104.382.066.256.133.511.226.758.184.494.39.988.592 1.476l.118.284.092.224c.178.435.355.868.568 1.286.33.66.67 1.31 1.06 1.93.6.95 1.22 1.89 1.93 2.76.69.85 1.43 1.63 2.28 2.31.56.44 1.14.86 1.8 1.14.235.1.473.19.711.278.167.063.334.126.5.192.47.19.95.28 1.46.28l.71.012c.473.01.946.018 1.42.018h23.85c.25 0 .44.06.61.25l.064.076c.209.246.42.496.665.704.46.39.93.77 1.42 1.11.25.18.66.44 1.24.73a9.315 9.315 0 002.14.77zm11.882-35.466l.018.046-.01.01a88.922 88.922 0 00-.73.172c-.197.047-.328.078-.35.078-.98.22-1.86.62-1.86.62-.41.18-1.61.73-2.26 1.66a6.058 6.058 0 01-.027.042c-.097.149-.264.404-.373.758-.1.3-.12.55-.14.83-.024.416-.009.752-.002.894l.002.066c.06.78.06 3.9.06 10.139v.371l-.147-.038c-.211-.054-.407-.105-.603-.162-.104-.03-.207-.068-.31-.106a2.542 2.542 0 00-.53-.154c-.65-.1-1.3-.18-1.96-.2-.62-.02-1.25-.01-1.86.07-.345.046-.68.146-1.017.247-.18.054-.361.108-.543.153-.65.15-1.24.44-1.82.75-1.06.57-2 1.29-2.78 2.21-.41.49-.81.99-1.15 1.52-.28.42-.48.9-.67 1.37-.21.51-.4 1.04-.56 1.58-.11.36-.18.73-.19 1.1-.03.89-.04 1.78 0 2.67.015.36.088.72.162 1.08.031.15.062.3.088.45.06.32.13.65.21 1l-.088.008a2.108 2.108 0 01-.192.012c-1.944 0-3.887 0-5.83-.002-1.448.253-1.417 2.407.094 2.577H19c1.558-.156 1.563-2.419.016-2.589l-5.251-.006h-.049c-.39 0-.81-.04-1.18-.18-.451-.173-.885-.43-1.309-.68l-.05-.03c-1.04-.61-1.86-1.46-2.57-2.42-.14-.188-.285-.374-.43-.56a17.438 17.438 0 01-.89-1.22c-.367-.58-.685-1.2-.998-1.811l-.113-.219c-.28-.54-.53-1.09-.77-1.64-.22-.52-.42-1.05-.61-1.59-.17-.49-.32-.98-.45-1.47-.13-.48-.24-.97-.32-1.47-.055-.314-.098-.63-.14-.948-.05-.368-.1-.736-.17-1.102-.16-.84-.14-1.673-.121-2.51.005-.21.01-.42.011-.63.01-.659.088-1.308.166-1.967l.004-.033c.06-.56.16-1.12.28-1.67.068-.308.155-.613.242-.918a25.167 25.167 0 00.238-.882c.036-.15.073-.302.12-.45.11-.35.23-.7.36-1.04.18-.44.36-.88.55-1.31.21-.48.42-.96.66-1.42a17.202 17.202 0 011.053-1.771c.438-.651.877-1.303 1.377-1.909.66-.8 1.36-1.58 2.11-2.3.574-.556 1.203-1.05 1.831-1.544l.25-.196a62.843 62.843 0 011.696-1.286l.383-.284c.55-.41 1.1-.81 1.65-1.21l1.68-1.23c.23-.168.463-.335.697-.504a177.877 177.877 0 001.61-1.174 24.27 24.27 0 011.098-.784c.618-.406 1.23-.808 1.925-1.088.72-.29 1.46-.46 2.23-.61.698-.135 1.383-.125 2.07-.115.18.002.36.005.54.005 1.92-.007 3.846-.004 5.769-.002l2.881.002c.73 0 1.42.16 2.1.41l.058.02c.412.144.83.29 1.212.49.377.188.728.42 1.08.65l.29.19c.42.27.84.55 1.26.83.225.15.448.305.67.46.223.155.445.31.67.46.34.23.68.457 1.02.685.34.227.68.455 1.02.685.431.295.863.594 1.296.894l.904.626c.72.5 1.45 1 2.19 1.49.86.58 1.66 1.22 2.42 1.92.76.69 1.45 1.44 2.11 2.22.338.397.457.566.6.77.124.175.265.375.58.77.15.18.4.5.64.98.078.154.133.294.172.394zM47.746 75.39c-4.21-.05-7.72-3.5-7.66-7.8-.1-4.25 3.62-7.91 7.97-7.78 4.23.13 7.64 3.65 7.58 7.86-.05 4.29-3.53 7.77-7.89 7.72zm26.8-26.106c.189-.065.378-.13.57-.194l.01.01c.01.1.02.21.02.33 0 .349-.002.696-.005 1.044-.006.807-.013 1.612.015 2.416.02.47-.27.67-.57.87-.32.21-.66.39-1.01.55-.255.124-.525.22-.796.318l-.174.062c-.43.15-.86.3-1.3.43-.22.06-.44.11-.66.15-.22.045-.435.082-.65.119l-.35.061c-.17.03-.34.062-.51.094-.34.065-.68.13-1.02.176-.17.025-.34.025-.51.025-.17 0-.34 0-.51.025-1.23.18-2.46.15-3.69.11-.65-.03-1.3-.08-1.95-.15a9.448 9.448 0 01-.897-.154 16.796 16.796 0 00-.493-.096c-.116-.02-.233-.038-.35-.055a9.663 9.663 0 01-.7-.125c-.2-.047-.397-.105-.595-.162-.137-.04-.275-.081-.415-.118l-.39-.108c-.26-.07-.52-.142-.78-.222-.31-.1-.61-.21-.9-.35-.37-.17-.72-.37-1.07-.57-.35-.19-.58-.45-.57-.91.014-.72.01-1.444.005-2.17-.002-.363-.005-.726-.005-1.09 0-.54.14-.49.56-.34.26.09.52.18.78.26.2.06.41.12.62.17l.121.03a29.19 29.19 0 002.97.57c.5.063 1.007.113 1.515.163.375.037.75.075 1.124.117 1.37.16 2.75.18 4.13.13.81-.03 1.62-.09 2.42-.17.73-.07 1.46-.16 2.18-.28.77-.13 1.54-.28 2.29-.48a20.255 20.255 0 001.54-.486zm.57 7.183a4.196 4.196 0 00-.36.143c-.171.069-.34.14-.51.21-.373.155-.744.31-1.13.44-.294.1-.604.175-.915.25l-.365.09a45.89 45.89 0 00-.437.119c-.385.105-.771.211-1.163.291-.7.13-1.42.23-2.13.32-.54.07-1.08.1-1.62.13-1.71.1-3.42 0-5.13-.13a.315.315 0 01-.07-.01.315.315 0 00-.07-.01l-1.61-.27c-.37-.06-.74-.12-1.1-.19l-.047-.009a6.454 6.454 0 01-.613-.131c-.24-.07-.48-.142-.72-.215-.24-.072-.48-.145-.72-.215l-.076-.023a10.49 10.49 0 01-.914-.307c-.173-.073-.337-.164-.502-.256a10.773 10.773 0 00-.248-.134c-.21-.1-.36-.01-.36.22 0 .27 0 .54-.002.81-.002.54-.004 1.08.002 1.62 0 .13.1.29.2.39l.28.27c.48.466.963.932 1.34 1.51.127.2.263.391.398.582.068.096.136.191.202.288.195.296.499.374.799.45.085.022.17.043.251.07.149.052.305.087.46.121.085.019.169.038.25.059.122.031.242.065.363.099.225.063.449.125.677.171.47.08.94.14 1.41.19l.577.07c.66.084 1.325.167 1.983.19 1.56.05 3.13.05 4.68-.16.37-.05.74-.1 1.11-.17.225-.041.45-.097.674-.152.153-.038.306-.075.456-.108a7.77 7.77 0 01.35-.066c.207-.035.413-.07.61-.134.55-.17 1.09-.35 1.62-.57.54-.23 1.08-.48 1.59-.77.37-.21.57-.51.55-1.01-.03-.922-.026-1.85-.022-2.78l.002-.93v-.353zM57.901 70.556c-.023-.022-.044-.043-.065-.056h.02c.38-1.57.58-3.11.22-4.74.192.027.367.048.533.067.145.018.282.034.417.053.03.004.06.014.09.024.04.013.08.026.12.026.259.025.517.046.775.066.452.035.904.07 1.355.134 1.413.184 2.826.157 4.239.13.507-.01 1.014-.02 1.521-.02.602 0 1.203-.075 1.797-.148l.173-.022c.67-.07 1.34-.17 2-.29.62-.12 1.24-.27 1.85-.42.43-.1.85-.21 1.28-.33.114-.033.227-.084.34-.136a5.35 5.35 0 01.17-.074c.11-.05.23-.09.39-.14.02.15.02.24.02.34 0 .336-.002.673-.005 1.009-.006.783-.013 1.564.015 2.341.02.43-.14.72-.48.92-.367.22-.76.407-1.148.592l-.102.048c-.45.21-.91.4-1.38.57-.155.054-.313.086-.471.118-.107.022-.214.044-.319.072-.15.035-.297.075-.445.115a27.84 27.84 0 01-1.325.315c-.33.06-.67.12-1 .16-1.99.22-4 .23-6 .14-.49-.02-.97-.07-1.45-.14-.59-.09-1.18-.2-1.77-.32-.41-.08-.81-.19-1.21-.3-.06-.013-.11-.062-.155-.104zm7.332-26.398l.083.002c.225.012.45.013.71.015a22.698 22.698 0 012.429.123l.031.002.343.037c.318.033.642.067 1.047.133.78.12 1.37.26 1.79.36.42.1.67.16 1.02.27.707.224.865.296 1.081.394.093.043.197.09.36.156.147.059.287.132.426.204.098.05.195.1.293.146.18.09.14.22.03.27-.48.23-.96.46-1.45.65-.65.25-.73.28-1.27.41-.123.038-.282.067-.58.121l-.05.009c-.118.02-.239.042-.364.065-.297.053-.622.112-1.016.175-.401.067-.748.112-1.146.163l-.434.057-.23.027c-.06.008-.1.013-.11.013-.55.07-2.29.24-4.85.15-.77-.02-1.41-.05-2.22-.15a43.867 43.867 0 00-.306-.044c-.188-.027-.44-.062-.804-.116-.676-.094-.944-.14-1.091-.164l-.099-.016c-.51-.09-.89-.17-1.16-.23l-.041-.01c-.174-.04-.637-.145-1.259-.31 0 0-.71-.23-1.65-.72l-.021-.014c-.065-.041-.169-.108-.169-.206 0-.11.13-.19.2-.23.67-.39 1.45-.62 1.45-.62.29-.09.49-.14.57-.16.31-.08.57-.14.87-.2.88-.18 1.61-.29 1.61-.29 1.06-.16 1.88-.24 2.93-.33 0 0 .99-.09 2.35-.15h.31c.165 0 .302.005.387.008z" clip-rule="evenodd"/></symbol><symbol id="technic" viewBox="0 0 92 92"><path d="M92 46c0 25.405-20.595 46-46 46S0 71.405 0 46 20.595 0 46 0s46 20.595 46 46z"/><path d="M79.526 27.966a.915.915 0 00.37-1.257 39 39 0 105.074 20.816.915.915 0 00-.906-.946.95.95 0 00-.957.917 37.137 37.137 0 11-4.853-19.904.95.95 0 001.272.374z"/><path d="M43.867 72.997l-2.55-.211c-4.951-.413-9.727-1.482-14.29-3.52-2.543-1.138-3.883-2.986-4.003-5.719-.051-1.159-.026-2.339.128-3.486.365-2.711 1.916-4.664 4.174-6.103 2.241-1.43 4.748-2.185 7.293-2.832 1.092-.279 2.199-.503 3.293-.776.214-.054.444-.177.592-.337a6.222 6.222 0 001.477-2.762c.047-.19-.052-.508-.2-.637-2.138-1.895-3.64-4.194-4.504-6.917-.056-.172-.23-.384-.391-.433-.868-.261-1.448-.84-1.82-1.623-.718-1.514-.812-3.074-.269-4.671.078-.225.094-.498.053-.732-.518-3-.401-5.928 1.084-8.662 1.771-3.264 4.647-5.084 8.147-6.018.942-.25 1.918-.376 2.879-.558h2.843c1.12.223 2.264.367 3.356.687 3.304.965 6 2.778 7.688 5.871 1.258 2.307 1.525 4.796 1.256 7.367-.053.506-.175 1.005-.23 1.511-.021.204.027.429.093.629.533 1.645.4 3.233-.401 4.758-.37.703-.926 1.2-1.711 1.436a.663.663 0 00-.384.377c-.857 2.769-2.384 5.093-4.555 7.008-.127.111-.21.387-.172.552a6.247 6.247 0 001.46 2.772c.13.144.367.23.568.27 3.443.697 6.733 1.836 9.91 3.324 3.06 1.434 4.626 3.9 4.985 7.174.124 1.133.082 2.29.044 3.435-.057 1.675-.971 2.907-2.215 3.914-1.92 1.558-4.193 2.392-6.535 3.048-3.824 1.072-7.74 1.55-11.695 1.764-.307.015-.61.068-.916.103h-4.484l.002-.003zM34.443 31.18c.427-.03.772-.097 1.11-.068.342.03.473-.085.574-.4.28-.864.59-1.72.91-2.572.278-.745.604-.875 1.352-.575.303.123.608.245.904.384 2.829 1.312 5.763 1.588 8.798.916.64-.142 1.083.09 1.204.61.118.504-.204.912-.853 1.048-2.093.436-4.201.518-6.295.073-1.273-.272-2.517-.681-3.836-1.046-.287.856-.606 1.78-.904 2.71-.267.834-.68 1.03-1.478.669-.7-.317-1.193-.172-1.465.52-.48 1.236-.41 2.47.235 3.633.123.222.426.455.665.48 1.094.11 1.09.085 1.396 1.135.612 2.108 1.543 4.055 3.078 5.653 2.402 2.5 5.294 3.594 8.722 2.697 2.918-.763 4.883-2.756 6.217-5.371.55-1.078.903-2.258 1.314-3.402.159-.445.396-.788.885-.718.69.1 1.025-.28 1.254-.81.433-1.01.48-2.057.124-3.095-.291-.85-.862-1.06-1.671-.684-.645.3-1.1.105-1.314-.557-.213-.658-.423-1.316-.65-1.969-.444-1.273-1.318-2.094-2.622-2.461a8.75 8.75 0 00-.638-.15c-1.81-.368-3.62-.338-5.432-.017-.716.127-1.143-.09-1.258-.617-.111-.513.221-.91.923-1.038.571-.105 1.15-.195 1.73-.24 2.627-.208 5.172.093 7.508 1.404.344.192.648.586.808.955.354.815.598 1.678.91 2.513.05.132.214.291.344.31.426.059.859.059 1.352.083.042-.354.102-.727.127-1.102.243-3.752-.982-6.885-4.137-9.033-3.839-2.612-8.068-2.969-12.444-1.674-3.048.903-5.442 2.683-6.778 5.663-.882 1.968-1.014 4.03-.672 6.143h.003zm12.824 40.076c.21 0 .388.011.564-.002 1.924-.147 3.854-.239 5.77-.46 3.223-.374 6.403-.99 9.443-2.172 1.45-.563 2.842-1.235 3.945-2.375.612-.633 1.04-1.362 1.05-2.272.01-.93.02-1.86-.006-2.787-.05-1.749-.683-3.26-1.92-4.508-1.192-1.201-2.626-2.047-4.205-2.574-2.292-.764-4.629-1.394-6.944-2.088-.276-.083-.393.015-.553.254-.456.675-.894 1.395-1.483 1.944-1.13 1.053-2.351 2.008-3.55 2.985-.427.348-.9.64-1.4.989l3.39 2.044c.109-.224.198-.402.28-.583.715-1.534 1.423-3.071 2.147-4.6.235-.495.69-.659 1.128-.458.439.202.63.667.408 1.15a538.965 538.965 0 01-2.814 6.034c-.257.541-.748.666-1.284.36-.615-.353-1.216-.732-1.824-1.098-.696-.419-1.393-.836-2.144-1.285V71.26l.002-.004zm-2.535-13.081c-.89-.649-1.742-1.238-2.558-1.874-1.397-1.088-2.776-2.21-3.68-3.77-.251-.434-.484-.501-.935-.41a35.811 35.811 0 00-9.008 3.092c-1.836.92-3.092 2.347-3.506 4.353-.255 1.234-.23 2.524-.337 3.789-.147 1.722.778 2.85 2.083 3.764 1.266.886 2.676 1.471 4.136 1.94 4.421 1.421 8.986 1.968 13.602 2.185.32.015.64.002.96.002V59.728c-.206.11-.363.188-.513.279-1.14.685-2.275 1.376-3.416 2.056-.688.41-1.149.268-1.49-.463-.887-1.895-1.767-3.793-2.647-5.693-.296-.638-.172-1.139.32-1.351.503-.218.917.004 1.226.666.693 1.484 1.383 2.97 2.075 4.454.082.175.178.344.285.548l3.405-2.052-.002.003zm-3.011-10.228c-.497.895-.928 1.779-1.46 2.595-.586.903-.629.877.051 1.728.079.1.16.2.247.293 1.636 1.765 3.574 3.153 5.586 4.445.115.075.36.072.476-.003 1.95-1.254 3.834-2.594 5.432-4.291.322-.343.593-.737.85-1.133.074-.116.073-.356 0-.476-.623-1.034-1.27-2.055-1.941-3.126-2.995 1.548-6.142 1.553-9.241-.034v.002z"/><path d="M47.267 71.256V59.75c.75.45 1.448.866 2.143 1.285.609.366 1.21.745 1.825 1.098.535.306 1.026.182 1.283-.36a515.877 515.877 0 002.815-6.035c.221-.483.03-.946-.409-1.149-.436-.201-.89-.036-1.127.458-.726 1.528-1.432 3.065-2.147 4.6-.083.179-.172.357-.28.583-1.125-.68-2.226-1.343-3.39-2.045.497-.348.971-.64 1.4-.989 1.198-.975 2.42-1.932 3.55-2.985.589-.548 1.026-1.267 1.482-1.944.16-.237.278-.335.553-.253 2.316.692 4.652 1.324 6.944 2.088 1.58.526 3.013 1.372 4.205 2.574 1.238 1.248 1.87 2.759 1.92 4.507.027.93.016 1.858.006 2.787-.01.91-.437 1.64-1.05 2.272-1.104 1.14-2.496 1.811-3.944 2.376-3.041 1.183-6.22 1.797-9.443 2.171-1.915.222-3.846.314-5.77.461-.177.013-.355.001-.565.001l-.001.005zM44.732 58.175l-3.405 2.052c-.106-.204-.203-.373-.284-.548-.693-1.485-1.383-2.971-2.075-4.454-.31-.66-.724-.884-1.227-.667-.491.213-.615.712-.32 1.352.88 1.899 1.761 3.798 2.648 5.693.34.731.802.872 1.49.463 1.142-.681 2.276-1.373 3.415-2.056.15-.09.308-.168.514-.279v11.518c-.321 0-.642.013-.96-.002-4.615-.217-9.18-.766-13.603-2.184-1.46-.469-2.871-1.055-4.136-1.941-1.305-.915-2.23-2.042-2.082-3.764.108-1.265.083-2.555.337-3.789.414-2.007 1.67-3.433 3.505-4.353a35.811 35.811 0 019.008-3.093c.451-.09.684-.023.935.411.904 1.56 2.284 2.682 3.68 3.77.818.636 1.67 1.225 2.559 1.874l.001-.003zm-12.15 4.028c-.276-.025-.492-.045-.707-.063-.345-.03-.689-.082-1.033-.08-.462.001-.82.173-.882.698-.059.49.16.8.71.93.316.075.647.088.971.132.244.032.487.069.718.1-.035.677-.12 1.297-.072 1.905.02.24.293.578.524.653.232.078.605-.046.82-.208.171-.128.24-.44.284-.682.086-.476.122-.96.185-1.486.573.055 1.093.12 1.617.151.579.034.96-.278.995-.774.033-.464-.283-.814-.832-.896-.532-.078-1.067-.138-1.578-.202.046-.673.146-1.275.097-1.865-.022-.257-.308-.601-.554-.696-.22-.085-.629.04-.811.219-.196.192-.258.548-.314.846-.076.408-.092.826-.14 1.316l.002.002z"/><path d="M32.582 62.203c.048-.49.064-.909.14-1.317.055-.298.118-.653.313-.846.181-.18.59-.303.811-.219.246.095.534.44.554.696.05.59-.05 1.191-.096 1.865.51.064 1.045.124 1.578.203.548.08.864.431.831.895-.035.496-.417.808-.995.775-.523-.031-1.044-.097-1.617-.152-.063.526-.099 1.01-.185 1.486-.044.243-.11.555-.283.682-.216.162-.588.286-.821.209-.23-.076-.505-.413-.523-.653-.049-.608.036-1.228.071-1.905l-.718-.1c-.323-.044-.654-.057-.97-.133-.55-.132-.768-.44-.71-.93.06-.524.419-.696.881-.698.345 0 .689.051 1.033.08l.707.063-.001-.001z"/></symbol></svg>