<svg width="102" height="102" viewBox="0 0 102 102" fill="none" xmlns="http://www.w3.org/2000/svg">
<path d="M51 76C54.4144 76 57.7953 75.3404 60.9498 74.0589C64.1042 72.7774 66.9705 70.8991 69.3848 68.5312C71.7991 66.1633 73.7142 63.3522 75.0209 60.2584C76.3275 57.1646 77 53.8487 77 50.5C77 47.1513 76.3275 43.8354 75.0209 40.7416C73.7142 37.6478 71.7991 34.8367 69.3848 32.4688C66.9705 30.1009 64.1042 28.2226 60.9498 26.9411C57.7953 25.6596 54.4144 25 51 25L51 50.5L51 76Z" fill="#22CBC1"/>
<path opacity="0.2" d="M51 17C41.9826 17 33.3346 20.5295 26.9584 26.8119C20.5821 33.0944 17 41.6152 17 50.5C17 59.3848 20.5821 67.9056 26.9584 74.1881C33.3346 80.4705 41.9826 84 51 84L51 50.5V17Z" fill="#22CBC1"/>
<path fill-rule="evenodd" clip-rule="evenodd" d="M66.7739 97.7978C67.0589 98.6431 67.9764 99.0997 68.8123 98.7882C79.5527 94.785 88.6483 87.2724 94.608 77.4446C100.847 67.1558 103.248 54.9922 101.385 43.1044C99.5221 31.2166 93.5159 20.3704 84.4283 12.4833C75.3408 4.59622 63.7572 0.176367 51.7255 0.00516642C39.6939 -0.166034 27.9892 3.92245 18.6809 11.5478C9.3726 19.1731 3.06025 29.844 0.859906 41.674C-1.34044 53.504 0.712933 65.731 6.65699 76.1932C12.3347 86.1865 21.2128 93.9549 31.8351 98.262C32.6617 98.5972 33.5919 98.1668 33.9007 97.33C34.2096 96.4931 33.7801 95.5669 32.9542 95.2299C27.2946 92.9209 22.1661 89.5619 17.8206 85.3666L20.6586 82.5285C21.2444 81.9428 21.2444 80.993 20.6586 80.4072C20.0728 79.8214 19.1231 79.8214 18.5373 80.4072L15.7285 83.216C13.3418 80.603 11.2374 77.7159 9.46566 74.5974C5.68806 67.9484 3.58814 60.5384 3.27213 52.9999H7.49999C8.32842 52.9999 8.99999 52.3283 8.99999 51.4999C8.99999 50.6715 8.32842 49.9999 7.49999 49.9999H3.24068C3.29472 47.4183 3.55834 44.8315 4.03577 42.2647C5.66879 33.4849 9.71988 25.3867 15.669 18.8491L18.5373 21.7174C19.1231 22.3032 20.0728 22.3032 20.6586 21.7174C21.2444 21.1316 21.2444 20.1819 20.6586 19.5961L17.7571 16.6946C18.7071 15.7741 19.6979 14.8905 20.728 14.0467C28.7539 7.47185 38.6819 3.7043 49 3.27218V7.49991C49 8.32833 49.6715 8.99991 50.5 8.99991C51.3284 8.99991 52 8.32833 52 7.49991V3.24081C63.1546 3.47432 73.8797 7.60547 82.311 14.9229C82.7436 15.2984 83.1687 15.681 83.5862 16.0705L80.0606 19.5961C79.4749 20.1819 79.4749 21.1316 80.0606 21.7174C80.6464 22.3032 81.5962 22.3032 82.182 21.7174L85.7146 18.1848C92.3225 25.175 96.693 34.029 98.1936 43.6045C98.5269 45.7316 98.7145 47.868 98.7591 49.9999H94.5C93.6716 49.9999 93 50.6715 93 51.4999C93 52.3283 93.6716 52.9999 94.5 52.9999H98.7277C98.3924 60.9986 96.0492 68.8383 91.8459 75.7696C89.9773 78.851 87.7797 81.6893 85.3053 84.2427L82.1769 81.1143C81.5911 80.5285 80.6414 80.5285 80.0556 81.1143C79.4698 81.7001 79.4698 82.6499 80.0556 83.2357L83.1507 86.3307C78.6958 90.3846 73.4869 93.5844 67.7798 95.7254C66.9447 96.0388 66.489 96.9524 66.7739 97.7978ZM51.9885 55.2591C53.9265 54.811 55.3712 53.0742 55.3712 51C55.3712 48.9299 53.9322 47.1959 52 46.7436V23.4999C52 22.6715 51.3284 21.9999 50.5 21.9999C49.6716 21.9999 49 22.6715 49 23.4999V47.1118C47.5915 47.8376 46.6283 49.3063 46.6283 51C46.6283 52.6937 47.5915 54.1624 49 54.8882V99.8746C49 100.7 49.669 101.369 50.4943 101.369C51.3195 101.369 51.9885 100.7 51.9885 99.8746V55.2591Z" fill="#26394B"/>
</svg>
