<svg width="103" height="102" viewBox="0 0 103 102" fill="none" xmlns="http://www.w3.org/2000/svg">
<path d="M25.0004 50.4995C25.0004 55.5429 26.5252 60.4731 29.3822 64.6665C32.2391 68.86 36.2997 72.1284 41.0506 74.0584C45.8015 75.9885 51.0292 76.4935 56.0727 75.5095C61.1162 74.5256 65.749 72.097 69.3851 68.5307C73.0213 64.9645 75.4976 60.4208 76.5008 55.4743C77.504 50.5278 76.9891 45.4006 75.0212 40.7411C73.0534 36.0816 69.7209 32.099 65.4452 29.297C61.1695 26.4951 56.1427 24.9995 51.0004 24.9995L51.0004 50.4995L25.0004 50.4995Z" fill="#22CBC1"/>
<path opacity="0.2" d="M51.0004 16.9995C46.5354 16.9995 42.1142 17.866 37.9891 19.5495C33.8641 21.2331 30.1159 23.7007 26.9587 26.8114C23.8015 29.9222 21.2971 33.6152 19.5885 37.6796C17.8798 41.744 17.0004 46.1002 17.0004 50.4995L51.0004 50.4995V16.9995Z" fill="#22CBC1"/>
<path fill-rule="evenodd" clip-rule="evenodd" d="M4.13205 66.5644C3.28548 66.8456 2.82472 67.761 3.13251 68.5983C7.08755 79.3566 14.5594 88.4857 24.3604 94.4893C34.6213 100.775 46.774 103.229 58.67 101.42C70.566 99.6101 81.439 93.6525 89.3667 84.6003C97.2943 75.5481 101.766 63.9844 101.991 51.9536C102.216 39.9229 98.1799 28.2 90.5963 18.8577C83.0127 9.51537 72.3701 3.15535 60.5501 0.902102C48.7301 -1.35115 36.4941 0.647506 26.0054 6.5447C15.9867 12.1776 8.17868 21.0209 3.8241 31.6238C3.48521 32.4489 3.91141 33.381 4.74688 33.6936C5.58234 34.0062 6.51053 33.5809 6.85118 32.7565C9.00834 27.5359 12.0602 22.7729 15.8372 18.6655L18.8267 21.655C19.4124 22.2408 20.3622 22.2408 20.948 21.655C21.5338 21.0692 21.5338 20.1194 20.948 19.5337L17.9362 16.5219C20.8191 13.7572 24.0572 11.3459 27.5885 9.36049C34.1181 5.68928 41.3707 3.63111 48.7513 3.28318L48.7513 7.33945C48.7513 8.16788 49.4229 8.83945 50.2513 8.83945C51.0797 8.83945 51.7513 8.16788 51.7513 7.33945V3.2361C54.4861 3.2791 57.2274 3.5572 59.9452 4.07529C68.7292 5.7498 76.8191 9.84572 83.3344 15.837L80.3449 18.8265C79.7592 19.4123 79.7592 20.3621 80.3449 20.9479C80.9307 21.5336 81.8805 21.5336 82.4663 20.9479L85.478 17.9362C86.3855 18.8825 87.2565 19.8689 88.0883 20.8936C94.6545 28.9826 98.3813 38.9769 98.7408 49.343L93.7549 49.3431C92.9264 49.3431 92.2549 50.0146 92.2549 50.8431C92.2549 51.6715 92.9264 52.343 93.7549 52.3431L98.7507 52.3431C98.4383 63.4499 94.2631 74.1061 86.9365 82.472C86.4614 83.0145 85.9751 83.5451 85.4779 84.0636L82.4663 81.0519C81.8805 80.4662 80.9307 80.4662 80.3449 81.0519C79.7592 81.6377 79.7592 82.5875 80.3449 83.1733L83.3344 86.1627C76.3667 92.5701 67.619 96.7909 58.1842 98.2261C56.044 98.5517 53.895 98.7299 51.7513 98.7637V94.3394C51.7513 93.511 51.0798 92.8394 50.2513 92.8394C49.4229 92.8394 48.7513 93.511 48.7513 94.3394L48.7513 98.7166C40.7665 98.3402 32.9501 95.9627 26.0478 91.7347C23.108 89.9339 20.392 87.833 17.9362 85.4779L20.948 82.4661C21.5338 81.8804 21.5338 80.9306 20.948 80.3448C20.3622 79.759 19.4124 79.759 18.8267 80.3448L15.8372 83.3343C11.6552 78.7864 8.36947 73.4425 6.19984 67.5796C5.89026 66.743 4.97862 66.2833 4.13205 66.5644ZM54.0908 54.0909C52.3837 55.798 49.6159 55.798 47.9087 54.0909C47.3363 53.5184 46.9558 52.8267 46.7672 52.0957L2.06107 52.0957C1.23581 52.0957 0.566797 51.4267 0.566798 50.6015C0.566798 49.7762 1.23581 49.1072 2.06107 49.1072L47.058 49.1072C47.266 48.6739 47.5496 48.2679 47.9087 47.9088C48.2381 47.5794 48.6069 47.3136 49 47.1113L49 24.5C49 23.6716 49.6715 23 50.5 23C51.3284 23 52 23.6716 52 24.5V46.7437C52.7662 46.923 53.4935 47.3114 54.0908 47.9088C55.798 49.6159 55.798 52.3837 54.0908 54.0909Z" fill="#26394B"/>
</svg>
