<svg width="18" height="9" viewBox="0 0 18 9" fill="none" xmlns="http://www.w3.org/2000/svg">
<path d="M8.98588 8.98588C8.686 8.98647 8.39537 8.88203 8.16446 8.69069L0.463656 2.27335C0.20155 2.05549 0.0367216 1.74244 0.005431 1.40306C-0.0258596 1.06367 0.0789508 0.725761 0.296805 0.463655C0.514659 0.20155 0.827711 0.0367216 1.16709 0.00543102C1.50648 -0.0258596 1.84439 0.0789502 2.10649 0.296804L8.98588 6.04674L15.8653 0.50216C15.9966 0.395548 16.1476 0.315932 16.3098 0.267889C16.4719 0.219847 16.642 0.204325 16.8101 0.222216C16.9783 0.240106 17.1413 0.291056 17.2897 0.372137C17.4381 0.453219 17.569 0.562834 17.675 0.69468C17.7925 0.826648 17.8815 0.981468 17.9364 1.14944C17.9914 1.31741 18.011 1.49492 17.9941 1.67083C17.9773 1.84675 17.9243 2.01729 17.8384 2.17176C17.7526 2.32623 17.6358 2.46132 17.4953 2.56854L9.79447 8.76769C9.55692 8.92879 9.27223 9.00561 8.98588 8.98588Z" fill="#26394B"/>
</svg>
