<svg width="78" height="78" viewBox="0 0 78 78" fill="none" xmlns="http://www.w3.org/2000/svg">
<path d="M54.4904 14.9427C58.0604 16.8027 60.4604 19.3027 62.7304 22.6327C65.0004 25.9627 66.4204 29.7927 66.8504 33.8027C67.2804 37.8127 66.7204 41.8627 65.2204 45.5927C63.7104 49.3327 61.3104 52.6427 58.2204 55.2227C55.1304 57.8127 51.4504 59.5927 47.5104 60.4127C43.5704 61.2327 39.4804 61.0727 35.6104 59.9427C31.7404 58.8127 28.2204 56.7427 25.3404 53.9227C22.4604 51.1027 20.3304 47.6127 19.1204 43.7727H29.4904C30.2304 46.1327 30.2204 46.2027 31.9904 47.9327C33.7604 49.6627 35.8304 50.4627 38.2104 51.1627C40.5904 51.8627 43.1504 51.6727 45.5704 51.1627C47.9904 50.6527 50.2504 49.5627 52.1504 47.9727C54.0504 46.3827 55.5204 44.3527 56.4504 42.0527C57.3704 39.7527 57.7204 37.2727 57.4504 34.8127C57.1804 32.3527 56.3104 29.9927 54.9204 27.9527C53.5304 25.9127 50.1804 23.0827 47.9904 21.9327L54.4904 14.9327V14.9427Z" fill="#22CBC1"/>
<path d="M64.7004 75.2428C64.6004 74.8828 64.5404 74.5728 64.4104 74.2828C64.2404 73.8828 64.0604 73.4828 63.8204 73.1128C63.5404 72.6828 63.2404 72.2628 62.8904 71.8928C62.5504 71.5328 62.1504 71.2128 61.7604 70.9228C61.5404 70.7528 61.2604 70.6528 61.0004 70.5328C60.6104 70.3728 60.2304 70.1928 59.8304 70.0828C59.4304 69.9728 59.0004 69.9128 58.5804 69.8728C58.2104 69.8428 57.8404 69.8628 57.4804 69.8628C46.9904 69.8628 36.5004 69.8628 26.0204 69.8628C25.4004 69.8628 24.7704 69.9128 24.1804 70.0628C23.5604 70.2128 22.9704 70.4828 22.4004 70.8128C21.7204 71.2028 21.1504 71.6928 20.6504 72.2528C20.2704 72.6828 20.0104 73.2328 19.7404 73.7428C19.5604 74.0828 19.4404 74.4528 19.3104 74.8128C19.2704 74.9328 19.2704 75.0628 19.2404 75.2328H19.6604C29.7104 75.2328 39.7704 75.2328 49.8204 75.2328C50.2404 75.2328 50.6204 75.3028 50.9304 75.5828C51.2904 75.9128 51.5204 76.5328 51.2404 77.1128C50.9404 77.7428 50.4604 77.9228 49.8304 77.9228C39.1904 77.9228 28.5504 77.9228 17.9104 77.9228C17.4104 77.9228 16.9604 77.8128 16.6704 77.3828C16.5404 77.1928 16.4304 76.9528 16.4004 76.7328C16.3604 76.3728 16.3604 75.9928 16.4004 75.6328C16.4604 75.2028 16.5904 74.7828 16.6904 74.3628C16.7004 74.3028 16.6904 74.2328 16.7204 74.1628C16.8104 73.8728 16.9004 73.5728 17.0104 73.2828C17.1204 73.0028 17.2404 72.7228 17.3804 72.4528C17.5504 72.1028 17.7004 71.7228 17.9304 71.4128C18.3504 70.8528 18.7904 70.3028 19.2804 69.8028C19.8004 69.2728 20.3704 68.7928 21.0504 68.4728C21.5104 68.2528 21.9704 68.0128 22.4404 67.8128C22.8704 67.6328 23.3104 67.5028 23.7504 67.3428C23.7504 67.3428 23.7704 67.3428 23.7804 67.3428C24.2104 67.2828 24.6404 67.1728 25.0804 67.1728C26.8204 67.1528 28.5604 67.1728 30.2904 67.1428C30.7804 67.1428 31.2704 67.0528 31.7404 66.8428C31.9704 66.7428 32.2404 66.7328 32.4704 66.6328C32.7504 66.5028 33.0204 66.3328 33.2804 66.1628C33.6104 65.9428 33.9404 65.7228 34.2504 65.4828C34.8104 65.0428 35.2504 64.4928 35.5804 63.8628C35.8004 63.4428 36.0604 63.0228 36.2104 62.5728C36.3604 62.1228 36.3904 61.6428 36.4704 61.1928C27.7904 58.9728 21.7304 53.8128 18.1804 45.6228H17.8804C16.0304 45.6228 14.1804 45.6228 12.3204 45.6228C11.8404 45.6228 11.4504 45.4028 11.2304 45.0428C11.0004 44.6728 10.9004 44.2428 11.1304 43.7628C11.4204 43.1628 11.8504 42.9528 12.4704 42.9528C20.0204 42.9528 27.5704 42.9528 35.1204 42.9528C35.5904 42.9528 35.9704 43.0728 36.2704 43.4628C36.6104 43.8928 36.6504 44.3328 36.4404 44.8228C36.3504 45.0328 36.2504 45.1928 36.0704 45.3328C35.8404 45.5128 35.6004 45.6428 35.3004 45.6328C33.8704 45.6328 32.4504 45.6328 31.0204 45.6328H30.6904L30.6504 45.7028C30.8504 45.9528 31.0404 46.2328 31.2704 46.4528C31.8004 46.9628 32.3404 47.4728 32.9104 47.9328C33.3404 48.2828 33.8304 48.5628 34.3004 48.8528C34.7404 49.1228 35.1904 49.3728 35.6404 49.6128C35.9704 49.7728 36.3204 49.8828 36.6604 50.0228C36.8804 50.1128 37.1004 50.2128 37.3204 50.2928C37.5204 50.3628 37.7204 50.4328 37.9304 50.4928C38.2304 50.5728 38.5404 50.6328 38.8504 50.6928C39.4004 50.8028 39.9604 50.8928 40.5104 51.0028C40.5504 51.0028 40.5804 51.0128 40.6204 51.0128C41.5204 51.0128 42.4204 51.0328 43.3104 51.0128C43.7104 51.0028 44.1104 50.9328 44.5004 50.8428C45.0604 50.7128 45.6204 50.5428 46.1804 50.3928C46.4404 50.3228 46.7104 50.2728 46.9704 50.1828C47.3004 50.0728 47.6204 49.9428 47.9304 49.7928C48.4204 49.5528 48.9304 49.3128 49.3904 49.0228C50.0104 48.6328 50.6204 48.2028 51.2104 47.7628C51.6504 47.4328 52.0504 47.0428 52.4604 46.6728C52.7204 46.4328 52.9704 46.1828 53.2204 45.9428C53.5504 45.6228 54.0104 45.6128 54.4504 45.7828C54.7504 45.9028 54.9504 46.0828 55.1104 46.3328C55.1904 46.4528 55.2304 46.5928 55.2604 46.7328C55.3504 47.2028 55.2804 47.6428 54.9104 47.9828C54.2104 48.6528 53.5304 49.3228 52.8104 49.9728C52.4504 50.2928 52.0504 50.5928 51.6404 50.8428C51.0004 51.2228 50.3304 51.5628 49.6604 51.9128C49.2404 52.1328 48.8104 52.3528 48.3704 52.5328C47.9704 52.6928 47.5604 52.8028 47.1504 52.9228C46.6504 53.0728 46.1504 53.2328 45.6404 53.3628C45.3104 53.4528 44.9604 53.5128 44.6204 53.5528C43.2904 53.7328 41.9504 53.8128 40.6204 53.7128C40.0504 53.6728 39.5004 53.5328 38.9304 53.4428C38.5204 53.3728 38.1204 53.3228 37.7204 53.2228C37.4304 53.1528 37.1504 53.0328 36.8604 52.9428C36.6604 52.8828 36.4604 52.8228 36.2604 52.7628C35.8904 52.6428 35.5004 52.5428 35.1504 52.3828C34.7404 52.2028 34.3504 51.9828 33.9604 51.7828C33.5904 51.5928 33.2204 51.4128 32.8604 51.2028C32.5804 51.0528 32.3204 50.8728 32.0604 50.6928C31.7104 50.4428 31.3504 50.1828 31.0304 49.8928C30.3404 49.2728 29.6504 48.6428 29.0004 47.9728C28.5504 47.5128 28.1604 46.9828 27.7604 46.4728C27.5904 46.2528 27.4704 46.0028 27.3104 45.7828C27.2604 45.7128 27.1504 45.6728 27.0604 45.6728C26.5704 45.6628 26.0804 45.6728 25.5904 45.6728C24.2304 45.6728 22.8704 45.6728 21.5104 45.6728C21.3804 45.6728 21.2604 45.6928 21.1304 45.7028C21.2404 45.9428 21.3404 46.1628 21.4404 46.3628C21.5804 46.6428 21.7304 46.9128 21.8804 47.1828C22.0104 47.4228 22.1504 47.6628 22.2904 47.9028C22.4004 48.1028 22.5104 48.3128 22.6404 48.5028C22.9704 48.9828 23.2804 49.4728 23.6404 49.9228C24.2604 50.7028 24.8804 51.4828 25.5604 52.2028C26.1804 52.8528 26.8504 53.4528 27.5504 54.0328C28.0904 54.4828 28.6804 54.8628 29.2604 55.2528C29.8204 55.6128 30.4004 55.9428 30.9704 56.2828C31.3404 56.5028 31.7004 56.7328 32.0804 56.9228C32.3804 57.0728 32.7204 57.1628 33.0304 57.2928C33.3904 57.4428 33.7404 57.6128 34.1004 57.7528C34.3304 57.8428 34.5804 57.8928 34.8104 57.9728C35.0704 58.0528 35.3304 58.1528 35.5904 58.2328C35.8204 58.3028 36.0504 58.3828 36.2904 58.4328C36.6404 58.5128 37.0004 58.5728 37.3604 58.6428C37.8004 58.7328 38.2404 58.8228 38.6704 58.9128C38.7104 58.9128 38.7404 58.9228 38.7804 58.9328C40.3904 59.1228 42.0004 59.2028 43.6104 59.0928C44.4404 59.0328 45.2704 58.9128 46.0904 58.7728C46.6904 58.6728 47.2804 58.4728 47.8704 58.3228C48.1504 58.2528 48.4304 58.2028 48.7104 58.1228C48.9504 58.0528 49.1904 57.9328 49.4204 57.8428C49.6104 57.7728 49.8004 57.7128 49.9904 57.6428C50.4804 57.4628 50.9804 57.3028 51.4604 57.0928C51.9304 56.8928 52.4004 56.6828 52.8304 56.4128C53.9004 55.7428 54.9904 55.1028 55.9904 54.3128C57.0104 53.5028 58.0004 52.6528 58.8604 51.6828C59.4904 50.9728 60.0504 50.1928 60.6304 49.4228C60.9804 48.9628 61.3104 48.4828 61.6104 47.9928C61.8204 47.6528 61.9704 47.2628 62.1604 46.9128C62.3604 46.5328 62.6004 46.1628 62.7804 45.7728C62.9304 45.4528 63.0304 45.1128 63.1604 44.7828C63.3104 44.4028 63.4704 44.0228 63.6104 43.6428C63.6804 43.4728 63.7304 43.2928 63.7804 43.1128C63.8504 42.8528 63.9204 42.5928 63.9904 42.3328C64.0904 41.9728 64.1904 41.6228 64.2704 41.2628C64.3404 40.9728 64.4004 40.6828 64.4504 40.3828C64.5304 39.8928 64.5904 39.3928 64.6504 38.9028C64.8204 37.6128 64.8604 36.3128 64.7904 35.0028C64.7604 34.3728 64.7004 33.7428 64.6104 33.1228C64.5304 32.5328 64.4104 31.9428 64.2804 31.3628C64.1404 30.7328 63.9804 30.1028 63.7804 29.4828C63.6004 28.9228 63.3704 28.3828 63.1704 27.8428C63.0404 27.5028 62.9304 27.1528 62.7904 26.8228C62.6604 26.5328 62.4904 26.2728 62.3404 25.9928C62.2704 25.8628 62.2104 25.7328 62.1404 25.5928C62.0204 25.3428 61.9004 25.0828 61.7604 24.8328C61.6104 24.5728 61.4504 24.3128 61.2804 24.0728C60.6704 23.2228 60.0904 22.3428 59.4204 21.5328C58.6304 20.5728 57.7804 19.6628 56.7904 18.9128C56.1804 18.4528 55.6104 17.9428 55.0004 17.4728C54.7404 17.2728 54.4504 17.1028 54.1604 16.9328C54.0004 16.8328 53.8504 16.8428 53.7104 16.9928C52.6404 18.0828 51.5704 19.1628 50.4904 20.2328C50.3404 20.3828 50.1704 20.5328 49.9704 20.7128C50.2604 20.8628 50.5204 20.9928 50.7704 21.1328C50.9604 21.2428 51.1504 21.3528 51.3304 21.4728C51.6304 21.6828 51.9304 21.8928 52.2104 22.1228C52.7804 22.5828 53.3804 23.0228 53.9104 23.5228C54.5204 24.1028 55.0904 24.7228 55.6404 25.3628C56.0004 25.7928 56.2904 26.2928 56.6004 26.7728C56.9304 27.2928 57.2704 27.8128 57.5604 28.3528C57.7804 28.7528 57.9304 29.1928 58.1104 29.6228C58.2704 30.0028 58.4204 30.3828 58.5704 30.7628C58.6404 30.9428 58.7004 31.1328 58.7404 31.3128C58.8204 31.6228 58.8804 31.9328 58.9504 32.2328C59.0404 32.6028 59.1204 32.9728 59.2104 33.3428C59.2104 33.3828 59.2304 33.4128 59.2404 33.4528C59.4404 34.8628 59.5104 36.2928 59.4004 37.7128C59.3404 38.4428 59.2504 39.1728 59.0704 39.8728C58.9604 40.3028 58.9504 40.7828 58.6104 41.1628C58.2804 41.5328 57.6104 41.8028 57.1704 41.6028C56.8504 41.4528 56.5304 41.2728 56.3704 40.8728C56.2004 40.4528 56.1704 40.0828 56.3704 39.6928C56.3704 39.6728 56.3704 39.6528 56.3804 39.6328C56.4404 39.3428 56.5104 39.0528 56.5504 38.7628C56.7604 37.5028 56.7804 36.2328 56.7104 34.9628C56.6804 34.4528 56.5304 33.9428 56.4304 33.4428C56.4304 33.3928 56.4304 33.3528 56.4104 33.3028C56.3004 32.8828 56.1904 32.4528 56.0804 32.0328C56.0104 31.7728 55.9704 31.5128 55.8804 31.2628C55.7704 30.9428 55.6504 30.6328 55.5004 30.3328C55.2604 29.8328 55.0104 29.3428 54.7404 28.8628C54.5204 28.4628 54.2904 28.0628 54.0204 27.6928C53.7104 27.2628 53.3704 26.8528 53.0304 26.4528C52.5104 25.8328 51.9404 25.2628 51.2804 24.7828C50.7904 24.4228 50.3104 24.0328 49.8004 23.7028C49.3604 23.4228 48.8804 23.2028 48.4204 22.9528C48.3704 22.9228 48.3304 22.8828 48.2804 22.8628C48.1004 22.7828 47.9504 22.7228 47.7604 22.9128C46.9604 23.7228 46.1404 24.5128 45.3404 25.3128C45.2904 25.3628 45.3104 25.5728 45.3704 25.6428C45.6504 25.9628 45.9304 26.2628 45.9504 26.7328C45.9804 27.2628 45.7104 27.6328 45.3704 27.9828C44.6104 28.7528 43.8404 29.5328 43.0704 30.2928C42.3604 30.9928 41.6404 31.6728 40.9404 32.3828C40.1404 33.1828 39.3504 33.9828 38.5504 34.7828C38.1604 35.1728 37.7704 35.5628 37.3604 35.9428C36.9804 36.2928 36.4804 36.3028 36.0004 36.1028C35.4204 35.8628 35.1204 35.3528 34.6904 34.9628C34.2204 34.5328 33.7904 34.0528 33.3304 33.6128C33.2804 33.5628 33.0704 33.5728 33.0104 33.6328C32.2604 34.3728 31.5404 35.1328 30.7804 35.8628C30.4104 36.2228 29.9204 36.3628 29.4404 36.2228C28.7404 36.0128 28.1704 35.2628 28.6004 34.3428C28.8504 33.8028 29.3404 33.4828 29.7304 33.0628C30.1704 32.5928 30.6604 32.1528 31.1104 31.6828C31.3004 31.4828 31.0704 31.3228 30.9604 31.2128C30.4204 30.6628 29.8704 30.1228 29.3204 29.5828C29.1904 29.4528 29.0804 29.4628 28.9504 29.6028C28.2204 30.3528 27.5004 31.1128 26.7404 31.8328C26.3804 32.1728 25.9104 32.3228 25.4204 32.1828C25.0604 32.0828 24.7104 31.8728 24.5704 31.4728C24.5204 31.3328 24.4504 31.1828 24.4204 31.0428C24.3304 30.5028 24.6004 30.1028 24.9604 29.7428C25.6604 29.0528 26.3604 28.3628 27.0504 27.6628C27.1104 27.6028 27.1104 27.3928 27.0504 27.3328C26.3204 26.5828 25.5404 25.8728 24.8304 25.1028C24.2704 24.5028 24.2304 23.7828 24.8604 23.1328C25.4504 22.5228 26.0304 21.9128 26.6304 21.3228C27.4904 20.4628 28.3704 19.6228 29.2304 18.7628C29.9404 18.0528 30.6304 17.3228 31.3404 16.6228C31.8904 16.0828 32.4404 15.5328 33.0204 15.0328C33.6404 14.5028 34.3004 14.6228 34.8304 15.1528C36.4004 16.6828 37.9404 18.2328 39.4904 19.7828C40.2604 20.5528 41.0004 21.3328 41.7704 22.1028C42.2004 22.5428 42.6504 22.9528 43.0904 23.3928C43.2204 23.5228 43.3204 23.5128 43.4404 23.3928C44.0604 22.7628 44.6704 22.1228 45.2904 21.5028C46.0504 20.7428 46.8304 20.0128 47.5904 19.2528C48.5104 18.3328 49.4104 17.3828 50.3404 16.4628C51.1004 15.7028 51.8704 14.9628 52.6304 14.2128C52.8604 13.9828 53.1004 13.7728 53.3104 13.5328C53.3604 13.4728 53.3604 13.2828 53.3104 13.2228C52.6204 12.5228 51.9004 11.8528 51.2104 11.1628C50.0104 9.96278 48.8404 8.73278 47.6404 7.53278C47.3104 7.20278 47.3104 7.22278 46.9804 7.55278C46.2104 8.31278 45.4604 9.07278 44.7004 9.84278C44.1104 10.4428 43.5204 11.0428 42.9304 11.6328C42.4204 12.1428 41.9404 12.6828 41.3804 13.1328C40.7704 13.6228 39.7504 13.4428 39.3804 12.6628C39.0504 11.9428 39.3004 11.3828 39.8204 10.8728C40.4204 10.2928 41.0004 9.70278 41.5904 9.12278C42.1204 8.59278 42.6504 8.06278 43.1804 7.52278C43.7204 6.98278 44.2504 6.45278 44.7904 5.91278C45.3404 5.36278 45.8804 4.80278 46.4604 4.29278C47.1004 3.73278 47.7204 3.92278 48.2904 4.38278C48.3504 4.43278 48.4104 4.49278 48.4604 4.56278C48.5804 4.70278 48.7004 4.69278 48.8304 4.56278C49.7604 3.63278 50.7004 2.71278 51.6404 1.79278C51.9904 1.45278 52.3304 1.08278 52.7304 0.822778C53.1204 0.572778 53.5904 0.422778 54.0404 0.272778C54.4204 0.142778 54.8204 0.0127778 55.2204 0.00277778C55.8004 -0.00722222 56.3904 0.00277777 56.9504 0.152778C57.5604 0.312778 58.1504 0.582778 58.6704 0.962778C59.2504 1.39278 59.7404 1.91278 60.0804 2.55278C60.3304 3.00278 60.4904 3.49278 60.6204 3.99278C60.7504 4.45278 60.7304 4.90278 60.7504 5.36278C60.7604 5.85278 60.6404 6.31278 60.4404 6.75278C60.2604 7.16278 60.1304 7.61278 59.8804 7.96278C59.5204 8.46278 59.0704 8.89278 58.6504 9.34278C58.1804 9.83278 57.7004 10.3228 57.2204 10.8028C56.8604 11.1628 56.5004 11.5228 56.1304 11.8728C55.9904 12.0028 56.0004 12.1028 56.1304 12.2328C56.4404 12.5228 56.6904 12.8428 56.7204 13.3028C56.7404 13.6728 56.5304 14.0028 56.1404 14.5628C56.0504 14.6928 55.9604 14.8028 55.9104 14.8628C56.1604 15.0328 56.5004 15.2728 56.8904 15.5628C57.1304 15.7428 57.6404 16.0828 58.0704 16.4628C58.7904 17.0928 59.5004 17.7428 60.1804 18.4128C60.6604 18.8728 61.1204 19.3628 61.5404 19.8728C62.0704 20.5128 62.5704 21.1828 63.0404 21.8628C63.3804 22.3528 63.6704 22.8728 63.9704 23.3928C64.2904 23.9428 64.6104 24.4828 64.8904 25.0428C65.1104 25.4828 65.2804 25.9528 65.4704 26.4028C65.6204 26.7428 65.7804 27.0728 65.9204 27.4228C66.0104 27.6528 66.0504 27.9028 66.1304 28.1328C66.2104 28.3928 66.3204 28.6428 66.4004 28.8928C66.4704 29.1128 66.5504 29.3228 66.6104 29.5428C66.6804 29.8328 66.7404 30.1428 66.8004 30.4328C66.9004 30.8728 67.0104 31.3128 67.1104 31.7528C67.1104 31.7728 67.1104 31.7928 67.1104 31.8128C67.1704 32.3428 67.2304 32.8828 67.3004 33.4128C67.4904 34.8128 67.4904 36.2328 67.4504 37.6428C67.4304 38.3128 67.3504 38.9928 67.2804 39.6628C67.2404 40.0028 67.1804 40.3328 67.1204 40.6728C67.0104 41.2228 66.9004 41.7728 66.7804 42.3128C66.6804 42.7328 66.5704 43.1428 66.4404 43.5628C66.2804 44.0628 66.1304 44.5628 65.9304 45.0528C65.6904 45.6628 65.4304 46.2628 65.1504 46.8528C64.8204 47.5528 64.4804 48.2528 64.1104 48.9328C63.8304 49.4428 63.4804 49.9228 63.1604 50.4128C62.9704 50.6928 62.8004 50.9828 62.6004 51.2628C62.3104 51.6528 62.0304 52.0528 61.7004 52.4128C60.8304 53.3628 59.9604 54.3028 59.0504 55.2128C58.5604 55.7028 58.0104 56.1328 57.4804 56.5628C57.1104 56.8628 56.7204 57.1428 56.3204 57.4028C55.8204 57.7228 55.3104 58.0128 54.7904 58.3128C54.2404 58.6328 53.6804 58.9628 53.1104 59.2528C52.6804 59.4728 52.2304 59.6328 51.7904 59.8228C51.4404 59.9728 51.1004 60.1328 50.7404 60.2728C50.5104 60.3628 50.2704 60.4128 50.0304 60.4828C49.7704 60.5628 49.5104 60.6628 49.2504 60.7528C49.2204 60.7628 49.1804 60.7828 49.1504 60.7928C48.6204 60.9128 48.0904 61.0328 47.5704 61.1628C47.5204 61.1728 47.4404 61.2628 47.4504 61.3028C47.4804 61.6128 47.3804 61.9328 47.5804 62.2228C47.6904 62.3928 47.7004 62.6228 47.7704 62.8228C48.1204 63.9528 48.8304 64.8528 49.7004 65.6228C50.0504 65.9328 50.4904 66.1328 50.9004 66.3828C51.2804 66.6128 51.6704 66.7728 52.1004 66.8928C52.7004 67.0728 53.2904 67.1928 53.9204 67.2028C55.5504 67.2028 57.1904 67.1828 58.8204 67.2328C59.3104 67.2428 59.7904 67.4228 60.2704 67.5228C60.5404 67.5828 60.8104 67.6328 61.0704 67.7228C61.4204 67.8528 61.7604 68.0028 62.1004 68.1628C62.3604 68.2828 62.6204 68.4128 62.8704 68.5528C63.6304 68.9928 64.3204 69.5328 64.9004 70.1928C65.3004 70.6428 65.6704 71.1328 66.0104 71.6228C66.2004 71.8828 66.3204 72.1928 66.4604 72.4828C66.6204 72.8028 66.7804 73.1228 66.9304 73.4528C67.0104 73.6228 67.0604 73.8128 67.1104 73.9928C67.1704 74.2028 67.2504 74.4128 67.2704 74.6228C67.3404 75.3228 67.4104 76.0128 67.4504 76.7128C67.4704 77.2028 67.1204 77.6028 66.6804 77.8228C66.4204 77.9528 66.1604 77.9628 65.8904 77.9628C63.3204 77.9628 60.7504 77.9628 58.1804 77.9628C57.6804 77.9628 57.2804 77.8128 56.9604 77.4328C56.6604 77.0828 56.6404 76.5228 56.8204 76.0828C57.1004 75.4128 57.6104 75.2628 58.2504 75.2628C60.2404 75.2628 62.2404 75.2628 64.2304 75.2628H64.6404L64.7004 75.2428ZM42.6804 26.7928C42.6104 26.7228 42.5604 26.6628 42.5104 26.6128C42.0404 26.1328 41.5704 25.6428 41.1004 25.1628C40.5104 24.5728 39.9204 23.9928 39.3204 23.4028C38.3504 22.4428 37.3804 21.4828 36.4104 20.5228C35.6204 19.7328 34.8404 18.9228 34.0404 18.1328C33.9804 18.0728 33.7604 18.0728 33.7004 18.1328C32.5704 19.2328 31.4504 20.3428 30.3404 21.4528C29.5204 22.2728 28.7204 23.1028 27.9004 23.9228C27.7704 24.0528 27.7704 24.1528 27.9004 24.2928C28.5904 24.9728 29.2904 25.6528 29.9704 26.3428C30.6304 27.0028 31.2904 27.6728 31.9504 28.3428C32.6904 29.0828 33.4404 29.8228 34.1804 30.5728C34.9204 31.3228 35.6504 32.0828 36.4004 32.8228C36.4504 32.8728 36.6604 32.8528 36.7204 32.7828C37.3104 32.2028 37.8704 31.6128 38.4504 31.0228C39.1704 30.3028 39.8904 29.5928 40.6104 28.8828C41.2104 28.2928 41.8204 27.7128 42.4204 27.1128C42.5104 27.0228 42.5704 26.9128 42.6704 26.7828L42.6804 26.7928ZM47.3904 67.1528C47.2004 66.9028 47.0504 66.7128 46.9004 66.5128C46.6004 66.1228 46.2504 65.7628 46.0104 65.3428C45.7204 64.8328 45.5104 64.2628 45.2704 63.7228C45.0204 63.1528 44.8304 62.5628 44.7904 61.9328C44.7804 61.6928 44.6804 61.5828 44.4404 61.6228C44.1104 61.6728 43.7804 61.7628 43.4504 61.7628C42.4604 61.7828 41.4704 61.7628 40.4804 61.7628C40.3804 61.7628 40.2804 61.7328 40.1804 61.7228C39.8804 61.6828 39.5804 61.6428 39.2704 61.6328C39.2204 61.6328 39.1404 61.7328 39.1204 61.8028C39.0404 62.1728 38.9904 62.5528 38.9104 62.9328C38.8604 63.1628 38.8104 63.3928 38.7204 63.6028C38.4704 64.1528 38.2204 64.7128 37.9204 65.2328C37.6504 65.6828 37.3104 66.0928 36.9904 66.5228C36.8404 66.7228 36.6804 66.9228 36.5004 67.1628H47.3904V67.1528ZM58.1004 5.06278C58.1204 4.64278 57.9604 4.27278 57.7904 3.90278C57.4204 3.10278 56.7204 2.76278 55.9404 2.62278C55.1704 2.48278 54.4704 2.77278 53.9104 3.30278C52.8304 4.33278 51.7904 5.40278 50.7504 6.46278C50.7004 6.51278 50.7104 6.72278 50.7704 6.78278C51.0104 7.04278 51.2804 7.28278 51.5304 7.53278C52.3204 8.32278 53.1004 9.12278 53.9004 9.91278C53.9604 9.97278 54.1704 9.96278 54.2304 9.91278C54.5804 9.59278 54.9104 9.23278 55.2504 8.90278C55.9104 8.25278 56.5704 7.60278 57.2304 6.95278C57.7504 6.43278 58.0804 5.82278 58.1004 5.06278Z" fill="#26394B"/>
<path d="M42.6804 26.7928C42.5804 26.9228 42.5204 27.0328 42.4304 27.1228C41.8304 27.7128 41.2204 28.2928 40.6204 28.8928C39.9004 29.6028 39.1804 30.3128 38.4604 31.0328C37.8804 31.6128 37.3104 32.2128 36.7304 32.7928C36.6704 32.8528 36.4604 32.8828 36.4104 32.8328C35.6604 32.0928 34.9304 31.3328 34.1904 30.5828C33.4504 29.8328 32.7004 29.1028 31.9604 28.3528C31.3004 27.6928 30.6404 27.0128 29.9804 26.3528C29.2904 25.6628 28.6004 24.9828 27.9104 24.3028C27.7704 24.1728 27.7804 24.0628 27.9104 23.9328C28.7304 23.1128 29.5304 22.2828 30.3504 21.4628C31.4604 20.3528 32.5804 19.2428 33.7104 18.1428C33.7704 18.0828 33.9904 18.0828 34.0504 18.1428C34.8504 18.9328 35.6304 19.7428 36.4204 20.5328C37.3804 21.5028 38.3604 22.4528 39.3304 23.4128C39.9204 24.0028 40.5204 24.5828 41.1104 25.1728C41.5904 25.6528 42.0504 26.1328 42.5204 26.6228C42.5704 26.6728 42.6204 26.7228 42.6904 26.8028L42.6804 26.7928Z" fill="white"/>
<path d="M47.3904 67.1628H36.5004C36.6804 66.9228 36.8404 66.7228 36.9904 66.5228C37.3004 66.0928 37.6504 65.6928 37.9204 65.2328C38.2304 64.7128 38.4704 64.1528 38.7204 63.6028C38.8104 63.3928 38.8604 63.1628 38.9104 62.9328C38.9904 62.5628 39.0404 62.1828 39.1204 61.8028C39.1304 61.7328 39.2204 61.6328 39.2704 61.6328C39.5704 61.6528 39.8804 61.6928 40.1804 61.7228C40.2804 61.7328 40.3804 61.7628 40.4804 61.7628C41.4704 61.7628 42.4604 61.7728 43.4504 61.7628C43.7804 61.7628 44.1104 61.6728 44.4404 61.6228C44.6804 61.5828 44.7804 61.6928 44.7904 61.9328C44.8304 62.5628 45.0204 63.1528 45.2704 63.7228C45.5104 64.2628 45.7204 64.8328 46.0104 65.3428C46.2504 65.7628 46.6004 66.1228 46.9004 66.5128C47.0504 66.7128 47.2004 66.9028 47.3904 67.1528V67.1628Z" fill="white"/>
<path d="M58.1004 5.06282C58.0804 5.81282 57.7504 6.43282 57.2304 6.95282C56.5704 7.60282 55.9104 8.25282 55.2504 8.90282C54.9104 9.24282 54.5804 9.59282 54.2304 9.91282C54.1704 9.97282 53.9604 9.97282 53.9004 9.91282C53.1004 9.13282 52.3204 8.33282 51.5304 7.53282C51.2804 7.28282 51.0104 7.04282 50.7704 6.78282C50.7104 6.71282 50.7004 6.51282 50.7504 6.46282C51.7904 5.40282 52.8404 4.33282 53.9104 3.30282C54.4604 2.77282 55.1704 2.48282 55.9404 2.62282C56.7204 2.76282 57.4204 3.10282 57.7904 3.90282C57.9604 4.27282 58.1304 4.64282 58.1004 5.06282Z" fill="white"/>
</svg>
