<svg width="78" height="78" viewBox="0 0 78 78" fill="none" xmlns="http://www.w3.org/2000/svg">
<g clip-path="url(#clip0_281_1660)">
<path d="M66.93 45.75C66.85 45.68 66.78 45.63 66.71 45.58C66.39 45.32 66.09 45.04 65.75 44.82C65.26 44.52 64.76 44.62 64.34 44.96C63.84 45.37 63.4 45.85 62.93 46.29C62.7 46.51 62.46 46.73 62.24 46.95C62.09 47.1 61.97 47.1 61.81 46.95C61.18 46.32 60.57 45.68 59.9 45.08C59.31 44.55 58.45 44.45 57.83 45.13C57.66 45.31 57.5 45.5 57.3 45.64C57.21 45.7 56.98 45.69 56.89 45.62C56.62 45.41 56.41 45.14 56.15 44.93C55.96 44.77 56.03 44.61 56.11 44.47C56.42 43.9 56.74 43.34 57.06 42.78C57.27 42.4 57.47 42.01 57.69 41.63C57.87 41.3 58.06 40.97 58.25 40.65C58.52 40.17 58.8 39.7 59.07 39.22C59.34 38.75 59.61 38.27 59.88 37.8C60.08 37.46 60.26 37.11 60.46 36.76C60.73 36.29 61.01 35.83 61.27 35.36C61.48 34.99 61.66 34.61 61.87 34.23C61.9 34.17 61.98 34.07 62.02 34.08C62.09 34.1 62.17 34.16 62.21 34.23C62.52 34.78 62.82 35.34 63.13 35.89C63.4 36.37 63.67 36.84 63.95 37.32C64.46 38.21 64.98 39.1 65.48 39.99C65.74 40.45 65.97 40.94 66.23 41.4C66.6 42.06 66.98 42.7 67.35 43.35C67.57 43.74 67.78 44.14 67.99 44.54C68.07 44.7 68.03 44.82 67.9 44.94C67.66 45.16 67.43 45.4 67.19 45.62C67.13 45.68 67.03 45.7 66.93 45.75Z" fill="white"/>
<path d="M52.44 0.07C52.57 0.1 52.76 0.17 52.95 0.34C53.48 0.82 53.34 1.61 53.33 1.65C53.18 1.99 52.94 2.3 52.73 2.61C52.43 3.05 52.13 3.48 51.83 3.92C51.4 4.56 50.96 5.2 50.54 5.85C50.49 5.92 50.49 6.08 50.54 6.15C51 6.84 51.49 7.51 51.95 8.2C52.33 8.76 52.67 9.34 53.06 9.88C53.29 10.2 53.4 10.53 53.37 10.92C53.34 11.33 53.06 11.7 52.65 11.8C52.35 11.87 52.05 11.93 51.74 11.93C48.02 11.93 44.31 11.93 40.59 11.93H40.23C40.23 12.05 40.22 12.15 40.22 12.24C40.22 13.27 40.25 14.31 40.21 15.33C40.19 15.83 40.39 16.22 40.6 16.62C40.83 17.06 41.07 17.49 41.31 17.93C41.6 18.44 41.9 18.94 42.19 19.45C42.47 19.95 42.72 20.46 42.99 20.96C43.27 21.48 43.57 21.99 43.85 22.5C44.23 23.19 44.59 23.9 44.97 24.59C45.25 25.1 45.55 25.61 45.84 26.12C46.01 26.43 46.17 26.75 46.34 27.06C46.52 27.4 46.7 27.73 46.88 28.07C47.11 28.5 47.34 28.92 47.57 29.35C47.9 29.94 48.23 30.54 48.55 31.13C48.83 31.64 49.11 32.16 49.39 32.67C49.67 33.19 49.97 33.7 50.25 34.21C50.44 34.55 50.6 34.91 50.78 35.25C50.94 35.55 51.11 35.84 51.28 36.13C51.52 36.55 51.75 36.97 51.99 37.39C52.23 37.82 52.46 38.26 52.69 38.69C52.87 39.02 53.04 39.35 53.22 39.68C53.43 40.07 53.64 40.46 53.85 40.85C54.04 41.19 54.23 41.52 54.42 41.86C54.53 42.06 54.65 42.26 54.79 42.51C55.04 42.06 55.26 41.67 55.48 41.27C55.93 40.46 56.39 39.65 56.83 38.84C57.11 38.32 57.36 37.79 57.64 37.27C57.96 36.68 58.3 36.11 58.63 35.52C58.86 35.1 59.07 34.67 59.3 34.26C59.58 33.74 59.88 33.24 60.16 32.72C60.35 32.38 60.49 32.01 60.69 31.68C60.92 31.28 61.14 30.85 61.63 30.7C62.08 30.56 62.65 30.7 62.94 31.22C63.22 31.71 63.47 32.23 63.74 32.73C64.11 33.42 64.5 34.1 64.88 34.79C65.04 35.07 64.85 35.75 64.56 35.99C63.84 36.58 63.04 36.26 62.66 35.51C62.45 35.1 62.23 34.71 61.98 34.24C61.78 34.58 61.61 34.87 61.45 35.15C61.2 35.59 60.94 36.02 60.71 36.46C60.48 36.88 60.29 37.31 60.06 37.73C59.79 38.23 59.51 38.71 59.24 39.21C58.96 39.72 58.68 40.24 58.4 40.75C58.12 41.26 57.83 41.77 57.55 42.29C57.36 42.63 57.2 42.98 57.02 43.33C56.95 43.46 56.86 43.58 56.79 43.71C56.71 43.84 56.69 43.95 56.84 44.08C57.08 44.28 57.27 44.53 57.49 44.75C57.6 44.86 57.7 44.88 57.84 44.75C58.12 44.48 58.42 44.24 58.72 43.99C58.89 43.85 59.49 43.83 59.66 43.98C60.16 44.42 60.66 44.87 61.14 45.33C61.42 45.6 61.66 45.9 61.97 46.24C62.54 45.65 63.05 45.11 63.57 44.58C63.77 44.38 63.99 44.18 64.22 44.03C64.62 43.78 65.1 43.84 65.46 44.15C65.67 44.34 65.87 44.53 66.08 44.73C66.22 44.87 66.34 44.89 66.49 44.72C66.69 44.49 66.9 44.27 67.13 44.07C67.27 43.95 67.24 43.85 67.17 43.72C66.88 43.18 66.6 42.64 66.31 42.11C65.99 41.52 65.65 40.93 65.33 40.34C65.06 39.84 65.34 39.1 65.85 38.85C66.61 38.48 67.26 38.93 67.54 39.6C67.67 39.91 67.85 40.2 68.01 40.5C68.2 40.85 68.4 41.2 68.6 41.56C68.99 42.26 69.39 42.96 69.78 43.67C70.24 44.51 70.71 45.35 71.16 46.19C71.53 46.88 71.89 47.57 72.25 48.26C72.65 49.02 73.06 49.77 73.48 50.52C73.76 51.03 74.07 51.52 74.35 52.02C74.66 52.58 74.66 52.62 75.31 53.84C75.6 54.4 75.83 54.83 76.14 55.4C76.46 55.98 76.61 56.26 76.83 56.65C77.17 57.24 77.44 57.67 77.8 58.39C77.86 58.5 77.9 58.59 77.93 58.65C77.97 58.74 78.02 58.88 78.03 59.05C78.04 59.21 78.03 59.34 78 59.44C77.98 59.51 77.94 59.6 77.87 59.69C77.54 60.15 76.79 60.33 76.3 60.08C76.12 59.99 75.95 59.74 75.63 59.24C75.37 58.84 75.19 58.5 75.02 58.18C74.69 57.55 74.62 57.38 74.37 56.91C74.06 56.33 73.73 55.75 73.42 55.17C73.19 54.75 72.95 54.33 72.72 53.9C72.3 53.13 71.9 52.35 71.47 51.58C71.19 51.07 70.87 50.59 70.59 50.08C70.21 49.38 69.86 48.66 69.49 47.96C69.27 47.54 69.01 47.14 68.77 46.73C68.7 46.6 68.65 46.46 68.58 46.33C68.53 46.24 68.45 46.17 68.36 46.05C67.92 46.5 67.5 46.93 67.08 47.35C66.57 47.86 65.87 47.83 65.38 47.3C65.17 47.08 64.99 46.83 64.74 46.54C64.04 47.26 63.42 47.89 62.82 48.54C62.49 48.9 62.08 49 61.64 48.9C61.41 48.84 61.2 48.65 61.02 48.48C60.41 47.9 59.81 47.29 59.21 46.69C58.69 47.04 58.39 47.73 57.6 47.72C57.95 48.34 58.29 48.94 58.63 49.54C58.85 49.94 59.06 50.35 59.28 50.75C59.61 51.36 59.94 51.97 60.27 52.58C60.55 53.1 60.83 53.62 61.11 54.14C61.39 54.65 61.68 55.15 61.96 55.65C62.13 55.96 62.3 56.27 62.47 56.58C62.66 56.93 62.86 57.27 63.05 57.62C63.27 58.03 63.47 58.45 63.7 58.86C64.09 59.56 64.49 60.26 64.88 60.97C65.16 61.49 65.41 62.03 65.7 62.54C66.02 63.13 66.37 63.71 66.7 64.29C66.93 64.7 67.14 65.12 67.36 65.53C67.74 66.24 68.13 66.94 68.52 67.64C68.79 68.13 69.14 68.59 69.3 69.1C69.53 69.86 69.3 70.67 68.26 70.7C67.61 70.72 67.33 70.29 67.07 69.81C66.83 69.37 66.58 68.95 66.34 68.51C66.11 68.09 65.91 67.66 65.68 67.24C65.46 66.84 65.22 66.45 65 66.04C64.82 65.71 64.65 65.36 64.47 65.03C64.31 64.72 64.14 64.42 63.97 64.11C63.73 63.69 63.49 63.27 63.26 62.84C62.93 62.24 62.6 61.63 62.27 61.02C61.99 60.5 61.71 59.98 61.43 59.46C61.16 58.96 60.88 58.46 60.6 57.96C60.41 57.6 60.22 57.24 60.03 56.88C59.88 56.6 59.72 56.32 59.57 56.04C59.38 55.7 59.19 55.37 59 55.04C58.75 54.6 58.5 54.17 58.26 53.72C58.03 53.3 57.84 52.87 57.61 52.45C57.29 51.86 56.95 51.28 56.62 50.69C56.39 50.28 56.17 49.85 55.94 49.44C55.6 48.83 55.26 48.23 54.93 47.62C54.66 47.12 54.4 46.62 54.13 46.12C53.84 45.59 53.55 45.07 53.27 44.54C53.09 44.2 52.92 43.86 52.74 43.52C52.59 43.23 52.43 42.94 52.27 42.65C52.03 42.21 51.78 41.78 51.54 41.34C51.15 40.64 50.75 39.94 50.37 39.23C50.09 38.71 49.83 38.17 49.54 37.64C49.21 37.04 48.86 36.46 48.53 35.87C48.31 35.48 48.11 35.07 47.9 34.68C47.51 33.96 47.1 33.24 46.71 32.52C46.43 32 46.17 31.47 45.89 30.95C45.78 30.74 45.64 30.55 45.5 30.32C45.07 30.74 44.65 31.15 44.23 31.58C43.73 32.09 43.02 32.13 42.52 31.59C42.31 31.37 42.11 31.14 41.88 30.88C41.46 31.3 41.09 31.69 40.7 32.05C40.34 32.39 40 32.78 39.58 33.04C39.01 33.39 38.55 33.18 38.17 32.83C37.59 32.29 37.04 31.71 36.47 31.15C36.4 31.08 36.32 31.02 36.25 30.96C35.98 31.21 35.71 31.45 35.45 31.7C34.98 32.15 34.31 32.03 33.88 31.6C33.45 31.18 33.03 30.75 32.6 30.33C32.26 30.92 31.92 31.47 31.61 32.03C31.23 32.73 30.88 33.44 30.5 34.14C30.26 34.59 30.01 35.03 29.74 35.47C29.46 35.93 28.88 36.02 28.34 35.81C27.88 35.63 27.75 35.25 27.67 34.86C27.63 34.65 27.73 34.39 27.83 34.18C28.05 33.72 28.3 33.27 28.55 32.82C28.72 32.51 28.93 32.22 29.1 31.92C29.33 31.52 29.53 31.1 29.75 30.7C29.94 30.35 30.15 30.02 30.33 29.67C30.55 29.25 30.75 28.81 30.98 28.4C31.31 27.8 31.65 27.22 31.99 26.62C32.21 26.22 32.42 25.81 32.65 25.4C32.99 24.78 33.33 24.17 33.67 23.55C33.94 23.04 34.21 22.53 34.48 22.02C34.76 21.5 35.05 20.99 35.34 20.47C35.66 19.89 35.97 19.3 36.3 18.72C36.59 18.19 36.9 17.67 37.19 17.14C37.41 16.75 37.63 16.35 37.82 15.94C37.88 15.8 37.86 15.61 37.86 15.45C37.86 10.81 37.86 6.16 37.86 1.52C37.86 1.11 37.91 0.72 38.16 0.43C38.33 0.23 38.58 0.12 38.58 0.12C38.79 0.03 38.97 0.01 39.08 0C43.54 0 48.01 0 52.47 0L52.44 0.07ZM40.24 2.37C40.24 2.49 40.22 2.6 40.22 2.7C40.22 4.88 40.22 7.06 40.22 9.25C40.22 9.63 40.22 9.63 40.61 9.63H49.62C49.68 9.63 49.75 9.63 49.81 9.63C50.02 9.62 50.01 9.5 49.92 9.37C49.79 9.17 49.66 8.98 49.52 8.79C49.12 8.22 48.71 7.65 48.34 7.07C48.14 6.75 47.87 6.46 47.86 6.04C47.86 5.64 48.07 5.36 48.29 5.06C48.82 4.32 49.31 3.56 49.81 2.8C49.89 2.68 49.94 2.55 50.02 2.38H40.23L40.24 2.37ZM43.31 29.2C43.4 29.16 43.48 29.13 43.53 29.08C43.74 28.88 43.94 28.67 44.15 28.47C44.26 28.36 44.3 28.25 44.23 28.11C44.04 27.75 43.86 27.39 43.67 27.04C43.35 26.45 43.01 25.87 42.69 25.28C42.46 24.86 42.26 24.43 42.03 24.01C41.59 23.2 41.14 22.41 40.69 21.6C40.45 21.17 40.21 20.74 39.98 20.31C39.71 19.81 39.45 19.31 39.18 18.81C39.15 18.75 39.08 18.69 39.02 18.67C38.99 18.67 38.91 18.75 38.89 18.8C38.71 19.14 38.55 19.48 38.37 19.82C38.14 20.24 37.9 20.66 37.66 21.08C37.49 21.39 37.32 21.7 37.15 22.01C36.91 22.44 36.68 22.86 36.44 23.29C36.2 23.72 35.96 24.15 35.72 24.58C35.56 24.87 35.39 25.17 35.23 25.47C35.05 25.81 34.87 26.16 34.68 26.51C34.4 27.02 34.12 27.52 33.85 28.04C33.78 28.17 33.72 28.32 33.89 28.46C34.12 28.66 34.31 28.9 34.54 29.09C34.62 29.15 34.82 29.17 34.9 29.11C35.08 28.99 35.22 28.82 35.36 28.65C35.9 28.04 36.65 28.13 37.17 28.61C37.75 29.14 38.29 29.72 38.84 30.29C38.98 30.43 39.08 30.43 39.22 30.29C39.42 30.09 39.62 29.89 39.82 29.69C40.23 29.29 40.62 28.86 41.06 28.49C41.42 28.18 41.86 28.09 42.29 28.36C42.59 28.55 42.85 28.81 43.13 29.04C43.19 29.09 43.25 29.14 43.32 29.19L43.31 29.2Z" fill="#26394B"/>
<path d="M0.1 65.01C0.19 64.85 0.31 64.63 0.45 64.36C0.53 64.22 0.59 64.11 0.7 63.91C0.89 63.57 0.98 63.43 1.18 63.05C1.4 62.64 1.61 62.22 1.83 61.81C2.01 61.47 2.22 61.14 2.4 60.8C2.62 60.39 2.83 59.96 3.05 59.55C3.29 59.12 3.53 58.69 3.8 58.29C4.19 57.7 5.11 57.77 5.58 58.26C5.83 58.52 5.86 59.15 5.68 59.48C5.35 60.08 5.04 60.69 4.72 61.28C4.43 61.81 4.13 62.32 3.85 62.85C3.19 64.07 2.86 64.68 2.73 64.96C2.73 64.96 2.61 65.2 2.31 65.71C2.12 66.03 2.06 66.1 1.99 66.17C1.68 66.45 1.31 66.49 1.21 66.5C1.08 66.51 0.88 66.53 0.65 66.44C0.37 66.33 0.2 66.13 0.13 65.99C0.06 65.86 0.01 65.65 0.01 65.59C0.01 65.53 0 65.46 0 65.41C0 65.32 0 65.26 0.01 65.19C0.01 65.14 0.04 65.07 0.08 64.99L0.1 65.01Z" fill="#26394B"/>
<path d="M46 50.7701C46.08 51.09 46.14 51.37 46.22 51.64C46.31 51.95 46.4 52.2601 46.5 52.5601C46.62 52.9301 46.76 53.3001 46.88 53.68C46.96 53.9401 47.03 54.2001 47.1 54.4501C47.22 54.84 47.34 55.2201 47.46 55.6101C47.54 55.8701 47.62 56.1401 47.71 56.4001C47.83 56.8001 47.96 57.1901 48.08 57.59C48.16 57.85 48.24 58.1201 48.32 58.3801C48.44 58.7701 48.56 59.1601 48.68 59.5401C48.76 59.8101 48.85 60.08 48.93 60.35C49.05 60.74 49.18 61.12 49.3 61.51C49.38 61.77 49.46 62.0401 49.54 62.3101C49.66 62.6901 49.78 63.06 49.9 63.44C49.99 63.71 50.06 63.99 50.14 64.27C50.26 64.65 50.38 65.0201 50.5 65.4001C50.59 65.6801 50.66 65.97 50.75 66.25C50.87 66.63 51 67.0001 51.11 67.3701C51.19 67.6301 51.27 67.9 51.35 68.17C51.41 68.38 51.47 68.6 51.53 68.81C51.67 69.28 51.81 69.75 51.97 70.2201C52.15 70.7701 52.36 71.3201 52.54 71.8701C52.72 72.4401 52.86 73.0101 53.03 73.5801C53.16 74.0101 53.32 74.42 53.46 74.85C53.58 75.25 53.65 75.66 53.8 76.0401C53.94 76.3801 53.97 76.7201 53.95 77.07C53.94 77.46 53.67 77.66 53.4 77.8601C53.17 78.03 52.92 78.0101 52.66 78.0101C43.56 78.0101 34.46 78.01 25.37 78.02C24.81 78.02 24.43 77.78 24.12 77.38C24.09 77.34 24.09 77.2801 24.08 77.2301C24.01 76.6901 24.11 76.1701 24.34 75.68C24.42 75.5 24.46 75.3 24.52 75.1101C24.72 74.48 24.92 73.85 25.11 73.21C25.24 72.7901 25.34 72.3601 25.47 71.9401C25.59 71.5601 25.74 71.1801 25.86 70.8001C25.94 70.5501 25.99 70.2901 26.07 70.0501C26.19 69.6601 26.33 69.27 26.46 68.88C26.53 68.68 26.6 68.4701 26.66 68.2601C26.82 67.7001 26.97 67.1301 27.14 66.5801C27.32 66.0101 27.53 65.4501 27.71 64.8701C27.89 64.3001 28.03 63.71 28.21 63.14C28.38 62.58 28.59 62.02 28.76 61.46C28.89 61.05 28.99 60.63 29.11 60.21C29.22 59.84 29.35 59.4801 29.46 59.1101C29.55 58.83 29.62 58.54 29.71 58.26C29.82 57.89 29.95 57.5301 30.06 57.16C30.15 56.88 30.23 56.5901 30.32 56.3101C30.44 55.9301 30.56 55.56 30.68 55.18C30.76 54.92 30.84 54.65 30.92 54.39C31.04 54 31.17 53.6 31.29 53.21C31.37 52.95 31.45 52.68 31.53 52.42C31.65 52.03 31.78 51.63 31.9 51.24C31.94 51.11 31.97 50.97 32.01 50.78H31.66C30.76 50.78 29.85 50.78 28.95 50.78C28.53 50.78 28.06 50.28 28.02 49.85C27.99 49.42 28.12 49.09 28.41 48.76C29.02 48.07 29.58 47.3301 30.16 46.6101C30.55 46.1301 30.96 45.66 31.36 45.18C31.82 44.63 32.28 44.0701 32.74 43.5201C33.32 42.8301 33.92 42.1401 34.5 41.4501C35.14 40.6801 35.75 39.9 36.39 39.14C36.97 38.44 37.56 37.7401 38.17 37.0601C38.72 36.4401 39.43 36.59 39.9 37.14C40.42 37.75 40.92 38.4 41.44 39.01C42.07 39.75 42.71 40.48 43.34 41.23C43.93 41.93 44.5 42.6501 45.09 43.3601C45.51 43.8701 45.95 44.38 46.37 44.89C46.96 45.61 47.55 46.3401 48.15 47.0601C48.56 47.5601 49 48.0401 49.41 48.5401C49.7 48.9001 50.04 49.2401 49.98 49.7901C49.92 50.2901 49.48 50.7801 48.97 50.7901C48.1 50.7901 47.24 50.7901 46.37 50.7901H45.98L46 50.7701ZM31.66 48.46C31.81 48.47 31.91 48.49 32 48.49C32.48 48.49 32.96 48.48 33.44 48.49C33.69 48.5 33.95 48.54 34.17 48.64C34.48 48.77 34.69 49.0401 34.75 49.3801C34.84 49.8401 34.65 50.26 34.51 50.69C34.38 51.09 34.27 51.5 34.15 51.91C34.08 52.14 34.01 52.37 33.94 52.59C33.81 52.99 33.68 53.3801 33.55 53.7701C33.47 54.0201 33.43 54.2801 33.35 54.5201C33.17 55.07 32.97 55.62 32.79 56.17C32.64 56.63 32.5 57.0901 32.36 57.5601C32.29 57.7801 32.24 58.01 32.17 58.23C32.1 58.48 32.02 58.73 31.94 58.98C31.82 59.37 31.69 59.7701 31.56 60.16C31.48 60.42 31.4 60.6901 31.32 60.9501C31.2 61.34 31.08 61.7201 30.96 62.1101C30.88 62.3801 30.8 62.66 30.71 62.93C30.59 63.31 30.47 63.6801 30.35 64.0601C30.26 64.3401 30.18 64.62 30.09 64.91C29.97 65.29 29.85 65.6601 29.74 66.0401C29.65 66.3201 29.57 66.61 29.48 66.89C29.36 67.26 29.24 67.62 29.13 67.99C29.05 68.25 28.98 68.5001 28.9 68.7601C28.78 69.1501 28.65 69.5501 28.52 69.9401C28.43 70.2101 28.35 70.4901 28.27 70.7601C28.15 71.1501 28.03 71.53 27.91 71.92C27.83 72.18 27.75 72.4501 27.67 72.71C27.55 73.1 27.43 73.4801 27.3 73.8701C27.21 74.1501 27.11 74.42 27.03 74.7C26.94 75.02 26.86 75.3401 26.77 75.6901H51.26C51.16 75.3301 51.07 75 50.98 74.67C50.94 74.52 50.9 74.3701 50.86 74.2301C50.77 73.9601 50.68 73.69 50.59 73.42C50.52 73.19 50.45 72.9501 50.38 72.7201C50.25 72.3001 50.11 71.89 49.98 71.4701C49.86 71.09 49.76 70.7001 49.64 70.32C49.5 69.8801 49.36 69.44 49.22 68.99C49.15 68.77 49.1 68.55 49.03 68.34C48.95 68.08 48.85 67.82 48.77 67.56C48.65 67.17 48.55 66.78 48.43 66.39C48.3 65.95 48.15 65.52 48.01 65.09C47.89 64.7 47.8 64.31 47.68 63.92C47.54 63.47 47.39 63.0201 47.24 62.57C47.18 62.37 47.12 62.16 47.06 61.96C46.97 61.69 46.87 61.4201 46.79 61.1501C46.68 60.7801 46.57 60.4101 46.46 60.0401C46.37 59.7401 46.26 59.4501 46.17 59.1501C46.06 58.7901 45.96 58.4201 45.85 58.0601C45.76 57.7701 45.65 57.48 45.56 57.19C45.45 56.83 45.36 56.4601 45.24 56.1101C45.11 55.6901 44.95 55.2801 44.82 54.8601C44.69 54.4601 44.6 54.0501 44.47 53.6501C44.29 53.1001 44.08 52.55 43.91 52C43.78 51.61 43.7 51.2 43.58 50.8C43.52 50.58 43.41 50.38 43.38 50.16C43.33 49.85 43.24 49.49 43.35 49.21C43.55 48.7 43.98 48.4501 44.56 48.4701C45.06 48.4901 45.56 48.4701 46.05 48.4701C46.14 48.4701 46.23 48.4601 46.34 48.4501C46.15 48.1901 46 47.95 45.83 47.75C45.36 47.18 44.87 46.63 44.4 46.07C43.77 45.32 43.14 44.56 42.51 43.8C41.85 43 41.18 42.2001 40.52 41.4001C40.06 40.8501 39.61 40.29 39.14 39.74C39.1 39.7 38.94 39.69 38.91 39.74C38.48 40.24 38.07 40.75 37.65 41.26C37.02 42.03 36.39 42.8001 35.76 43.5601C35.17 44.2701 34.58 44.98 33.98 45.69C33.52 46.24 33.07 46.78 32.61 47.33C32.31 47.69 32 48.05 31.66 48.46Z" fill="#26394B"/>
<path d="M9.66999 52.34C9.46999 52.69 9.31999 52.96 9.15999 53.23C8.80999 53.84 8.45999 54.46 8.08999 55.07C7.94999 55.3 7.41999 55.43 7.11999 55.39C6.66999 55.32 6.36999 55.08 6.19999 54.67C6.07999 54.4 6.06999 54.14 6.19999 53.88C6.57999 53.16 6.94999 52.44 7.33999 51.72C7.56999 51.3 7.81999 50.9 8.04999 50.48C8.27999 50.06 8.48999 49.62 8.71999 49.19C8.87999 48.89 9.07999 48.6 9.23999 48.3C9.41999 47.98 9.57999 47.64 9.75999 47.32C9.99999 46.89 10.25 46.46 10.49 46.03C10.72 45.61 10.92 45.18 11.15 44.76C11.31 44.45 11.49 44.14 11.66 43.83C11.85 43.49 12.03 43.14 12.22 42.8C12.44 42.4 12.67 42.01 12.89 41.61C13.18 41.09 13.46 40.57 13.75 40.05C14.08 39.45 14.42 38.85 14.75 38.25C14.92 37.95 15.05 37.62 15.27 37.36C15.62 36.95 16.2 36.88 16.68 37.14C17.07 37.35 17.18 37.75 17.39 38.07C17.6 38.39 17.77 38.72 17.96 39.05C18.13 39.37 18.29 39.69 18.46 40.01C18.85 40.71 19.24 41.41 19.63 42.12C19.86 42.54 20.07 42.97 20.29 43.39C20.65 44.05 21.01 44.71 21.37 45.37C21.42 45.46 21.51 45.53 21.6 45.63C21.99 44.91 22.36 44.21 22.74 43.53C23.18 42.74 23.63 41.95 24.07 41.15C24.44 40.48 24.8 39.8 25.16 39.12C25.44 38.58 25.88 38.35 26.48 38.44C26.76 38.48 27.28 38.92 27.32 39.27C27.39 39.81 27.18 40.25 26.93 40.7C26.69 41.13 26.46 41.56 26.22 41.99C25.93 42.5 25.63 43 25.35 43.52C25.02 44.12 24.72 44.74 24.39 45.34C24.16 45.76 23.91 46.16 23.68 46.57C23.46 46.97 23.25 47.38 23.03 47.78C22.78 48.23 22.53 48.67 22.28 49.13C22 49.65 21.75 50.18 21.46 50.7C21.13 51.3 20.78 51.88 20.45 52.48C20.22 52.9 20.03 53.33 19.8 53.75C19.48 54.34 19.14 54.92 18.81 55.5C18.58 55.92 18.37 56.35 18.14 56.76C17.86 57.27 17.55 57.78 17.27 58.29C17.09 58.62 16.94 58.96 16.76 59.29C16.6 59.6 16.43 59.9 16.26 60.21C16.03 60.62 15.79 61.04 15.56 61.45C15.22 62.06 14.89 62.67 14.56 63.29C14.28 63.81 14.01 64.34 13.72 64.86C13.39 65.46 13.06 66.05 12.73 66.65C12.45 67.17 12.17 67.69 11.89 68.2C11.5 68.9 11.11 69.6 10.7 70.29C10.28 71.01 9.08999 70.91 8.74999 70.17C8.59999 69.84 8.58999 69.43 8.78999 69.06C8.96999 68.73 9.12999 68.4 9.30999 68.07C9.52999 67.68 9.74999 67.29 9.96999 66.89C10.16 66.53 10.34 66.17 10.53 65.81C10.68 65.53 10.83 65.25 10.99 64.97C11.18 64.64 11.38 64.31 11.57 63.97C11.82 63.53 12.08 63.08 12.32 62.63C12.55 62.21 12.74 61.77 12.97 61.35C13.35 60.65 13.76 59.97 14.14 59.28C14.42 58.76 14.67 58.22 14.96 57.7C15.28 57.11 15.63 56.53 15.95 55.95C16.07 55.74 16.16 55.51 16.29 55.24C15.59 55.31 15.2 54.89 14.8 54.48C14.36 54.03 13.9 53.61 13.48 53.16C13.33 53 13.25 53.05 13.13 53.16C12.98 53.3 12.67 53.7 12.34 53.87C12.31 53.89 12.2 53.94 12.04 53.98C11.64 54.07 11.31 53.92 11.21 53.87C10.98 53.76 10.85 53.61 10.77 53.52C10.5 53.22 10.15 52.85 9.65999 52.35L9.66999 52.34ZM16.11 40.55C16.01 40.72 15.93 40.85 15.86 40.97C15.62 41.39 15.39 41.82 15.16 42.25C14.84 42.83 14.52 43.41 14.2 43.99C13.97 44.41 13.77 44.84 13.54 45.26C13.3 45.7 13.05 46.13 12.81 46.56C12.63 46.88 12.46 47.21 12.28 47.53C12.05 47.94 11.82 48.36 11.59 48.77C11.41 49.09 11.22 49.41 11.05 49.74C10.96 49.92 10.81 50.2 10.88 50.29C11.15 50.64 11.49 50.92 11.81 51.24C12.02 51.02 12.18 50.83 12.36 50.66C13 50.07 13.43 49.98 14.11 50.49C14.47 50.76 14.77 51.13 15.09 51.45C15.42 51.78 15.75 52.12 16.07 52.45C16.64 51.89 17.18 51.36 17.72 50.82C18.08 50.46 18.46 50.13 19.01 50.15C19.07 50.15 19.16 50.09 19.19 50.03C19.44 49.59 19.67 49.15 19.91 48.7C20.08 48.37 20.32 48.09 20 47.67C19.68 47.25 19.47 46.75 19.22 46.28C18.99 45.85 18.79 45.41 18.56 44.98C18.33 44.54 18.07 44.12 17.83 43.68C17.66 43.37 17.52 43.05 17.34 42.74C17.11 42.33 16.85 41.93 16.62 41.51C16.44 41.2 16.28 40.87 16.09 40.52L16.11 40.55Z" fill="#26394B"/>
<path d="M40.2 2.36998C43.43 2.36998 46.67 2.36998 49.9 2.36998C49.91 2.36998 49.93 2.36998 49.96 2.36998C49.99 2.36998 50.01 2.36998 50.02 2.36998C50.04 2.38998 49.99 2.48998 49.97 2.52998C49.93 2.59998 49.88 2.67998 49.81 2.77998C49.19 3.81998 48.68 4.53998 48.29 5.03998C48.12 5.24998 47.86 5.57998 47.86 6.01998C47.86 6.43998 48.14 6.72998 48.34 7.04998C48.72 7.63998 49.13 8.19998 49.52 8.76998C49.65 8.95998 49.79 9.15998 49.92 9.34998C49.97 9.41998 49.99 9.48998 49.96 9.53998C49.93 9.58998 49.83 9.59998 49.8 9.60998C49.78 9.60998 49.75 9.60998 49.7 9.60998C49.66 9.60998 49.63 9.60998 49.61 9.60998C46.63 9.69998 43.63 9.69998 40.6 9.60998H40.41C40.41 9.60998 40.36 9.60998 40.32 9.60998C40.28 9.60998 40.24 9.59998 40.22 9.56998C40.2 9.54998 40.2 9.51998 40.2 9.41998C40.2 9.38998 40.2 9.32998 40.2 9.26998V8.21998C40.2 7.43998 40.2 6.65998 40.2 5.86998C40.2 4.87998 40.2 3.89998 40.2 2.90998L40.18 2.34998L40.2 2.36998Z" fill="#22CBC1"/>
<path d="M43.31 29.2001C43.24 29.1401 43.18 29.0901 43.12 29.0501C42.84 28.8201 42.58 28.5601 42.28 28.3701C41.85 28.1001 41.41 28.1901 41.05 28.5001C40.62 28.8701 40.22 29.3001 39.81 29.7001C39.61 29.9001 39.4 30.0901 39.21 30.3001C39.08 30.4401 38.97 30.4401 38.83 30.3001C38.28 29.7301 37.74 29.1501 37.16 28.6201C36.64 28.1401 35.89 28.0501 35.35 28.6601C35.21 28.8201 35.06 29.0001 34.89 29.1201C34.81 29.1801 34.61 29.1601 34.53 29.1001C34.3 28.9101 34.11 28.6701 33.88 28.4701C33.72 28.3301 33.77 28.1801 33.84 28.0501C34.11 27.5401 34.39 27.0301 34.67 26.5201C34.86 26.1801 35.03 25.8301 35.22 25.4801C35.38 25.1801 35.54 24.8901 35.71 24.5901C35.95 24.1601 36.19 23.7301 36.43 23.3001C36.67 22.8701 36.9 22.4501 37.14 22.0201C37.31 21.7101 37.48 21.4001 37.65 21.0901C37.88 20.6701 38.13 20.2601 38.36 19.8301C38.54 19.5001 38.7 19.1501 38.88 18.8101C38.91 18.7501 38.98 18.6701 39.01 18.6801C39.07 18.6901 39.14 18.7601 39.17 18.8201C39.44 19.3201 39.7 19.8201 39.97 20.3201C40.2 20.7501 40.44 21.1801 40.68 21.6101C41.13 22.4101 41.58 23.2101 42.02 24.0201C42.25 24.4401 42.45 24.8701 42.68 25.2901C43 25.8801 43.34 26.4601 43.66 27.0501C43.85 27.4001 44.03 27.7601 44.22 28.1201C44.29 28.2601 44.26 28.3801 44.14 28.4801C43.93 28.6801 43.73 28.8901 43.52 29.0901C43.47 29.1401 43.38 29.1601 43.3 29.2101L43.31 29.2001Z" fill="white"/>
<path d="M31.66 48.46C32.01 48.05 32.31 47.69 32.61 47.33C33.07 46.78 33.53 46.24 33.98 45.69C34.57 44.98 35.17 44.27 35.76 43.56C36.39 42.79 37.02 42.02 37.65 41.26C38.07 40.75 38.48 40.24 38.91 39.74C38.94 39.7 39.11 39.71 39.14 39.74C39.61 40.29 40.06 40.85 40.52 41.4C41.18 42.2 41.85 43 42.51 43.8C43.14 44.56 43.77 45.32 44.4 46.07C44.87 46.63 45.36 47.19 45.83 47.75C46 47.96 46.15 48.19 46.34 48.45C46.23 48.45 46.14 48.47 46.05 48.47C45.55 48.47 45.05 48.49 44.56 48.47C43.98 48.45 43.55 48.7 43.35 49.21C43.24 49.48 43.34 49.84 43.38 50.16C43.41 50.38 43.52 50.59 43.58 50.8C43.69 51.2 43.78 51.61 43.91 52C44.09 52.55 44.29 53.1 44.47 53.65C44.6 54.05 44.69 54.46 44.82 54.86C44.95 55.28 45.11 55.69 45.24 56.11C45.35 56.47 45.45 56.83 45.56 57.19C45.65 57.48 45.76 57.77 45.85 58.06C45.96 58.42 46.06 58.79 46.17 59.15C46.26 59.45 46.37 59.74 46.46 60.04C46.57 60.41 46.68 60.78 46.79 61.15C46.88 61.42 46.97 61.69 47.06 61.96C47.13 62.16 47.18 62.37 47.24 62.57C47.38 63.02 47.54 63.47 47.68 63.92C47.8 64.31 47.89 64.7 48.01 65.09C48.14 65.53 48.29 65.96 48.43 66.39C48.55 66.78 48.65 67.17 48.77 67.56C48.85 67.82 48.95 68.08 49.03 68.34C49.1 68.56 49.15 68.78 49.22 68.99C49.36 69.43 49.51 69.87 49.64 70.32C49.76 70.7 49.86 71.09 49.98 71.47C50.11 71.89 50.25 72.3 50.38 72.72C50.45 72.95 50.52 73.19 50.59 73.42C50.68 73.69 50.77 73.96 50.86 74.23C50.91 74.38 50.94 74.52 50.98 74.67C51.07 75 51.16 75.33 51.26 75.69H26.78C26.87 75.34 26.95 75.02 27.04 74.7C27.12 74.42 27.22 74.14 27.31 73.87C27.43 73.48 27.56 73.1 27.68 72.71C27.76 72.45 27.84 72.18 27.92 71.92C28.04 71.53 28.16 71.15 28.28 70.76C28.36 70.49 28.44 70.21 28.53 69.94C28.65 69.55 28.79 69.15 28.91 68.76C28.99 68.5 29.06 68.25 29.14 67.99C29.25 67.62 29.37 67.26 29.49 66.89C29.58 66.61 29.66 66.32 29.75 66.04C29.87 65.66 29.99 65.29 30.1 64.91C30.19 64.63 30.27 64.35 30.36 64.06C30.48 63.68 30.6 63.31 30.72 62.93C30.81 62.66 30.88 62.39 30.97 62.11C31.09 61.72 31.21 61.34 31.33 60.95C31.41 60.69 31.49 60.42 31.57 60.16C31.69 59.77 31.82 59.37 31.95 58.98C32.03 58.73 32.11 58.48 32.18 58.23C32.25 58.01 32.3 57.78 32.37 57.56C32.51 57.1 32.65 56.63 32.8 56.17C32.98 55.62 33.18 55.07 33.36 54.52C33.44 54.27 33.48 54.01 33.56 53.77C33.68 53.37 33.82 52.98 33.95 52.59C34.02 52.36 34.09 52.13 34.16 51.91C34.28 51.5 34.39 51.09 34.52 50.69C34.66 50.26 34.85 49.84 34.76 49.38C34.7 49.04 34.49 48.78 34.18 48.64C33.96 48.54 33.7 48.5 33.45 48.49C32.97 48.47 32.49 48.49 32.01 48.49C31.92 48.49 31.82 48.48 31.67 48.46H31.66Z" fill="#22CBC1"/>
<path d="M16.1 40.54C16.29 40.89 16.45 41.22 16.63 41.53C16.86 41.94 17.12 42.34 17.35 42.76C17.52 43.07 17.67 43.39 17.84 43.7C18.08 44.13 18.33 44.56 18.57 45C18.8 45.43 19 45.87 19.23 46.3C19.48 46.77 19.69 47.27 20.01 47.69C20.33 48.11 20.09 48.39 19.92 48.72C19.69 49.16 19.45 49.61 19.2 50.05C19.17 50.11 19.08 50.17 19.02 50.17C18.46 50.16 18.09 50.48 17.73 50.84C17.19 51.37 16.65 51.9 16.08 52.47C15.76 52.14 15.43 51.81 15.1 51.47C14.78 51.14 14.48 50.78 14.12 50.51C13.44 50 13.01 50.08 12.37 50.68C12.19 50.85 12.02 51.04 11.82 51.26C11.5 50.95 11.16 50.66 10.89 50.31C10.82 50.22 10.97 49.94 11.06 49.76C11.23 49.43 11.42 49.11 11.6 48.79C11.83 48.38 12.06 47.96 12.29 47.55C12.47 47.23 12.64 46.9 12.82 46.58C13.06 46.15 13.31 45.72 13.55 45.28C13.78 44.86 13.98 44.43 14.21 44.01C14.52 43.43 14.85 42.85 15.17 42.27C15.4 41.85 15.64 41.42 15.87 40.99C15.94 40.86 16.02 40.74 16.12 40.57L16.1 40.54Z" fill="white"/>
</g>
<defs>
<clipPath id="clip0_281_1660">
<rect width="78" height="78" fill="white"/>
</clipPath>
</defs>
</svg>
