<svg width="92" height="92" viewBox="0 0 92 92" fill="none" xmlns="http://www.w3.org/2000/svg">
<path d="M92 46C92 71.4051 71.4051 92 46 92C20.5949 92 0 71.4051 0 46C0 20.5949 20.5949 0 46 0C71.4051 0 92 20.5949 92 46Z" fill="#EEFAFA"/>
<path d="M37.225 54.5199V69.7449C37.225 70.8495 38.1204 71.7449 39.225 71.7449H53.775C54.8796 71.7449 55.775 70.8495 55.775 69.7449V54.5199H70C71.1046 54.5199 72 53.6245 72 52.5199V38.9699C72 37.8654 71.1046 36.9699 70 36.9699H55.775V22C55.775 20.8954 54.8796 20 53.775 20H39.5C38.3954 20 37.5 20.8954 37.5 22V36.9699H23C21.8954 36.9699 21 37.8654 21 38.9699V52.5199C21 53.6245 21.8954 54.5199 23 54.5199H37.225Z" fill="#22CBC1"/>
<path fill-rule="evenodd" clip-rule="evenodd" d="M13.9819 68.2676C13.6881 67.8452 13.8071 67.2665 14.2364 66.9829C14.6657 66.6993 15.2427 66.8183 15.537 67.2403C20.5144 74.3792 27.8487 79.5523 36.2663 81.8385C44.9839 84.2062 54.2657 83.3152 62.3737 79.3323C70.4817 75.3494 76.86 68.5478 80.3143 60.2009C83.7686 51.854 84.0621 42.5342 81.1399 33.9864C78.2176 25.4387 72.2799 18.2492 64.4386 13.7641C56.5972 9.27891 47.3899 7.80564 38.5406 9.62011C29.6913 11.4346 21.8067 16.4124 16.3631 23.6215C11.107 30.5824 8.47469 39.1628 8.9095 47.8548C8.93521 48.3686 8.55179 48.8159 8.03872 48.8545C7.52565 48.8931 7.07728 48.5084 7.05096 47.9945C6.58254 38.8505 9.34689 29.8214 14.8762 22.4987C20.5929 14.9279 28.873 9.70036 38.1663 7.79486C47.4597 5.88935 57.1289 7.43654 65.3637 12.1467C73.5984 16.8569 79.834 24.4071 82.9029 33.3837C85.9718 42.3603 85.6636 52.1477 82.0359 60.9133C78.4083 69.679 71.71 76.8219 63.1952 81.0046C54.6804 85.1874 44.9329 86.1231 35.7779 83.6366C26.9229 81.2316 19.2095 75.7845 13.9819 68.2676ZM72.9 53.245C72.9 54.2943 72.0493 55.145 71 55.145H56C55.5029 55.145 55.1 54.7421 55.1 54.245C55.1 53.7479 55.5029 53.345 56 53.345H71C71.0552 53.345 71.1 53.3002 71.1 53.245V38.745C71.1 38.6898 71.0552 38.645 71 38.645H55.5H54.6V37.745V21.745C54.6 21.6898 54.5552 21.645 54.5 21.645H44C43.5029 21.645 43.1 21.2421 43.1 20.745C43.1 20.2479 43.5029 19.845 44 19.845H54.5C55.5493 19.845 56.4 20.6957 56.4 21.745V36.845H71C72.0493 36.845 72.9 37.6957 72.9 38.745V53.245ZM38 29.1001C38.497 29.1001 38.9 29.503 38.9 30.0001V37.745V38.645H38H22C21.9448 38.645 21.9 38.6898 21.9 38.745V53.245C21.9 53.3002 21.9448 53.345 22 53.345H37.9719H38.8719V54.245V70.745C38.8719 70.8002 38.9167 70.845 38.9719 70.845H54C54.0552 70.845 54.1 70.8002 54.1 70.745V63.5001C54.1 63.003 54.5029 62.6001 55 62.6001C55.497 62.6001 55.9 63.003 55.9 63.5001V70.745C55.9 71.7943 55.0493 72.645 54 72.645H38.9719C37.9226 72.645 37.0719 71.7943 37.0719 70.745V55.145H22C20.9507 55.145 20.1 54.2943 20.1 53.245V38.745C20.1 37.6957 20.9507 36.845 22 36.845H37.1V30.0001C37.1 29.503 37.5029 29.1001 38 29.1001Z" fill="#26394B"/>
</svg>
