<svg width="78" height="78" viewBox="0 0 78 78" fill="none" xmlns="http://www.w3.org/2000/svg">
<path d="M2.19659 53C2.19659 49.6863 4.88289 47 8.19659 47H16.7183V48.277C16.7183 52.7411 20.3135 56.3725 24.7774 56.4174C29.3052 56.4629 33 52.805 33 48.277V48H43V75.7179H2.19659V53Z" fill="white"/>
<path d="M77.9689 76.12C77.9689 76.12 77.9689 76.24 77.9689 76.33C77.8889 76.9 77.3269 77.3365 77 77.5C76 78 74.7889 78 74.7889 78C50.9289 77.97 27.0589 77.98 3.19893 77.98C2.89893 77.98 2.58893 77.98 2.28893 77.97C1.01893 77.9 0.0289345 76.94 0.0189345 75.66C-0.0110655 72.94 -0.00106692 66.1889 0.0189331 63.4689C0.0189331 62.6989 0.468933 62.1989 1.12893 62.1789C1.80893 62.1589 2.29893 62.6789 2.29893 63.4789C2.30893 65.8889 2.29893 72.34 2.29893 74.76V75.64H34.9189V74.74C34.9189 70.32 34.8989 61.8689 34.9189 57.4489C34.9389 53.6389 37.3989 50.6789 41.0689 50.0489C41.6289 49.9489 42.2089 49.9589 42.8789 49.9089C42.4289 49.3389 42.0289 48.8289 41.6189 48.3289C41.5389 48.2289 41.3589 48.1689 41.2289 48.1689C39.0989 48.1689 36.9689 48.1689 34.7589 48.1689C34.8189 51.7189 33.5389 54.6389 30.7089 56.7789C28.6789 58.3089 26.3489 58.8989 23.8289 58.6689C19.3489 58.2489 14.8089 54.4089 14.9089 48.2189C14.6989 48.2089 14.4789 48.1789 14.2589 48.1789C12.3789 48.1789 10.4989 48.1689 8.61893 48.1789C5.01893 48.1989 2.31893 50.8989 2.28893 54.4889C2.28893 55.7089 2.28893 56.9289 2.28893 58.1489C2.28893 59.0289 1.83893 59.5689 1.14893 59.5589C0.448933 59.5589 -0.0110669 59.0189 0.0189331 58.1389C0.0689331 56.2689 -0.0810669 54.3489 0.268933 52.5289C1.00893 48.6389 4.48893 45.9289 8.46894 45.8989C11.3089 45.8689 14.1589 45.8989 16.9989 45.8989H17.8089C17.9989 45.2089 17.8589 44.7789 17.2989 44.3489C14.5189 42.2489 12.8589 39.4589 12.3289 36.0089C12.2789 35.7089 12.2289 35.4089 12.1789 35.0789C11.9589 35.0289 11.7389 34.9789 11.5189 34.9289C8.64894 34.3789 6.82893 31.4089 7.74893 28.6289C8.02893 27.7889 8.01893 27.0089 7.91893 26.1889C7.63893 23.9989 7.35893 21.8089 7.06893 19.6289C6.58893 16.1189 8.14894 13.6089 11.5089 12.4489C11.7289 12.3689 11.9789 12.0789 12.0289 11.8389C12.8689 7.79893 16.0289 5.13893 20.1389 5.01893C20.7989 4.99893 21.4589 4.98893 22.1189 5.01893C22.7889 5.04893 23.2389 5.50893 23.2589 6.10893C23.2689 6.69893 22.8289 7.21893 22.1689 7.26893C21.4589 7.31893 20.7489 7.27893 20.0389 7.30893C16.8389 7.42893 14.3389 9.88893 14.1689 13.0789C14.1089 14.1189 13.8289 14.4189 12.8189 14.5389C10.4289 14.8089 9.04893 16.4889 9.29893 18.8889C9.52893 21.0989 9.83893 23.3089 10.1189 25.5389C10.8189 25.3489 11.4789 25.1689 11.9689 25.0389C12.4689 23.4689 12.8389 21.9389 13.4389 20.4989C14.2589 18.5189 15.6589 16.9389 17.3789 15.6489C17.9289 15.2289 18.4889 15.1289 19.0389 15.6089C22.0289 18.2189 25.6189 19.4589 29.4389 20.1189C31.3289 20.4489 33.2589 20.5789 35.1789 20.7589C36.2989 20.8689 36.5489 20.9989 36.8489 22.0589C37.0689 22.8389 37.2189 23.6389 37.3489 24.4389C37.4089 24.8389 37.5189 25.0789 37.9689 25.1389C38.3889 25.1889 38.7989 25.3389 39.2389 25.4489C39.2689 25.4089 39.3389 25.3589 39.3489 25.2989C39.6489 23.0089 40.0189 20.7289 40.2089 18.4289C40.3689 16.4089 38.8889 14.8289 36.7989 14.5589C35.4789 14.3789 35.2589 14.1089 35.3889 12.7689C35.6689 9.84893 33.5689 7.41893 30.6389 7.31893C29.5189 7.27893 28.4089 7.31893 27.2889 7.29893C26.3989 7.28893 25.8889 6.84893 25.9089 6.12893C25.9189 5.43893 26.4089 5.00893 27.2589 5.02893C28.8589 5.05893 30.4789 4.95893 32.0389 5.22893C35.0989 5.75893 37.3889 8.40893 37.6489 11.5189C37.6989 12.1789 37.9389 12.4489 38.5489 12.6689C40.5789 13.3989 41.8289 14.8789 42.3589 16.9789C42.4089 17.1689 42.4589 17.3689 42.4589 17.3489C43.3789 16.5189 44.3089 15.5889 45.3289 14.7789C50.5489 10.6089 56.3989 9.67893 62.5789 11.9989C68.7589 14.3189 72.4389 18.9889 73.5189 25.5089C73.8789 27.6689 73.7089 29.9089 73.7389 32.1189C73.7389 32.7689 73.2189 33.2289 72.6189 33.2289C71.9889 33.2289 71.4989 32.7489 71.4789 32.0489C71.4489 30.8089 71.4789 29.5589 71.4689 28.3189C71.4489 20.8389 66.4789 14.7989 59.1389 13.3589C50.1189 11.5889 41.6489 18.3689 41.4889 27.5489C41.4189 31.9889 41.4189 36.4389 41.4889 40.8789C41.5489 44.4789 43.0989 47.3789 46.0189 49.4989C46.3989 49.7689 46.9289 49.9089 47.4089 49.9489C48.3389 50.0189 49.2789 49.9689 50.3289 49.9689C50.3289 49.1889 50.3589 48.4589 50.3089 47.7489C50.2989 47.5789 50.0389 47.4089 49.8689 47.2789C46.3189 44.8189 44.5189 41.4089 44.3989 37.1089C44.3489 35.4889 44.3789 33.8589 44.3989 32.2389C44.3989 31.0289 45.0089 30.5889 46.1689 30.9089C47.8289 31.3689 49.4389 31.1289 51.0189 30.5689C54.2089 29.4489 56.9089 27.5189 59.4589 25.3589C60.8889 24.1489 62.2289 22.8289 63.5989 21.5389C64.4289 20.7589 65.0489 20.7689 65.7689 21.6489C67.5289 23.8089 68.4689 26.2989 68.5189 29.0689C68.5689 32.1089 68.6189 35.1689 68.4289 38.1989C68.1989 41.9089 66.3889 44.8489 63.3889 47.0089C62.7989 47.4389 62.5289 47.8489 62.6189 48.5489C62.6789 48.9889 62.6289 49.4489 62.6289 50.1189C63.1089 49.9189 63.5589 49.8689 63.7589 49.6189C64.8189 48.3589 66.1489 47.7289 67.7689 47.8589C68.5889 47.9289 69.0689 47.6089 69.5089 46.9589C70.7689 45.0989 71.4489 43.0689 71.4789 40.8189C71.4889 39.6289 71.4789 38.4289 71.4789 37.2389C71.4789 36.3589 71.9389 35.8289 72.6389 35.8389C73.3389 35.8389 73.7789 36.3789 73.7589 37.2689C73.7289 39.5689 74.0089 41.9089 73.2889 44.1489C72.8689 45.4389 72.2889 46.6789 71.7689 47.9689C73.3089 48.4389 74.4289 49.4889 74.9689 51.1289C75.0189 51.2789 75.1489 51.4289 75.2789 51.5389C76.0089 52.1389 76.2089 52.3189 76.6789 52.9189C76.9089 53.2089 77.0389 53.4589 77.1689 53.7189C77.4089 54.1889 77.5489 54.5889 77.6689 54.9389C77.6789 54.9789 77.7489 55.1789 77.8289 55.4489C77.9389 55.8489 77.9589 56.0289 77.9689 56.1289C77.9789 56.2589 77.9789 56.3689 77.9789 56.4389C77.9789 61.6489 77.9789 70.91 77.9789 76.12H77.9689ZM75.6889 75.66C75.6889 70.65 75.6989 61.6889 75.6689 56.7589C75.6689 56.1889 75.4089 55.6189 75.2689 55.0489C74.5889 56.6289 73.3889 56.9289 71.9089 56.8889C69.9289 56.8289 67.9489 56.8589 65.9689 56.8889C64.9889 56.8889 64.0289 56.8989 63.3389 56.0489C60.6489 59.7589 57.2689 60.1989 54.8989 59.6589C51.0089 58.7789 48.9389 56.1789 48.3689 52.2489C46.4189 52.2489 44.4889 52.2489 42.5589 52.2489C39.2689 52.2689 37.1989 54.3389 37.1989 57.6389C37.1989 62.0289 37.1989 70.46 37.1989 74.86C37.1989 75.13 37.1889 75.39 37.1989 75.67H75.6889V75.66ZM18.1789 17.9089C15.8889 19.9589 14.5789 22.4389 14.4889 25.4589C14.3989 28.4489 14.4289 31.4489 14.4789 34.4389C14.5689 39.5389 18.6289 44.0189 23.5389 44.4989C28.9889 45.0389 33.8489 41.6989 34.8689 36.4389C35.6089 32.6189 35.1589 28.6989 35.0989 24.8289C35.0989 24.4489 34.9589 24.0789 34.9289 23.7089C34.8789 23.1789 34.6289 23.0289 34.0889 22.9889C28.3989 22.6089 22.9389 21.4789 18.1789 17.8989V17.9089ZM64.5789 23.9189C62.7989 25.4289 61.1189 26.9389 59.3489 28.3389C56.9689 30.2189 54.4389 31.8789 51.5089 32.7489C49.9789 33.1989 48.3589 33.3289 46.7589 33.6089C46.7589 35.0389 46.6389 36.6389 46.7789 38.2089C47.2089 43.1189 51.5089 46.9389 56.4689 46.9389C61.3789 46.9389 65.7489 43.1089 66.0989 38.2489C66.3289 35.0989 66.2289 31.9089 66.1789 28.7389C66.1489 26.9889 65.5589 25.3689 64.5789 23.9089V23.9189ZM17.2189 48.2289C17.1689 51.4289 18.4089 53.8789 21.1689 55.4689C23.7789 56.9689 27.1289 56.6989 29.4789 54.8389C31.6089 53.1489 32.5489 50.9189 32.4389 48.2389C31.5989 48.1689 30.8389 48.2189 30.1589 48.0089C29.2289 47.7189 29.6389 46.7189 29.4289 46.0089C26.3289 47.1789 23.2889 47.1589 20.2189 46.0289C20.0689 46.7989 20.4089 47.7389 19.4889 48.0189C18.8089 48.2289 18.0489 48.1689 17.2189 48.2289ZM50.7389 52.2389C51.0489 55.6089 53.9389 57.8689 57.2689 57.4689C59.9089 57.1489 62.4089 54.4489 62.0689 52.2889C60.4589 52.1389 60.3089 51.9689 60.3089 50.3189V48.6089C57.7089 49.4589 55.1989 49.4089 52.6289 48.6489C52.6289 49.1589 52.6289 49.5389 52.6289 49.9089C52.6289 50.2889 52.6289 50.6689 52.6289 51.0489C52.5989 51.7689 52.1889 52.1589 51.4889 52.2289C51.2689 52.2489 51.0489 52.2289 50.7589 52.2289L50.7389 52.2389ZM39.1289 34.6589C38.7389 34.7589 38.4189 34.8889 38.0989 34.9089C37.5689 34.9389 37.3889 35.1889 37.3289 35.7089C36.8889 39.2489 35.2289 42.1289 32.3989 44.2889C31.8089 44.7389 31.6889 45.1889 31.8689 45.8489H40.2389C38.6089 42.2289 39.3689 38.4289 39.1289 34.6589ZM72.7989 54.5589C72.7989 53.6989 72.8589 52.8889 72.7889 52.0889C72.6889 50.9789 71.7489 50.1689 70.6189 50.1389C69.5289 50.1189 68.4389 50.1189 67.3489 50.1389C66.2189 50.1589 65.3189 50.8689 65.1689 51.9789C65.0589 52.8189 65.1489 53.6789 65.1489 54.5589H72.7989ZM12.1189 32.6189V27.4589C10.8189 27.5289 9.78894 28.6489 9.76894 29.9889C9.73894 31.3389 10.7589 32.5089 12.1189 32.6189ZM37.4989 27.4189V32.6289C38.7189 32.5189 39.1689 32.0589 39.1689 30.9389C39.1689 30.3289 39.0989 29.7089 39.1889 29.1189C39.3489 28.0089 38.5889 27.5389 37.5089 27.4189H37.4989Z" fill="#26394B"/>
<path d="M75.7299 75.6881H37.2089C37.2089 75.4086 37.2089 71.0789 37.2089 70.8089C37.2089 66.4189 37.2089 62.0289 37.2089 57.6289C37.2089 54.3289 39.2789 52.2589 42.5689 52.2389C44.4989 52.2389 46.4189 52.2389 48.3789 52.2389C48.6284 53.9591 49.1653 55.4226 50.0165 56.5992C51.1098 58.1106 52.7217 59.1485 54.9089 59.6489C57.2789 60.1889 60.6589 59.7489 63.3489 56.0389C64.0389 56.8989 64.9989 56.8889 65.9789 56.8789C67.9589 56.8589 69.9389 56.8289 71.9189 56.8789C73.3889 56.9189 74.5989 56.6289 75.2789 55.0389C75.4189 55.6089 75.6789 56.1789 75.6789 56.7489C75.7089 61.6689 75.7399 70.6581 75.7399 75.6781L75.7299 75.6881Z" fill="#22CBC1"/>
<path d="M18.1789 17.9089C22.9389 21.4789 28.3989 22.6189 34.0889 22.9989C34.6189 23.0389 34.8789 23.1789 34.9289 23.7189C34.9589 24.0989 35.0989 24.4689 35.0989 24.8389C35.1589 28.7089 35.6089 32.6189 34.8689 36.4489C33.8489 41.7089 28.9789 45.0489 23.5389 44.5089C18.6289 44.0189 14.5589 39.5389 14.4789 34.4489C14.4289 31.4589 14.4089 28.4589 14.4889 25.4689C14.5789 22.4489 15.8889 19.9689 18.1789 17.9189V17.9089Z" fill="white"/>
<path d="M64.5789 23.9189C65.5689 25.3789 66.1489 26.9989 66.1789 28.7589C66.2289 31.9289 66.3289 35.1089 66.0989 38.2689C65.7489 43.1289 61.3789 46.9489 56.4689 46.9589C51.5089 46.9589 47.2089 43.1389 46.7789 38.2289C46.6389 36.6489 46.7589 35.0489 46.7589 33.6289C48.3589 33.3489 49.9789 33.2189 51.5089 32.7689C54.4389 31.8989 56.9789 30.2389 59.3489 28.3589C61.1189 26.9589 62.7989 25.4489 64.5789 23.9389V23.9189Z" fill="white"/>
<path d="M72.7989 54.5489H65.1489C65.1489 53.6589 65.0589 52.7989 65.1689 51.9689C65.3089 50.8589 66.2189 50.1489 67.3489 50.1289C68.4389 50.1089 69.5289 50.1089 70.6189 50.1289C71.7489 50.1489 72.6889 50.9689 72.7889 52.0789C72.8589 52.8789 72.7989 53.6889 72.7989 54.5489Z" fill="white"/>
<path d="M12.119 32.619C10.749 32.499 9.73896 31.339 9.76896 29.989C9.79896 28.649 10.819 27.529 12.119 27.459V32.619Z" fill="white"/>
<path d="M37.509 27.4189C38.589 27.5389 39.349 28.0089 39.189 29.1189C39.109 29.7189 39.179 30.3289 39.169 30.9389C39.169 32.0489 38.719 32.5089 37.499 32.6289V27.4189H37.509Z" fill="white"/>
</svg>
