<svg width="92" height="92" viewBox="0 0 92 92" fill="none" xmlns="http://www.w3.org/2000/svg">
<path d="M92 46C92 71.4051 71.4051 92 46 92C20.5949 92 0 71.4051 0 46C0 20.5949 20.5949 0 46 0C71.4051 0 92 20.5949 92 46Z" fill="#EEFAFA"/>
<circle cx="46" cy="46" r="10" fill="#22CBC1"/>
<path d="M72 46C72 60.3594 60.3594 72 46 72C31.6406 72 20 60.3594 20 46C20 31.6406 31.6406 20 46 20C60.3594 20 72 31.6406 72 46ZM29.1307 46C29.1307 55.3166 36.6834 62.8693 46 62.8693C55.3166 62.8693 62.8693 55.3166 62.8693 46C62.8693 36.6834 55.3166 29.1307 46 29.1307C36.6834 29.1307 29.1307 36.6834 29.1307 46Z" fill="#22CBC1"/>
<path fill-rule="evenodd" clip-rule="evenodd" d="M46 8C45.4477 8 45 8.44772 45 9V19.0184C43.4082 19.0774 41.8148 19.2776 40.2385 19.6219C33.563 21.0799 27.6887 25.0147 23.7998 30.6329C20.8491 34.8955 19.208 39.8866 19.0184 45.0001L18.9998 44.9999H14.9998C14.4475 44.9999 13.9998 45.4477 13.9998 45.9999C13.9998 46.5522 14.4475 46.9999 14.9998 46.9999H18.9998L19.0185 46.9998C19.0542 47.965 19.142 48.9317 19.2826 49.896C20.2685 56.6573 23.7813 62.7933 29.1126 67.067C33.9186 70.9194 39.8801 73.0002 45.9998 73V79C45.9998 79.5522 46.4475 80 46.9998 80C47.552 80 47.9998 79.5522 47.9998 79V72.1602C47.9998 71.8825 47.8866 71.6313 47.7039 71.4501C47.5191 71.2464 47.2465 71.124 46.9516 71.1352C40.9194 71.3637 34.9938 69.4144 30.2677 65.626C25.3011 61.6446 22.0286 55.9283 21.1101 49.6295C20.1916 43.3307 21.6954 36.9178 25.3183 31.684C28.9412 26.4501 34.4137 22.7845 40.6326 21.4262C46.8514 20.0678 53.3539 21.1179 58.8292 24.3645C64.3044 27.6111 68.3451 32.8129 70.1365 38.9211C71.928 45.0292 71.3369 51.5895 68.4826 57.279C65.7665 62.693 61.1934 66.9355 55.6152 69.2429C55.144 69.4378 54.8994 69.9677 55.0769 70.4458C55.2544 70.9239 55.7868 71.169 56.2585 70.9753C62.2746 68.5044 67.2077 63.9389 70.1333 58.1072C71.8822 54.6212 72.8395 50.8307 72.9815 46.9998L72.9998 46.9999H76.9998C77.5521 46.9999 77.9998 46.5522 77.9998 45.9999C77.9998 45.4477 77.5521 44.9999 76.9998 44.9999H72.9998L72.9816 45.0001C72.8994 42.7817 72.5433 40.5651 71.9087 38.4013C69.9857 31.8447 65.6484 26.261 59.7711 22.776C55.8637 20.459 51.4688 19.1842 47 19.0185V9C47 8.44772 46.5523 8 46 8ZM56.9543 44.9999C56.7644 42.9202 55.9848 40.9248 54.6904 39.2565C53.0481 37.14 50.6899 35.6956 48.0583 35.1943C47.7067 35.1273 47.3534 35.0778 46.9998 35.0455V32.9999C46.9998 32.4477 46.552 31.9999 45.9998 31.9999C45.4475 31.9999 44.9998 32.4477 44.9998 32.9999V35.0455C43.3866 35.1928 41.8129 35.6957 40.3971 36.5337C38.0917 37.8981 36.3635 40.057 35.5367 42.6052C35.2827 43.3882 35.1191 44.1915 35.0453 44.9999H32.9998C32.4475 44.9999 31.9998 45.4477 31.9998 45.9999C31.9998 46.5522 32.4475 46.9999 32.9998 46.9999H35.0453C35.1507 48.154 35.4385 49.2932 35.9067 50.3737C36.9719 52.8317 38.8974 54.8166 41.3221 55.9558C42.4901 56.5046 43.7353 56.839 44.9998 56.9544V58.9999C44.9998 59.5522 45.4475 59.9999 45.9998 59.9999C46.552 59.9999 46.9998 59.5522 46.9998 58.9999V56.9544C47.6984 56.8907 48.3936 56.7598 49.0758 56.5611C51.3678 55.8935 53.3725 54.5011 54.7964 52.6044C55.0856 52.2193 54.962 51.678 54.5552 51.4202C54.1483 51.1625 53.6127 51.2864 53.3178 51.6672C52.1254 53.207 50.4721 54.3378 48.5881 54.8865C48.0657 55.0387 47.5342 55.1436 46.9998 55.2017V52.9999C46.9998 52.4477 46.552 51.9999 45.9998 51.9999C45.4475 51.9999 44.9998 52.4477 44.9998 52.9999V55.2016C43.9903 55.0919 42.9977 54.816 42.0638 54.3772C40.0236 53.4187 38.4033 51.7485 37.507 49.6802C37.1345 48.8206 36.8977 47.9167 36.7981 46.9999H38.9998C39.552 46.9999 39.9998 46.5522 39.9998 45.9999C39.9998 45.4477 39.552 44.9999 38.9998 44.9999H36.7981C36.8662 44.3733 36.9986 43.7511 37.1957 43.1434C37.8914 40.9993 39.3456 39.1827 41.2855 38.0346C42.4303 37.357 43.6979 36.9397 44.9998 36.7982V38.9999C44.9998 39.5522 45.4475 39.9999 45.9998 39.9999C46.552 39.9999 46.9998 39.5522 46.9998 38.9999V36.7982C47.2444 36.8248 47.4886 36.8612 47.7319 36.9076C49.9462 37.3294 51.9305 38.5448 53.3124 40.3257C54.3687 41.687 55.0175 43.3073 55.2015 44.9999H52.9998C52.4475 44.9999 51.9998 45.4477 51.9998 45.9999C51.9998 46.5522 52.4475 46.9999 52.9998 46.9999H58.9998C59.552 46.9999 59.9998 46.5522 59.9998 45.9999C59.9998 45.4477 59.552 44.9999 58.9998 44.9999H56.9543ZM47.9998 45.9999C47.9998 47.1045 47.1043 47.9999 45.9998 47.9999C44.8952 47.9999 43.9998 47.1045 43.9998 45.9999C43.9998 44.8954 44.8952 43.9999 45.9998 43.9999C47.1043 43.9999 47.9998 44.8954 47.9998 45.9999ZM35.6044 8.41098C36.1003 8.27385 36.6068 8.57795 36.7321 9.07698C36.8573 9.57602 36.5539 10.081 36.0582 10.2187C27.6693 12.5494 20.3549 17.7578 15.4078 24.9463C10.2843 32.391 8.05138 41.4484 9.12734 50.4214C10.2033 59.3944 14.5143 67.6671 21.2526 73.6894C27.9908 79.7117 36.6939 83.0703 45.7309 83.1358C54.768 83.2013 63.5188 79.9692 70.3436 74.0451C77.1684 68.1211 81.5988 59.9116 82.8047 50.9552C84.0105 41.9987 81.909 32.9099 76.894 25.3918C72.0515 18.1323 64.8134 12.8185 56.4592 10.3665C55.9655 10.2216 55.6694 9.71231 55.8019 9.21515C55.9343 8.71798 56.4452 8.42124 56.9391 8.56555C65.7314 11.1347 73.3499 16.7212 78.444 24.3578C83.7107 32.2531 85.9176 41.798 84.6512 51.2038C83.3849 60.6096 78.7322 69.2309 71.5649 75.4522C64.3977 81.6735 55.2079 85.0677 45.7174 84.999C36.227 84.9302 27.0873 81.4031 20.0109 75.0787C12.9346 68.7542 8.40729 60.0664 7.27736 50.6432C6.14743 41.22 8.49241 31.7082 13.8729 23.89C19.0771 16.3279 26.7758 10.8524 35.6044 8.41098Z" fill="#26394B"/>
</svg>
