<svg width="92" height="92" viewBox="0 0 92 92" fill="none" xmlns="http://www.w3.org/2000/svg">
<path d="M92 46C92 71.4051 71.4051 92 46 92C20.5949 92 0 71.4051 0 46C0 20.5949 20.5949 0 46 0C71.4051 0 92 20.5949 92 46Z" fill="#EEFAFA"/>
<path d="M50 30H56.5844V31.494C56.5844 36.8712 56.5779 42.2484 56.5974 47.6257C56.5987 47.9818 56.7249 48.3902 56.9214 48.6834C58.761 51.4309 60.6292 54.1611 62.4896 56.8952C64.8522 60.3684 67.2122 63.843 69.5799 67.3122C69.9364 67.833 70.1368 68.3646 69.8922 68.9953C69.6255 69.6835 69.1012 70.9995 68.21 70.9995H38.8026C38.6894 70.9995 38.5749 71.0021 38.4617 70.9955C37.5 70.5 37 69.5 37 69C36.7853 68.3747 37.1009 67.7795 37.4418 67.2801C41.6309 61.1303 45.5062 54.8305 49.6992 48.6834C49.9829 48.2683 50.1372 47.786 50.1372 47.2732C50.1242 41.9469 50 36.8203 50 31.494V30Z" fill="#22CBC1"/>
<path d="M53.0212 26.0054C54.5525 26.0054 56.0839 25.9905 57.6152 26.011C58.3358 26.0203 58.8785 26.7093 58.9818 27.6616C59.0851 28.6195 58.7425 29.5101 58.1174 29.8425C57.9382 29.9377 57.7368 29.99 57.5459 29.99C54.5159 29.9993 51.4846 30.0068 48.4546 29.99C47.6608 29.9863 47.1024 29.2879 47.0135 28.2927C46.9233 27.29 47.2907 26.4031 47.9485 26.1118C48.1604 26.0185 48.3971 26.0073 48.622 26.0054C50.088 25.9961 51.5552 26.0017 53.0212 26.0017V26.0054V26.0054Z" fill="#22CBC1"/>
<path fill-rule="evenodd" clip-rule="evenodd" d="M80.3495 64.4693C80.1058 64.9224 79.536 65.0783 79.0888 64.8238C78.6415 64.5694 78.4864 64.0011 78.7295 63.5477C82.8419 55.8778 84.1344 46.9962 82.3624 38.4556C80.5272 29.6105 75.531 21.7376 68.3092 16.311C61.0873 10.8843 52.1352 8.27599 43.1288 8.97442C34.1223 9.67285 25.6793 13.6301 19.3805 20.1053C13.0816 26.5804 9.35886 35.1294 8.90926 44.1517C8.45965 53.174 11.314 62.0507 16.9379 69.12C22.5618 76.1893 30.5696 80.9664 39.462 82.5567C48.0482 84.0924 56.8907 82.5552 64.4442 78.2328C64.8908 77.9773 65.4632 78.1167 65.7298 78.5567C65.9965 78.9967 65.8564 79.5706 65.4102 79.8267C57.4688 84.3838 48.1664 86.0063 39.1339 84.3909C29.7954 82.7207 21.3859 77.704 15.4798 70.28C9.57375 62.856 6.57618 53.5339 7.04834 44.059C7.5205 34.584 11.43 25.6061 18.0449 18.8061C24.6598 12.006 33.5264 7.85024 42.9847 7.11677C52.443 6.3833 61.8443 9.12246 69.4285 14.8214C77.0126 20.5203 82.2595 28.7882 84.1867 38.0771C86.0508 47.0615 84.6856 56.4052 80.3495 64.4693ZM41.9362 20.0001C41.9934 20.0001 42.0772 20.0027 42.1744 20.0162C43.2867 20.1653 43.964 21.3528 44.0371 21.4858C44.5454 22.406 44.6439 23.7199 44.0039 24.7046C43.4804 25.51 42.6157 25.859 42.432 25.9331L42.4272 25.9351C42.1983 26.0264 41.9974 26.0775 41.8524 26.107V26.5907C41.8524 27.4171 41.8527 28.2436 41.853 29.0701V29.0702V29.0703C41.8541 32.0473 41.8553 35.0247 41.8417 38.0013C41.8404 38.3922 41.9668 38.5494 42.3194 38.6676C43.8402 39.1807 45.2373 39.9411 46.5386 40.8841C46.8406 41.1031 47.0561 41.3651 46.987 41.7654C46.8792 42.3793 46.2525 42.5741 45.6644 42.2356C44.5441 41.5908 43.4131 40.9621 42.2702 40.3616C41.9891 40.2137 41.6792 40.1208 41.3702 40.0281C41.2639 39.9963 41.1577 39.9644 41.0527 39.9304C40.4207 39.7235 40.2611 39.5179 40.2611 38.8395C40.2602 36.167 40.2605 33.495 40.2608 30.8228V30.8226V30.8225V30.7966L40.2611 26.7747V26.1473H32.8712V26.7411V38.8557C32.8712 39.667 32.7541 39.8296 31.9891 40.0875C25.2033 42.3713 21.016 48.8893 21.696 56.1059C22.2841 62.3499 26.6323 67.5971 32.6264 69.2952C32.6667 69.3065 32.7072 69.3174 32.7477 69.3283L32.7487 69.3286C32.852 69.3563 32.9551 69.3841 33.0561 69.4187C33.5338 69.5853 33.7693 69.9937 33.6442 70.429C33.5258 70.8414 33.1227 71.0953 32.657 70.9663C31.9704 70.7769 31.2785 70.5808 30.6266 70.3C24.6524 67.7261 21.0812 63.2083 20.1592 56.7077C19.0774 49.0841 23.604 41.5531 30.7916 38.8167C31.1654 38.6743 31.2852 38.5077 31.2839 38.1047C31.2831 37.9245 31.2775 37.5231 31.2696 36.9684V36.9683C31.235 34.5131 31.1581 29.0557 31.2785 26.4926C31.2892 26.2548 31.3012 26.0627 31.3091 25.9445C31.2094 25.9311 31.0683 25.9042 30.9047 25.8505C30.1369 25.5952 29.7165 24.9961 29.5754 24.7919C29.1962 24.2397 29.0153 23.5573 29.0645 22.8144C29.0805 22.5672 29.1364 22.2301 29.288 21.8593C29.6247 21.0318 30.3684 20.2271 31.3091 20.0377C31.4249 20.0148 31.5207 20.0054 31.5766 20.0014H41.9375L41.9362 20.0001ZM36.7803 21.6094C36.2774 21.6094 35.7745 21.6091 35.2715 21.6088C34.2656 21.6082 33.2597 21.6076 32.2538 21.6094C31.2812 21.6121 30.6439 22.1965 30.6492 23.0643C30.6558 23.9093 31.2892 24.5017 32.2285 24.503C35.2462 24.5098 38.2639 24.5098 41.2816 24.503C42.2169 24.5017 42.8569 23.9052 42.8636 23.0643C42.8702 22.2005 42.2276 21.6108 41.2563 21.6081C40.2612 21.6054 39.2668 21.6063 38.2721 21.6072H38.272H38.2718H38.2717L38.2687 21.6072C37.7722 21.6076 37.2757 21.6081 36.779 21.6081L36.7803 21.6094ZM24.335 53.9038C24.7561 49.5075 26.7126 46.0459 30.3341 43.6033C30.8251 43.2722 31.2784 43.3225 31.5507 43.7178C31.8306 44.1242 31.6998 44.6072 31.1927 44.9471C28.652 46.6491 26.9707 48.9888 26.2328 52.0085C26.0627 52.7043 25.985 53.4278 25.9088 54.1432C25.835 54.8318 25.5799 55.189 25.0817 55.1775C24.5638 55.1653 24.2943 54.7633 24.3295 54.0545L24.335 53.9038ZM47.8999 28.0001C47.8999 28.6076 48.3924 29.1001 48.9999 29.1001H49.4185H56.6744H56.9999C57.6075 29.1001 58.0999 28.6076 58.0999 28.0001C58.0999 27.3925 57.6075 26.9001 56.9999 26.9001H48.9999C48.3924 26.9001 47.8999 27.3925 47.8999 28.0001ZM59.8999 28.0001C59.8999 29.405 58.9008 30.5766 57.5744 30.8432V47.5497L59.2331 49.9948C59.5122 50.4061 59.4049 50.9658 58.9936 51.2448C58.5822 51.5239 58.0226 51.4167 57.7435 51.0053L55.9296 48.3314L55.7744 48.1026V47.8261V30.9001H50.3185V47.8261V48.0982L50.1679 48.3247L37.8509 66.8368C36.9223 68.2325 37.9229 70.1001 39.5993 70.1001H67.1798C68.8866 70.1001 69.8804 68.1719 68.8902 66.7817L62.7436 58.1526C62.4553 57.7478 62.5497 57.1858 62.9545 56.8974C63.3594 56.6091 63.9214 56.7035 64.2097 57.1083L70.3563 65.7374C72.1953 68.3192 70.3496 71.9001 67.1798 71.9001H39.5993C36.486 71.9001 34.6278 68.4317 36.3523 65.8397L48.5185 47.5541V30.8603C47.146 30.631 46.0999 29.4377 46.0999 28.0001C46.0999 26.3984 47.3983 25.1001 48.9999 25.1001H56.9999C58.6016 25.1001 59.8999 26.3984 59.8999 28.0001Z" fill="#26394B"/>
</svg>
