<svg width="78" height="78" viewBox="0 0 78 78" fill="none" xmlns="http://www.w3.org/2000/svg">
<path d="M37.4964 0.03C37.8064 0.06 38.0864 0.1 38.3264 0.13C38.6864 0.18 39.1464 0.25 39.7264 0.39C40.0164 0.46 40.2364 0.51 40.5264 0.61C40.8464 0.72 41.2264 0.86 41.6364 1.1C42.1964 1.42 42.6364 1.87 42.9264 2.45C43.1064 2.81 43.2464 3.2 43.3264 3.59C43.3964 3.96 43.3664 4.34 43.3464 4.72C43.3064 5.48 43.0064 6.14 42.5164 6.71C42.0664 7.24 41.5564 7.72 41.1364 8.27C40.7564 8.78 40.4464 9.36 40.1264 9.92C39.8664 10.36 39.6264 10.82 39.4064 11.28C39.2264 11.66 39.0564 12.06 38.9164 12.46C38.5964 13.41 38.1464 14.27 37.3364 14.88C37.0264 15.11 36.6064 15.2 36.2564 15.39C35.8564 15.61 35.4364 15.55 35.0164 15.55C31.8764 15.55 28.7364 15.55 25.5964 15.56C24.8864 15.56 24.2264 15.43 23.6164 15.07C22.9664 14.68 22.4464 14.17 22.1364 13.46C21.9464 13.03 21.7564 12.6 21.5464 12.19C21.3264 11.77 21.0864 11.36 20.8464 10.95C20.6264 10.57 20.4064 10.19 20.1564 9.83C19.8064 9.33 19.4464 8.82 19.0564 8.36C18.5264 7.73 17.9364 7.16 17.4064 6.54C17.1064 6.19 16.9464 5.75 16.8064 5.31C16.6364 4.8 16.6664 4.29 16.7064 3.78C16.7364 3.34 16.8964 2.94 17.1064 2.54C17.3164 2.13 17.5764 1.77 17.9264 1.48C18.3164 1.15 18.7364 0.89 19.2264 0.75C19.2264 0.75 20.1264 0.37 21.2264 0.19C21.4864 0.15 21.7764 0.11 21.7764 0.11C22.0364 0.08 22.2664 0.06 22.4364 0.05C22.7064 0.02 23.0064 0.01 23.3264 0C23.6964 0 24.0364 0.01 24.3464 0.04C24.4364 0.04 24.5664 0.06 24.7264 0.08C25.0164 0.11 25.1564 0.13 25.3364 0.16C25.6164 0.21 25.8264 0.26 25.9664 0.29C26.1964 0.35 26.4264 0.4 26.5664 0.46C26.9764 0.63 27.3964 0.81 27.7864 1.03C28.2664 1.3 28.7264 1.61 29.1864 1.92C29.5864 2.19 29.9964 2.41 30.4864 2.14C30.7464 1.99 30.9964 1.81 31.2564 1.65C31.7264 1.38 32.1864 1.08 32.6764 0.85C32.9764 0.71 33.4664 0.48 34.1364 0.3C34.5864 0.18 34.9564 0.12 35.1664 0.09C35.3964 0.06 35.6064 0.04 35.7664 0.03C36.0564 0.01 36.3764 0 36.6964 0C36.9864 0 37.2564 0.01 37.5164 0.03H37.4964ZM30.3264 12.95C31.9264 12.95 33.5364 12.95 35.1364 12.95C35.5064 12.95 35.8264 12.85 36.0164 12.53C36.1964 12.22 36.3264 11.89 36.4764 11.56C36.6464 11.16 36.7864 10.74 36.9764 10.35C37.1964 9.88 37.4364 9.43 37.6964 8.98C38.0964 8.27 38.4764 7.54 38.9464 6.88C39.3464 6.31 39.8364 5.8 40.3064 5.29C40.6264 4.94 40.8264 4.58 40.7764 4.09C40.7264 3.66 40.3664 3.26 39.9664 3.18C39.7364 3.13 39.5164 3.05 39.2864 3C38.6464 2.86 38.0164 2.69 37.3764 2.6C36.8964 2.54 36.3964 2.56 35.9164 2.6C35.5664 2.62 35.2064 2.7 34.8664 2.79C34.5064 2.89 34.1464 3.03 33.7964 3.19C33.4664 3.35 33.1364 3.52 32.8364 3.74C32.1564 4.25 31.4464 4.68 30.6064 4.83C30.0064 4.93 29.3964 4.86 28.8164 4.67C28.5764 4.59 28.3364 4.48 28.1164 4.35C27.7664 4.13 27.4664 3.85 27.1064 3.65C26.6764 3.41 26.2364 3.18 25.7764 3.02C25.2764 2.84 24.7564 2.68 24.2364 2.61C23.3464 2.49 22.4664 2.63 21.5764 2.76C21.5364 2.76 21.5064 2.78 21.4664 2.79C21.1864 2.87 20.9164 2.94 20.6364 3.03C20.3464 3.12 20.0564 3.2 19.7864 3.33C19.1664 3.65 19.0964 4.54 19.5364 5.02C19.7464 5.25 19.9764 5.46 20.1864 5.69C20.6464 6.22 21.1064 6.74 21.5364 7.29C21.9064 7.77 22.2564 8.26 22.5864 8.77C22.8964 9.24 23.1764 9.73 23.4364 10.23C23.7364 10.8 24.0164 11.39 24.2964 11.98C24.5664 12.57 24.7864 12.97 25.6564 12.96C27.2164 12.93 28.7664 12.96 30.3264 12.96V12.95Z" fill="#26394B"/>
<path d="M38.7463 19.49H38.3263C33.3363 19.49 28.3463 19.49 23.3463 19.49C22.8363 19.49 22.4063 19.36 22.1163 18.92C21.8763 18.56 21.7563 18.21 21.9563 17.75C22.2263 17.14 22.6563 16.89 23.2963 16.89C28.4063 16.89 33.5163 16.89 38.6363 16.89C38.8363 16.89 39.0363 16.98 39.2363 17.01C39.3463 17.03 39.4963 17.05 39.5863 17C40.1363 16.68 41.0263 17.05 41.1963 17.64C41.2563 17.86 41.3363 18.09 41.3363 18.32C41.3563 19.19 41.3463 20.05 41.3363 20.92C41.3363 21.1 41.3863 21.23 41.5363 21.34C41.9763 21.7 42.4663 21.94 43.0063 22.11C43.6463 22.31 44.2863 22.29 44.9063 22.19C45.6063 22.08 46.2563 21.74 46.7663 21.23C47.1663 20.83 47.6263 20.76 48.1363 20.85C48.5363 20.93 48.7763 21.21 48.9463 21.58C49.3263 22.38 48.7263 23.04 48.2063 23.43C47.9563 23.62 47.7063 23.81 47.4263 23.96C47.0663 24.16 46.6963 24.34 46.3163 24.5C46.0363 24.62 45.7363 24.69 45.4463 24.78C45.3763 24.8 45.3063 24.8 45.2263 24.81C44.8963 24.84 44.5763 24.9 44.2463 24.91C44.0163 24.91 43.7963 24.85 43.5663 24.85C42.7563 24.84 41.9963 24.63 41.2963 24.23C40.8963 24 40.5063 23.74 40.1063 23.5C40.0163 23.45 39.8963 23.43 39.7963 23.43C39.3263 23.43 38.8563 23.43 38.3863 23.43C33.8463 23.43 29.3063 23.43 24.7663 23.43C24.1263 23.43 23.6163 23.2 23.2663 22.65C23.0963 22.39 23.2263 21.57 23.4563 21.28C23.7463 20.92 24.1063 20.82 24.5463 20.82C26.1363 20.83 27.7363 20.82 29.3263 20.82H38.3663C38.6163 20.82 38.7463 20.69 38.7463 20.44V19.49Z" fill="#26394B"/>
<path d="M57.3863 42.28C57.1463 42.35 56.9363 42.43 56.7163 42.46C55.9563 42.57 55.2463 42.84 54.5563 43.12C53.6463 43.49 52.7963 43.99 52.1963 44.8C52.0263 45.04 51.9663 45.36 51.8363 45.64C51.5863 46.21 51.7063 46.8 51.7063 47.38C51.6963 50.76 51.7063 54.15 51.7063 57.53V57.9C51.4263 57.83 51.1863 57.77 50.9563 57.7C50.6763 57.62 50.4063 57.48 50.1163 57.44C49.4663 57.35 48.8063 57.27 48.1563 57.24C47.5363 57.22 46.9063 57.23 46.2963 57.31C45.7663 57.38 45.2563 57.58 44.7363 57.71C44.0863 57.87 43.4963 58.15 42.9163 58.46C41.8563 59.03 40.9163 59.75 40.1363 60.67C39.7263 61.15 39.3263 61.65 38.9863 62.19C38.7163 62.62 38.5163 63.09 38.3163 63.56C38.1063 64.08 37.9063 64.61 37.7563 65.14C37.6563 65.49 37.5863 65.87 37.5663 66.24C37.5363 67.13 37.5263 68.02 37.5663 68.91C37.5863 69.42 37.7263 69.93 37.8163 70.44C37.8763 70.77 37.9563 71.09 38.0263 71.44C37.9063 71.45 37.58 74 37.5 74C29.49 74 22.01 74.02 14 74C13.6 74 12.9163 71.39 12.5463 71.26C12.0663 71.08 11.6263 70.81 11.1863 70.55C10.1463 69.94 9.32633 69.1 8.61633 68.13C8.17633 67.53 7.68633 66.97 7.29633 66.35C6.88633 65.7 6.53633 65.01 6.18633 64.32C5.90633 63.78 5.65633 63.24 5.41633 62.68C5.19633 62.16 4.99633 61.62 4.80633 61.09C4.63633 60.61 4.48633 60.12 4.35633 59.62C4.22633 59.13 4.11633 58.64 4.03633 58.15C3.91633 57.47 3.85633 56.78 3.72633 56.1C3.52633 55.06 3.60633 54.01 3.61633 52.96C3.61633 52.29 3.70633 51.62 3.78633 50.96C3.85633 50.4 3.94633 49.84 4.06633 49.29C4.17633 48.79 4.33633 48.3 4.46633 47.8C4.53633 47.55 4.58633 47.29 4.66633 47.04C4.77633 46.69 4.89633 46.34 5.02633 46C5.19633 45.56 5.37633 45.12 5.57633 44.69C5.78633 44.21 5.99633 43.74 6.23633 43.27C6.50633 42.76 6.78633 42.25 7.10633 41.77C7.60633 41.03 8.09633 40.28 8.66633 39.59C9.32633 38.79 10.0263 38.01 10.7763 37.29C11.4263 36.66 12.1463 36.11 12.8563 35.55C13.5363 35.01 14.2363 34.5 14.9363 33.98C15.4863 33.57 16.0363 33.17 16.5863 32.77C17.1463 32.36 17.7063 31.95 18.2663 31.54C18.8263 31.13 19.3863 30.73 19.9363 30.33C20.4963 29.93 21.0363 29.5 21.6063 29.12C22.2363 28.7 22.8763 28.28 23.5963 27.99C24.3163 27.7 25.0663 27.52 25.8263 27.38C26.6963 27.21 27.5663 27.28 28.4363 27.27C31.3163 27.25 34.2063 27.27 37.0863 27.27C37.8163 27.27 38.5063 27.43 39.1863 27.68C39.6163 27.84 40.0563 27.98 40.4563 28.19C40.9263 28.44 41.3763 28.75 41.8263 29.03C42.2463 29.3 42.6663 29.58 43.0863 29.86C43.5363 30.16 43.9763 30.48 44.4263 30.78C45.1063 31.24 45.7863 31.69 46.4663 32.15C47.2063 32.65 47.9363 33.17 48.6663 33.67C49.3963 34.17 50.1263 34.67 50.8563 35.16C51.7163 35.73 52.5063 36.38 53.2763 37.08C54.0363 37.77 54.7263 38.52 55.3863 39.3C55.8063 39.79 56.1763 40.32 56.5663 40.84C56.8163 41.18 57.0663 41.54 57.2963 41.9C57.3563 41.99 57.3563 42.12 57.3963 42.26L57.3863 42.28ZM28.0963 33.76C27.3963 33.84 26.8163 33.91 26.2263 33.97C26.1963 33.97 26.1763 33.97 26.1463 33.99C25.6563 34.13 25.1563 34.26 24.6663 34.42C24.3263 34.53 23.9863 34.64 23.6663 34.78C23.2863 34.94 22.9163 35.14 22.5363 35.32C22.1063 35.53 21.6663 35.72 21.2563 35.98C20.5863 36.4 19.9363 36.85 19.3063 37.33C18.7163 37.77 18.1263 38.24 17.5863 38.74C16.4163 39.83 15.3163 40.99 14.3763 42.29C14.0163 42.79 13.6663 43.29 13.3163 43.8C13.1063 44.11 12.8963 44.41 12.7163 44.73C12.4763 45.16 12.2663 45.61 12.0563 46.06C11.7663 46.68 11.4563 47.31 11.2063 47.95C10.9963 48.48 10.8563 49.04 10.7063 49.6C10.5563 50.16 10.3863 50.72 10.2963 51.29C10.1963 51.89 10.1663 52.51 10.1463 53.13C10.1463 53.38 10.1763 53.68 10.3063 53.89C10.5663 54.33 10.9563 54.6 11.5263 54.56C12.2163 54.51 12.6863 54.07 12.7263 53.37C12.7663 52.78 12.8363 52.19 12.8863 51.59C12.8863 51.56 12.8863 51.54 12.8963 51.51C12.9763 51.19 13.0663 50.86 13.1463 50.54C13.1963 50.33 13.2563 50.12 13.3163 49.92C13.3963 49.66 13.4663 49.41 13.5663 49.16C13.7263 48.73 13.9063 48.31 14.0863 47.89C14.2463 47.53 14.3963 47.16 14.5863 46.81C14.8063 46.4 15.0563 46.01 15.3063 45.62C15.6763 45.04 16.0363 44.46 16.4363 43.91C16.7863 43.44 17.1763 42.99 17.5763 42.56C18.1263 41.96 18.6863 41.37 19.2663 40.81C19.7663 40.33 20.2963 39.9 20.8263 39.46C21.1163 39.22 21.4363 39.03 21.7463 38.82C22.0863 38.59 22.4263 38.35 22.7863 38.14C23.2063 37.9 23.6363 37.68 24.0763 37.48C24.4863 37.29 24.9163 37.13 25.3463 36.98C25.7463 36.84 26.1363 36.67 26.5463 36.59C27.1263 36.49 27.7263 36.45 28.3163 36.41C29.2963 36.34 29.8063 35.63 29.5963 34.71C29.5163 34.39 29.3163 34.06 28.9263 33.96C28.6163 33.88 28.3063 33.82 28.0963 33.77V33.76Z" fill="#22CBC1"/>
<path d="M40.0863 67.58C39.9863 63.34 43.7063 59.67 48.0563 59.8C52.2863 59.93 55.6963 63.44 55.6363 67.66C55.5763 71.94 52.1063 75.43 47.7463 75.38C43.5363 75.33 40.0263 71.88 40.0863 67.58Z" fill="white"/>
<path d="M75.1063 49.0801C75.1063 49.1801 75.1263 49.3001 75.1263 49.4101C75.1263 50.5601 75.1063 51.7201 75.1363 52.8701C75.1563 53.3401 74.8563 53.5401 74.5663 53.7401C74.2563 53.9601 73.9063 54.1301 73.5563 54.2901C73.2463 54.4401 72.9163 54.5501 72.5863 54.6701C72.1563 54.8201 71.7163 54.9701 71.2863 55.1001C71.0663 55.1701 70.8463 55.2101 70.6263 55.2501C70.2963 55.3101 69.9663 55.3701 69.6263 55.4301C69.1163 55.5201 68.6163 55.6301 68.0963 55.7001C67.7563 55.7501 67.4163 55.7001 67.0763 55.7501C65.8463 55.9301 64.6163 55.9001 63.3863 55.8601C62.7363 55.8401 62.0863 55.7901 61.4363 55.7101C60.9663 55.6601 60.5063 55.5401 60.0463 55.4601C59.6963 55.4001 59.3463 55.3501 58.9963 55.2801C58.6563 55.2001 58.3263 55.1001 57.9863 55.0001C57.5963 54.8901 57.2063 54.7901 56.8163 54.6701C56.5063 54.5701 56.2063 54.4601 55.9163 54.3201C55.5563 54.1501 55.1963 53.9501 54.8463 53.7501C54.4963 53.5501 54.2663 53.2901 54.2763 52.8301C54.3063 51.7401 54.2863 50.6501 54.2763 49.5701C54.2763 49.0301 54.4063 49.0801 54.8363 49.2301C55.0963 49.3201 55.3463 49.4101 55.6063 49.4901C55.8163 49.5501 56.0163 49.6101 56.2263 49.6601C56.6263 49.7601 57.0363 49.8701 57.4463 49.9401C58.0663 50.0601 58.6863 50.1801 59.3163 50.2601C60.1963 50.3701 61.0763 50.4501 61.9563 50.5401C63.3263 50.6901 64.7063 50.7201 66.0863 50.6701C66.8963 50.6401 67.6963 50.5801 68.5063 50.5001C69.2363 50.4301 69.9563 50.3401 70.6863 50.2201C71.4563 50.0901 72.2163 49.9401 72.9763 49.7401C73.6863 49.5501 74.3663 49.2901 75.0863 49.0601L75.1063 49.0801Z" fill="white"/>
<path d="M75.1264 56.45V56.81C75.1264 58.05 75.0964 59.28 75.1464 60.52C75.1664 61.01 74.9564 61.3199 74.5964 61.5299C74.0864 61.8199 73.5464 62.0799 73.0064 62.2999C72.4764 62.5199 71.9364 62.6999 71.3864 62.8699C71.0764 62.9699 70.7464 62.9999 70.4264 63.07C70.0464 63.15 69.6764 63.26 69.2964 63.33C68.9264 63.4 68.5564 63.45 68.1864 63.5C66.6264 63.71 65.0664 63.71 63.5064 63.66C62.6464 63.63 61.7964 63.5 60.9464 63.4C60.4764 63.35 60.0064 63.2899 59.5364 63.2099C59.1864 63.1499 58.8464 63.0299 58.4964 62.9399C58.2564 62.8799 58.0164 62.8399 57.7864 62.7599C57.4164 62.6299 56.9864 62.62 56.7364 62.24C56.5464 61.95 56.3364 61.6599 56.1364 61.3699C55.6964 60.6899 55.0964 60.15 54.5164 59.59C54.4164 59.49 54.3264 59.33 54.3164 59.2C54.2964 58.39 54.3164 57.58 54.3164 56.77C54.3164 56.54 54.4764 56.4499 54.6764 56.5499C54.9264 56.6799 55.1664 56.8299 55.4264 56.9399C55.7464 57.0699 56.0864 57.17 56.4164 57.27C56.8964 57.42 57.3764 57.57 57.8564 57.7C58.0764 57.76 58.2964 57.8 58.5164 57.84C58.8864 57.91 59.2564 57.9599 59.6164 58.0299C60.1564 58.1199 60.6864 58.2099 61.2264 58.2999C61.2764 58.2999 61.3164 58.32 61.3664 58.32C63.0764 58.45 64.7764 58.55 66.4964 58.45C67.0364 58.42 67.5764 58.38 68.1164 58.32C68.8264 58.23 69.5364 58.13 70.2464 58C70.7864 57.9 71.3164 57.73 71.8464 57.59C72.2764 57.48 72.7064 57.4 73.1264 57.25C73.6764 57.06 74.2164 56.8199 74.7664 56.5999C74.8764 56.5599 74.9764 56.52 75.1464 56.45H75.1264Z" fill="white"/>
<path d="M57.8363 70.49C58.2163 68.92 58.4163 67.39 58.0563 65.75C58.4163 65.79 58.7163 65.83 59.0063 65.87C59.0763 65.87 59.1463 65.92 59.2163 65.92C59.9263 65.99 60.6463 66.02 61.3463 66.12C63.2663 66.38 65.1863 66.23 67.1063 66.23C67.7663 66.23 68.4163 66.14 69.0763 66.06C69.7463 65.98 70.4163 65.89 71.0763 65.77C71.6963 65.66 72.3063 65.5 72.9263 65.35C73.3563 65.25 73.7863 65.14 74.2063 65.02C74.3863 64.97 74.5463 64.88 74.7163 64.81C74.8363 64.76 74.9463 64.73 75.1063 64.67C75.1063 64.81 75.1263 64.91 75.1263 65.01C75.1263 66.13 75.1063 67.24 75.1363 68.36C75.1463 68.8 74.9863 69.09 74.6563 69.28C74.2563 69.52 73.8363 69.72 73.4063 69.92C72.9563 70.13 72.4963 70.32 72.0263 70.49C71.7763 70.58 71.5063 70.61 71.2363 70.68C70.9363 70.75 70.6463 70.84 70.3463 70.91C70.0563 70.98 69.7663 71.05 69.4663 71.11C69.1363 71.17 68.8063 71.23 68.4663 71.27C66.4663 71.49 64.4663 71.5 62.4663 71.41C61.9863 71.39 61.4963 71.34 61.0163 71.27C60.4263 71.18 59.8363 71.07 59.2463 70.95C58.8363 70.87 58.4363 70.76 58.0363 70.65C57.9463 70.62 57.8663 70.53 57.8163 70.49H57.8363Z" fill="white"/>
<path d="M28.0964 33.76C28.3064 33.81 28.6164 33.87 28.9264 33.95C29.3164 34.05 29.5164 34.37 29.5964 34.7C29.8064 35.62 29.2964 36.33 28.3164 36.4C27.7264 36.44 27.1264 36.48 26.5464 36.58C26.1364 36.65 25.7364 36.82 25.3464 36.97C24.9164 37.12 24.4964 37.28 24.0764 37.47C23.6364 37.67 23.2064 37.89 22.7864 38.13C22.4264 38.34 22.0864 38.58 21.7464 38.81C21.4364 39.02 21.1164 39.22 20.8264 39.45C20.2964 39.89 19.7664 40.32 19.2664 40.8C18.6864 41.36 18.1264 41.95 17.5764 42.55C17.1764 42.98 16.7864 43.43 16.4364 43.9C16.0364 44.45 15.6664 45.03 15.3064 45.61C15.0564 46 14.8064 46.39 14.5864 46.8C14.3964 47.15 14.2464 47.51 14.0864 47.88C13.9064 48.3 13.7264 48.72 13.5664 49.15C13.4664 49.4 13.3964 49.66 13.3164 49.92C13.2564 50.13 13.2064 50.34 13.1464 50.54C13.0664 50.86 12.9764 51.19 12.8964 51.51C12.8964 51.54 12.8864 51.56 12.8864 51.59C12.8264 52.18 12.7564 52.77 12.7264 53.37C12.6864 54.06 12.2264 54.51 11.5264 54.56C10.9564 54.6 10.5764 54.33 10.3064 53.89C10.1764 53.68 10.1364 53.38 10.1464 53.13C10.1664 52.52 10.2064 51.9 10.2964 51.29C10.3864 50.72 10.5564 50.16 10.7064 49.6C10.8564 49.05 10.9964 48.49 11.2064 47.95C11.4564 47.31 11.7664 46.69 12.0564 46.06C12.2664 45.61 12.4764 45.16 12.7164 44.73C12.8964 44.41 13.1064 44.1 13.3164 43.8C13.6664 43.29 14.0164 42.79 14.3764 42.29C15.3164 40.99 16.4264 39.84 17.5864 38.74C18.1264 38.23 18.7064 37.77 19.3064 37.33C19.9364 36.86 20.5864 36.41 21.2564 35.98C21.6564 35.72 22.1064 35.54 22.5364 35.32C22.9064 35.13 23.2864 34.94 23.6664 34.78C23.9964 34.64 24.3264 34.52 24.6664 34.42C25.1564 34.27 25.6564 34.13 26.1464 33.99C26.1764 33.99 26.1964 33.98 26.2264 33.97C26.8064 33.9 27.3864 33.84 28.0964 33.76Z" fill="#26394B"/>
<path fill-rule="evenodd" clip-rule="evenodd" d="M45.4864 77.7C45.8364 77.78 46.1464 77.85 46.3764 77.89L46.3664 77.87C46.7964 77.93 47.2864 77.97 47.8264 77.97C48.2464 77.97 48.6264 77.95 48.9764 77.91C49.0118 77.9053 49.0494 77.9006 49.0891 77.8956C49.2177 77.8795 49.3683 77.8606 49.5364 77.83C49.7064 77.81 50.0264 77.75 50.4064 77.66C50.4271 77.6546 50.4505 77.6485 50.4763 77.6418C50.6866 77.5873 51.0567 77.4914 51.4664 77.34C52.0494 77.1337 52.4635 76.8952 52.8458 76.675C52.8897 76.6498 52.9331 76.6247 52.9764 76.6C53.4264 76.34 53.8664 76.06 54.2564 75.73C55.1464 74.98 55.9764 74.17 56.5664 73.15C56.6264 73.05 56.7364 72.88 56.9564 72.98C57.2064 73.1 57.4864 73.18 57.7664 73.25C57.9608 73.2954 58.1595 73.3324 58.3569 73.3691C58.4641 73.389 58.5708 73.4089 58.6764 73.43C58.9464 73.48 59.2189 73.5275 59.4914 73.575C59.7639 73.6225 60.0364 73.67 60.3064 73.72C60.3564 73.73 60.3964 73.73 60.4464 73.73C60.6253 73.7569 60.8034 73.7882 60.9811 73.8194C61.3992 73.8929 61.8153 73.966 62.2364 73.98C62.3931 73.9849 62.5498 73.9899 62.7065 73.9949C64.8197 74.0626 66.9317 74.1303 69.0264 73.73C69.2997 73.6763 69.573 73.6325 69.8453 73.589C70.1809 73.5353 70.5152 73.4818 70.8464 73.41C71.4464 73.28 72.0464 73.13 72.6264 72.95C73.093 72.8083 73.5597 72.632 74.0264 72.4556C74.1197 72.4203 74.213 72.385 74.3064 72.35C75.0864 72.05 75.8064 71.65 76.4464 71.12C77.2464 70.46 77.7464 69.68 77.7264 68.58C77.6984 66.7947 77.7047 65.0045 77.711 63.2163C77.7137 62.4503 77.7164 61.6847 77.7164 60.92C77.7164 59.2863 77.7153 57.6537 77.7141 56.0215C77.7119 52.7582 77.7097 49.4963 77.7164 46.23C77.7264 45.45 77.4164 44.82 76.8564 44.3C76.4364 43.9 75.9564 43.58 75.4064 43.37C75.211 43.2945 75.0196 43.2052 74.8286 43.1162C74.5894 43.0046 74.351 42.8934 74.1064 42.81C73.7731 42.6888 73.4225 42.6078 73.0765 42.5278C72.9658 42.5022 72.8555 42.4767 72.7464 42.45C72.577 42.4105 72.4068 42.3686 72.236 42.3265C71.8019 42.2196 71.3642 42.1118 70.9264 42.04C70.2017 41.9127 69.4674 41.8334 68.7423 41.755L68.6964 41.75C68.0664 41.68 67.4364 41.62 66.8064 41.59C64.7964 41.51 60.7964 41.75 60.7964 41.75C60.7964 41.75 60.6164 41.77 60.4164 41.77C60.2564 41.77 60.1864 41.76 60.1364 41.72C60.1064 41.69 60.0864 41.66 60.0764 41.64C60.0764 41.64 59.4664 40.62 59.1464 40.12C59.0804 40.0187 59.0147 39.917 58.949 39.8154C58.6061 39.2851 58.2624 38.7535 57.8764 38.25C57.6451 37.9417 57.3823 37.658 57.119 37.3739C56.9383 37.1788 56.7574 36.9836 56.5864 36.78C55.6464 35.65 54.5464 34.68 53.3864 33.78C53.0997 33.5534 52.7953 33.3534 52.4908 33.1534C52.3386 33.0534 52.1864 32.9534 52.0364 32.85C51.8172 32.6958 51.5997 32.5366 51.3818 32.3772C51.0629 32.1438 50.7432 31.9099 50.4164 31.69C50.0564 31.445 49.6889 31.21 49.3214 30.975C48.9539 30.74 48.5864 30.505 48.2264 30.26C47.8627 30.0194 47.5022 29.7663 47.1412 29.513C46.8571 29.3135 46.5727 29.1138 46.2864 28.92C45.962 28.6941 45.6344 28.4783 45.3072 28.2629C45.0695 28.1063 44.832 27.9499 44.5964 27.79C44.2775 27.5745 43.9627 27.3529 43.6483 27.1316C43.2626 26.86 42.8775 26.589 42.4864 26.33C42.2392 26.1652 41.9649 26.0344 41.6914 25.904C41.6329 25.8761 41.5745 25.8482 41.5164 25.82C41.4221 25.7752 41.3278 25.7294 41.2334 25.6834C40.9273 25.5344 40.6197 25.3847 40.3064 25.27C39.9064 25.13 39.4764 25.02 39.0564 24.93C38.9476 24.9079 38.8385 24.8841 38.729 24.8602C38.2949 24.7657 37.8556 24.67 37.4164 24.67C34.4364 24.65 31.4464 24.65 28.4664 24.67C28.2269 24.67 27.9868 24.6616 27.7466 24.6531C27.0437 24.6284 26.3395 24.6037 25.6464 24.79C25.3838 24.8557 25.1144 24.8876 24.8494 24.9191C24.7915 24.926 24.7338 24.9328 24.6764 24.94C24.035 25.0225 23.4439 25.2477 22.8418 25.4771C22.7867 25.4981 22.7316 25.5191 22.6764 25.54C21.9064 25.83 21.2164 26.25 20.5364 26.69C20.1009 26.9727 19.6771 27.2845 19.2561 27.5943C19.126 27.6901 18.9962 27.7856 18.8664 27.88C18.3065 28.2799 17.7466 28.6899 17.1867 29.0998L17.1864 29.1C16.9114 29.305 16.6339 29.5075 16.3564 29.71C16.0789 29.9125 15.8014 30.115 15.5264 30.32C14.9665 30.7199 14.4066 31.1298 13.8467 31.5398L13.8464 31.54C13.716 31.6349 13.5844 31.7303 13.4523 31.8261C13.0272 32.1344 12.596 32.4472 12.1764 32.76C11.6664 33.14 11.1564 33.52 10.6664 33.93C10.5226 34.0501 10.3777 34.1695 10.2327 34.2889C9.64097 34.7762 9.04642 35.2659 8.51637 35.82C7.55637 36.84 6.61637 37.88 5.82637 39.05C5.79657 39.0937 5.76674 39.1374 5.73691 39.181C5.18609 39.9876 4.63274 40.7978 4.19637 41.68C4.09198 41.8983 3.97184 42.1075 3.85196 42.3163C3.71918 42.5476 3.58673 42.7783 3.47637 43.02C3.18637 43.67 2.91637 44.33 2.67637 45C2.4617 45.6057 2.27055 46.2172 2.08037 46.8256C2.02249 47.0108 1.9647 47.1957 1.90637 47.38C1.85471 47.5276 1.81938 47.6861 1.78432 47.8435C1.77188 47.8993 1.75947 47.955 1.74637 48.01C1.72739 48.0821 1.70805 48.1543 1.68869 48.2265C1.60605 48.5346 1.52308 48.844 1.46637 49.16C1.38637 49.59 1.32637 50.01 1.27637 50.44C1.24959 50.6543 1.21837 50.8677 1.18721 51.0807C1.11367 51.5835 1.04042 52.0843 1.02637 52.59C0.97637 54.26 0.96637 55.94 1.28637 57.59C1.34016 57.853 1.37251 58.1195 1.40479 58.3853C1.42651 58.5643 1.4482 58.743 1.47637 58.92C1.51637 59.2 1.57637 59.47 1.64637 59.74C1.69437 59.938 1.75317 60.136 1.81197 60.334C1.85117 60.466 1.89037 60.598 1.92637 60.73C1.96304 60.8567 1.99637 60.9845 2.0297 61.1122C2.09637 61.3678 2.16304 61.6233 2.25637 61.87C2.44049 62.3638 2.64562 62.8576 2.84832 63.3455C2.88782 63.4406 2.92723 63.5354 2.96637 63.63C2.99717 63.7048 3.02776 63.7796 3.05832 63.8544C3.23612 64.2892 3.41304 64.7219 3.62637 65.14C3.95637 65.8 4.29637 66.45 4.68637 67.07C5.28637 68.02 5.90637 68.96 6.61637 69.83C7.30637 70.68 8.04637 71.46 8.89637 72.14C9.45637 72.58 10.0364 73 10.6964 73.28C10.9311 73.3798 11.1694 73.4692 11.407 73.5585C11.5742 73.6212 11.7411 73.6839 11.9064 73.75C12.3764 73.94 12.8564 74.03 13.3664 74.03C13.6031 74.0333 13.8398 74.0378 14.0765 74.0422C14.5498 74.0511 15.0231 74.06 15.4964 74.06H24.2264H39.3464C39.5964 74.06 39.7864 74.12 39.9564 74.31C39.9778 74.3352 39.9993 74.3605 40.0208 74.3858C40.2297 74.6318 40.4416 74.8815 40.6864 75.09C41.1464 75.48 41.6164 75.86 42.1064 76.2C42.3564 76.38 42.7664 76.64 43.3464 76.93C43.8864 77.2 44.3264 77.36 44.4764 77.41C44.8764 77.55 45.1964 77.63 45.4864 77.7ZM57.368 42.2336C57.3745 42.2502 57.3807 42.2657 57.3864 42.28L57.3764 42.29C57.2764 42.31 57.1064 42.35 56.9064 42.4C56.8114 42.4224 56.7243 42.4431 56.6473 42.4615C56.4487 42.5088 56.318 42.54 56.2964 42.54C55.3164 42.76 54.4364 43.16 54.4364 43.16C54.0264 43.34 52.8264 43.89 52.1764 44.82C52.168 44.833 52.1589 44.847 52.1489 44.8622C52.0518 45.011 51.8853 45.2661 51.7764 45.62C51.6764 45.92 51.6564 46.17 51.6364 46.45C51.6119 46.8657 51.6273 47.2016 51.6339 47.3442C51.6353 47.3765 51.6364 47.3989 51.6364 47.41C51.6964 48.19 51.6964 51.3096 51.6964 57.5488V57.55V57.92C51.6464 57.9071 51.5975 57.8945 51.5494 57.8821C51.3376 57.8275 51.142 57.7771 50.9464 57.72C50.8421 57.6902 50.7393 57.6521 50.6363 57.614C50.4626 57.5496 50.2884 57.4851 50.1064 57.46C49.4564 57.36 48.8064 57.28 48.1464 57.26C47.5264 57.24 46.8964 57.25 46.2864 57.33C45.9415 57.3756 45.6051 57.4762 45.2689 57.5767C45.0884 57.6307 44.908 57.6846 44.7264 57.73C44.0764 57.88 43.4864 58.17 42.9064 58.48C41.8464 59.05 40.9064 59.77 40.1264 60.69C39.7164 61.18 39.3164 61.68 38.9764 62.21C38.6964 62.63 38.4964 63.11 38.3064 63.58C38.0964 64.09 37.9064 64.62 37.7464 65.16C37.6364 65.52 37.5664 65.89 37.5564 66.26C37.5264 67.15 37.5164 68.04 37.5564 68.93C37.5705 69.29 37.6444 69.65 37.7183 70.01C37.7491 70.16 37.7799 70.31 37.8064 70.46C37.8664 70.78 37.9364 71.11 38.0164 71.46C37.9842 71.4627 37.9549 71.4654 37.9277 71.4679C37.8534 71.4747 37.7949 71.48 37.7364 71.48C35.7922 71.48 33.8486 71.4794 31.9054 71.4784C30.4576 71.7313 30.4892 73.8846 32 74.0547H19C20.5578 73.8995 20.5631 71.6362 19.016 71.4665C17.2659 71.4644 15.5154 71.4623 13.7645 71.4601L13.7164 71.46C13.3264 71.46 12.9064 71.42 12.5364 71.28C12.0845 71.107 11.6511 70.8507 11.2274 70.6002L11.1764 70.57C10.1364 69.96 9.31637 69.11 8.60637 68.15C8.46623 67.9621 8.32203 67.7762 8.17765 67.5901C7.86873 67.1919 7.55897 66.7925 7.28637 66.37C6.92024 65.7896 6.60196 65.1692 6.2888 64.5589C6.25127 64.4858 6.21382 64.4128 6.17637 64.34C5.89637 63.8 5.64637 63.25 5.40637 62.7C5.18637 62.18 4.98637 61.65 4.79637 61.11C4.62637 60.62 4.47637 60.13 4.34637 59.64C4.21637 59.16 4.10637 58.67 4.02637 58.17C3.97089 57.8556 3.92824 57.5391 3.88556 57.2225C3.83593 56.8542 3.78627 56.4856 3.71637 56.12C3.55645 55.2804 3.57555 54.4472 3.59474 53.6102C3.59955 53.4004 3.60437 53.1904 3.60637 52.98C3.6162 52.3211 3.69375 51.6718 3.77241 51.0132L3.77637 50.98C3.83637 50.42 3.93637 49.86 4.05637 49.31C4.1242 49.0017 4.21105 48.6971 4.29816 48.3917C4.3523 48.2019 4.40654 48.0117 4.45637 47.82C4.48499 47.7178 4.51027 47.6139 4.53562 47.5097C4.57227 47.3591 4.60908 47.2078 4.65637 47.06C4.76637 46.71 4.88637 46.36 5.01637 46.02C5.19637 45.58 5.37637 45.14 5.56637 44.71C5.77637 44.23 5.98637 43.75 6.22637 43.29C6.49637 42.78 6.77637 42.27 7.09637 41.79C7.15738 41.6997 7.21824 41.6093 7.27912 41.5188C7.71714 40.8679 8.15592 40.2158 8.65637 39.61C9.31637 38.81 10.0164 38.03 10.7664 37.31C11.3404 36.7536 11.9691 36.2596 12.5973 35.766C12.6803 35.7007 12.7634 35.6354 12.8464 35.57C13.4023 35.1286 13.9716 34.7071 14.5433 34.2839C14.6709 34.1895 14.7986 34.0949 14.9264 34C15.4764 33.59 16.0264 33.19 16.5764 32.79L18.2564 31.56C18.4869 31.3923 18.7193 31.2246 18.9526 31.0562C19.2759 30.8229 19.6011 30.5881 19.9264 30.35C20.1408 30.1968 20.3523 30.0393 20.5637 29.8818C20.9043 29.628 21.2446 29.3745 21.5964 29.14C21.6178 29.1259 21.6393 29.1118 21.6608 29.0977C22.2787 28.692 22.8905 28.2903 23.5864 28.01C24.3064 27.72 25.0464 27.55 25.8164 27.4C26.5141 27.2652 27.1993 27.275 27.8869 27.2849C28.0665 27.2874 28.2462 27.29 28.4264 27.29C30.3467 27.2833 32.2716 27.2856 34.1949 27.2878C35.156 27.2889 36.1167 27.29 37.0764 27.29C37.8064 27.29 38.4964 27.45 39.1764 27.7C39.1957 27.7068 39.2151 27.7135 39.2345 27.7203C39.6459 27.8636 40.0644 28.0095 40.4464 28.21C40.8226 28.3981 41.1742 28.6292 41.5253 28.86C41.6222 28.9236 41.719 28.9873 41.8164 29.05C42.2364 29.32 42.6564 29.6 43.0764 29.88C43.3014 30.03 43.5239 30.185 43.7464 30.34C43.9689 30.495 44.1914 30.65 44.4164 30.8C44.7564 31.03 45.0964 31.2575 45.4364 31.485C45.7764 31.7125 46.1164 31.94 46.4564 32.17C46.8875 32.4653 47.3186 32.7641 47.7518 33.0643C48.0521 33.2724 48.3534 33.4812 48.6564 33.69C49.3764 34.19 50.1064 34.69 50.8464 35.18C51.7064 35.76 52.5064 36.4 53.2664 37.1C54.0264 37.79 54.7164 38.54 55.3764 39.32C55.714 39.7166 55.8333 39.8863 55.9761 40.0892C56.0997 40.2649 56.2408 40.4655 56.5564 40.86C56.7064 41.04 56.9564 41.36 57.1964 41.84C57.2735 41.9943 57.3286 42.1339 57.368 42.2336ZM47.7464 75.39C43.5364 75.34 40.0264 71.89 40.0864 67.59C39.9864 63.34 43.7064 59.68 48.0564 59.81C52.2864 59.94 55.6964 63.46 55.6364 67.67C55.5864 71.96 52.1064 75.44 47.7464 75.39ZM74.5461 49.2844C74.7346 49.2194 74.9244 49.154 75.1164 49.09L75.1264 49.1C75.1364 49.2 75.1464 49.31 75.1464 49.43C75.1464 49.7787 75.1437 50.1264 75.141 50.4736C75.1347 51.2813 75.1284 52.0857 75.1564 52.89C75.1764 53.36 74.8864 53.56 74.5864 53.76C74.2664 53.97 73.9264 54.15 73.5764 54.31C73.3206 54.4338 73.0512 54.5303 72.7795 54.6277C72.7218 54.6483 72.6641 54.669 72.6064 54.69L72.6063 54.6901C72.1763 54.84 71.7463 54.99 71.3064 55.12C71.0864 55.18 70.8664 55.23 70.6464 55.27C70.4266 55.3153 70.2109 55.3522 69.9967 55.3888C69.8797 55.4089 69.763 55.4288 69.6464 55.45C69.4764 55.48 69.3064 55.5122 69.1364 55.5445C68.7964 55.6089 68.4564 55.6734 68.1164 55.72C67.9464 55.745 67.7764 55.745 67.6064 55.745C67.4364 55.745 67.2664 55.745 67.0964 55.77C65.8664 55.95 64.6364 55.92 63.4064 55.88C62.7564 55.85 62.1064 55.8 61.4564 55.73C61.1542 55.6979 60.8561 55.6368 60.5595 55.576C60.3948 55.5422 60.2306 55.5086 60.0664 55.48C59.9497 55.46 59.833 55.4422 59.7164 55.4245C59.483 55.3889 59.2497 55.3533 59.0164 55.3C58.8159 55.2529 58.619 55.1953 58.4214 55.1375C58.2838 55.0973 58.1459 55.057 58.0064 55.02C57.8764 54.9833 57.7464 54.9478 57.6164 54.9122C57.3564 54.8411 57.0964 54.77 56.8364 54.69C56.5264 54.59 56.2264 54.48 55.9364 54.34C55.5664 54.17 55.2164 53.97 54.8664 53.77C54.5164 53.58 54.2864 53.32 54.2964 52.86C54.3097 52.1404 54.3053 51.4163 54.3008 50.6908C54.2986 50.3274 54.2964 49.9637 54.2964 49.6C54.2964 49.06 54.4364 49.11 54.8564 49.26C55.1164 49.35 55.3764 49.44 55.6364 49.52C55.8364 49.58 56.0464 49.64 56.2564 49.69C56.2967 49.6998 56.3369 49.7097 56.377 49.7195C56.7451 49.8095 57.1067 49.8979 57.4764 49.97C58.0964 50.09 58.7164 50.21 59.3464 50.29C59.8469 50.3533 60.354 50.4033 60.862 50.4535C61.2371 50.4905 61.6126 50.5275 61.9864 50.57C63.3564 50.73 64.7364 50.75 66.1164 50.7C66.9264 50.67 67.7364 50.61 68.5364 50.53C69.2664 50.46 69.9964 50.37 70.7164 50.25C71.4864 50.12 72.2564 49.97 73.0064 49.77C73.5197 49.638 74.0277 49.463 74.5461 49.2844ZM75.1164 56.4671C74.9584 56.5232 74.862 56.562 74.7564 56.61C74.5848 56.6786 74.4152 56.7492 74.246 56.8196C73.8728 56.9749 73.5017 57.1293 73.1164 57.26C72.8217 57.3606 72.5116 57.4354 72.2008 57.5103C72.0791 57.5397 71.9574 57.5691 71.8364 57.6C71.6907 57.6385 71.5449 57.6785 71.399 57.7186C71.0142 57.8242 70.6279 57.9303 70.2364 58.01C69.5364 58.14 68.8164 58.24 68.1064 58.33C67.5664 58.4 67.0264 58.43 66.4864 58.46C64.7764 58.56 63.0664 58.46 61.3564 58.33C61.3314 58.33 61.3089 58.325 61.2864 58.32C61.2639 58.315 61.2414 58.31 61.2164 58.31L59.6064 58.04C59.2364 57.98 58.8664 57.92 58.5064 57.85L58.4591 57.8414C58.2536 57.8042 58.0414 57.7657 57.8464 57.71C57.6064 57.64 57.3664 57.5675 57.1264 57.495C56.8864 57.4225 56.6464 57.35 56.4064 57.28C56.3808 57.2723 56.3553 57.2645 56.3296 57.2568C56.0239 57.1644 55.7116 57.07 55.4164 56.95C55.243 56.8767 55.0786 56.7856 54.9141 56.6945C54.8319 56.6489 54.7497 56.6034 54.6664 56.56C54.4564 56.46 54.3064 56.55 54.3064 56.78C54.3064 57.05 54.3053 57.32 54.3041 57.59C54.3019 58.13 54.2997 58.67 54.3064 59.21C54.3064 59.34 54.4064 59.5 54.5064 59.6C54.5988 59.6908 54.6919 59.7808 54.7851 59.8708C55.2669 60.336 55.7493 60.8019 56.1264 61.38C56.253 61.58 56.3886 61.7711 56.5241 61.9622C56.5919 62.0578 56.6597 62.1533 56.7264 62.25C56.9211 62.546 57.2249 62.6236 57.5246 62.7001C57.6097 62.7218 57.6945 62.7435 57.7764 62.77C57.9247 62.8216 58.0814 62.8566 58.2357 62.891C58.3206 62.9099 58.4047 62.9287 58.4864 62.95C58.608 62.9813 58.7284 63.015 58.8485 63.0486C59.0739 63.1116 59.298 63.1743 59.5264 63.22C59.9964 63.3 60.4664 63.36 60.9364 63.41C61.128 63.4326 61.3202 63.4566 61.5127 63.4807C62.1737 63.5636 62.838 63.6468 63.4964 63.67C65.0564 63.72 66.6264 63.72 68.1764 63.51C68.5464 63.46 68.9164 63.41 69.2864 63.34C69.5114 63.2986 69.7365 63.2431 69.9595 63.1881C70.113 63.1502 70.2655 63.1126 70.4164 63.08C70.5323 63.0547 70.6495 63.0345 70.7667 63.0145C70.9728 62.9791 71.1787 62.9438 71.3764 62.88C71.9264 62.71 72.4664 62.53 72.9964 62.31C73.5364 62.08 74.0764 61.83 74.5864 61.54C74.9564 61.33 75.1564 61.03 75.1364 60.53C75.1064 59.6076 75.1101 58.6796 75.1139 57.7502C75.1151 57.4403 75.1164 57.1301 75.1164 56.82V56.4671ZM57.901 70.5557C57.878 70.5339 57.8566 70.5135 57.8364 70.5H57.8564C58.2364 68.93 58.4364 67.39 58.0764 65.76C58.2684 65.7867 58.4434 65.8077 58.6088 65.8275C58.7536 65.8449 58.8911 65.8613 59.0264 65.88C59.0564 65.8843 59.0864 65.8941 59.1164 65.9039C59.1564 65.917 59.1964 65.93 59.2364 65.93C59.4946 65.9555 59.7527 65.9756 60.0109 65.9958C60.4627 66.0311 60.9146 66.0664 61.3664 66.13C62.7792 66.314 64.192 66.2868 65.6049 66.2596C66.112 66.2498 66.6192 66.24 67.1264 66.24C67.7279 66.24 68.3294 66.1653 68.9233 66.0915C68.9811 66.0843 69.0388 66.0771 69.0964 66.07C69.7664 66 70.4364 65.9 71.0964 65.78C71.7164 65.66 72.3364 65.51 72.9464 65.36C73.3764 65.26 73.7964 65.15 74.2264 65.03C74.3397 64.9967 74.453 64.9456 74.5664 64.8945C74.623 64.8689 74.6797 64.8433 74.7364 64.82C74.8464 64.77 74.9664 64.73 75.1264 64.68C75.1464 64.83 75.1464 64.92 75.1464 65.02C75.1464 65.3563 75.1437 65.6926 75.141 66.0286C75.1347 66.8117 75.1284 67.5933 75.1564 68.37C75.1764 68.8 75.0164 69.09 74.6764 69.29C74.3086 69.5107 73.9155 69.6975 73.5281 69.8816C73.4941 69.8978 73.4602 69.9139 73.4264 69.93C72.9764 70.14 72.5164 70.33 72.0464 70.5C71.8914 70.5537 71.7328 70.586 71.575 70.6182C71.468 70.64 71.3614 70.6617 71.2564 70.69C71.1064 70.725 70.9589 70.765 70.8114 70.805C70.6639 70.845 70.5164 70.885 70.3664 70.92C70.0764 70.99 69.7764 71.06 69.4864 71.12C69.1564 71.18 68.8164 71.24 68.4864 71.28C66.4964 71.5 64.4864 71.51 62.4864 71.42C61.9964 71.4 61.5164 71.35 61.0364 71.28C60.4464 71.19 59.8564 71.08 59.2664 70.96C58.8564 70.88 58.4564 70.77 58.0564 70.66C57.9968 70.6468 57.9459 70.5984 57.901 70.5557ZM65.2332 44.1577C65.2723 44.159 65.3007 44.16 65.3164 44.16C65.5415 44.1722 65.7667 44.1733 66.0257 44.1745C66.1923 44.1753 66.3728 44.1761 66.5764 44.18C67.2749 44.1899 67.8088 44.2384 68.4544 44.2971L68.4864 44.3C68.6021 44.3132 68.715 44.3249 68.8286 44.3368C69.1471 44.3699 69.471 44.4037 69.8764 44.47C70.6564 44.59 71.2464 44.73 71.6664 44.83C72.0864 44.93 72.3364 44.99 72.6864 45.1C73.3928 45.3238 73.5513 45.396 73.7675 45.4944C73.8604 45.5367 73.964 45.5839 74.1264 45.65C74.2736 45.7089 74.4138 45.7816 74.5533 45.854C74.6507 45.9045 74.7477 45.9548 74.8464 46C75.0264 46.09 74.9864 46.22 74.8764 46.27C74.3964 46.5 73.9164 46.73 73.4264 46.92C72.7764 47.17 72.6964 47.2 72.1564 47.33C72.033 47.368 71.8737 47.3969 71.5759 47.451L71.5264 47.46C71.4076 47.4808 71.287 47.5025 71.1615 47.525C70.8645 47.5784 70.5401 47.6367 70.1464 47.7C69.7445 47.767 69.398 47.8118 68.9998 47.8633C68.8629 47.881 68.7199 47.8995 68.5664 47.92C68.4764 47.93 68.3964 47.94 68.3364 47.9475C68.2764 47.955 68.2364 47.96 68.2264 47.96C67.6764 48.03 65.9364 48.2 63.3764 48.11C62.6064 48.09 61.9664 48.06 61.1564 47.96C61.0754 47.9479 60.978 47.9341 60.8502 47.916C60.6625 47.8894 60.4093 47.8536 60.0464 47.8C59.3699 47.7056 59.1018 47.6607 58.9549 47.6361C58.915 47.6295 58.8841 47.6243 58.8564 47.62C58.3464 47.53 57.9664 47.45 57.6964 47.39C57.6852 47.3874 57.6714 47.3843 57.655 47.3805C57.4808 47.3406 57.0179 47.2346 56.3964 47.07C56.3964 47.07 55.6864 46.84 54.7464 46.35C54.7399 46.3457 54.7327 46.3411 54.7249 46.3361C54.66 46.2945 54.5564 46.2282 54.5564 46.13C54.5564 46.02 54.6864 45.94 54.7564 45.9C55.4264 45.51 56.2064 45.28 56.2064 45.28C56.4964 45.19 56.6964 45.14 56.7764 45.12C57.0864 45.04 57.3464 44.98 57.6464 44.92C58.5264 44.74 59.2564 44.63 59.2564 44.63C60.3164 44.47 61.1364 44.39 62.1864 44.3C62.1864 44.3 63.1764 44.21 64.5364 44.15H64.8464C65.0112 44.15 65.1477 44.1547 65.2332 44.1577Z" fill="#26394B"/>
</svg>
