<svg width="65" height="65" viewBox="0 0 65 65" fill="none" xmlns="http://www.w3.org/2000/svg">
<path d="M65 32.5C65 50.4493 50.4493 65 32.5 65C14.5507 65 0 50.4493 0 32.5C0 14.5507 14.5507 0 32.5 0C50.4493 0 65 14.5507 65 32.5Z" fill="#EEFAFA"/>
<path d="M59.3478 32.5C59.3478 47.3277 47.3276 59.3479 32.4999 59.3479C17.6723 59.3479 5.6521 47.3277 5.6521 32.5C5.6521 17.6724 17.6723 5.65222 32.4999 5.65222C47.3276 5.65222 59.3478 17.6724 59.3478 32.5ZM12.3076 32.5C12.3076 43.652 21.348 52.6924 32.4999 52.6924C43.6518 52.6924 52.6923 43.652 52.6923 32.5C52.6923 21.3481 43.6518 12.3077 32.4999 12.3077C21.348 12.3077 12.3076 21.3481 12.3076 32.5Z" fill="#22CBC1"/>
<path fill-rule="evenodd" clip-rule="evenodd" d="M25.1553 5.9426C25.3525 5.88805 25.5522 5.93231 25.7047 6.04431C25.8232 6.13127 25.9133 6.25905 25.952 6.41314C26.0405 6.76572 25.8261 7.12248 25.4759 7.21979C19.5489 8.86646 14.3812 12.5463 10.8859 17.6252C7.2661 22.885 5.68847 29.2842 6.44865 35.6239C7.20884 41.9635 10.2547 47.8083 15.0154 52.0632C19.7761 56.3181 25.925 58.691 32.3099 58.7373C37.8966 58.7778 43.3286 57.0345 47.8295 53.7941C48.4725 53.3312 49.0965 52.8377 49.6993 52.3145C54.2198 48.3907 57.2534 43.0476 58.317 37.181C58.3879 36.7899 58.45 36.3965 58.5033 36.001C59.2488 30.464 58.2052 24.8555 55.559 19.9815C55.1809 19.2852 54.7702 18.6039 54.3273 17.9399C51.1198 13.1315 46.4247 9.53126 40.9869 7.67257C40.6244 7.54866 40.2585 7.43249 39.8896 7.32422C39.5626 7.22824 39.3583 6.90599 39.4112 6.57665C39.4147 6.5547 39.4194 6.53271 39.4252 6.51076C39.4837 6.29122 39.6466 6.127 39.8458 6.0596C39.9653 6.01916 40.0978 6.01357 40.2287 6.0518V6.05181C46.4406 7.86695 51.8233 11.8139 55.4224 17.2094C59.1434 22.7876 60.7026 29.5312 59.8079 36.1766C58.9132 42.8221 55.626 48.9132 50.5622 53.3087C45.8149 57.4294 39.8116 59.7947 33.5548 60.0342C33.1377 60.0502 32.7194 60.0567 32.3003 60.0537C26.4333 60.0112 20.756 58.098 16.079 54.6269C15.4108 54.131 14.7631 53.6033 14.1381 53.0448C9.45104 48.8557 6.34679 43.199 5.31927 37.0225C5.25077 36.6108 5.1915 36.1967 5.1416 35.7806C4.44307 29.9551 5.62423 24.0817 8.4771 19.0039C8.88465 18.2785 9.32632 17.5693 9.8015 16.8789C13.2486 11.87 18.2447 8.15687 23.9953 6.29098C24.3787 6.16659 24.7654 6.0504 25.1553 5.9426ZM12.1781 26.4771C12.2762 26.146 12.6305 25.9678 12.9585 26.0756C13.2866 26.1834 13.4641 26.5365 13.3666 26.8678C12.4865 29.8576 12.3184 33.015 12.8799 36.0865C13.4789 39.3633 14.889 42.4378 16.9815 45.0295C19.074 47.6212 21.7824 49.6476 24.8593 50.9237C27.7435 52.1198 30.8654 52.621 33.9735 52.3907C34.3179 52.3652 34.6256 52.6132 34.6619 52.9565C34.6982 53.2999 34.4493 53.6087 34.105 53.6348C30.7891 53.8867 27.4573 53.3549 24.3802 52.0787C21.1104 50.7227 18.2323 48.5692 16.0086 45.815C13.7849 43.0608 12.2864 39.7936 11.6498 36.3114C11.0508 33.0344 11.2331 29.6654 12.1781 26.4771ZM40.4608 52.1439C40.1407 52.2736 39.7805 52.1078 39.6603 51.784C39.5401 51.4603 39.7055 51.1014 40.0253 50.9711C42.7162 49.8748 45.1376 48.2027 47.1179 46.0694C49.2401 43.7833 50.7964 41.0312 51.662 38.0344C52.5275 35.0375 52.6781 31.8795 52.1016 28.8139C51.5251 25.7483 50.2376 22.8607 48.3426 20.383C46.4475 17.9053 43.9978 15.9066 41.1901 14.5475C38.3824 13.1884 35.2951 12.5068 32.1762 12.5575C29.0572 12.6081 25.9937 13.3896 23.2316 14.8391C20.6543 16.1917 18.4064 18.0908 16.6438 20.4008C16.4343 20.6753 16.0446 20.741 15.7637 20.5402C15.4827 20.3395 15.417 19.9483 15.6259 19.6734C17.5026 17.2045 19.9 15.1754 22.6505 13.7319C25.5858 12.1915 28.8414 11.361 32.1559 11.3072C35.4703 11.2534 38.7512 11.9777 41.7349 13.422C44.7186 14.8663 47.322 16.9903 49.3358 19.6233C51.3497 22.2563 52.7179 25.325 53.3305 28.5828C53.9432 31.8406 53.7831 35.1966 52.8633 38.3814C51.9435 41.5661 50.2896 44.4907 48.0344 46.9202C45.921 49.1968 43.3349 50.9792 40.4608 52.1439ZM44.3626 25.2291C44.6392 24.9208 44.6134 24.4466 44.3051 24.17C43.9967 23.8934 43.5226 23.9192 43.246 24.2275L29.9955 39C29.901 39.1054 29.738 39.1113 29.636 39.0132L21.7157 31.391C21.4172 31.1038 20.9424 31.1129 20.6552 31.4113C20.368 31.7098 20.3771 32.1846 20.6755 32.4718L28.5959 40.094C29.3097 40.7809 30.4507 40.739 31.1121 40.0016L44.3626 25.2291Z" fill="#26394B"/>
</svg>
