<svg width="102" height="102" viewBox="0 0 102 102" fill="none" xmlns="http://www.w3.org/2000/svg">
<ellipse opacity="0.2" cx="50.5" cy="51" rx="34.5" ry="34" fill="#22CBC1"/>
<circle cx="50.5002" cy="50.4999" r="26.5" fill="#22CBC1"/>
<path fill-rule="evenodd" clip-rule="evenodd" d="M7.68421 27.2811C6.9018 26.8526 5.91765 27.1387 5.5142 27.9343C0.356322 38.1053 -1.25059 49.7286 0.979113 60.9443C3.31395 72.6888 9.70687 83.2373 19.0379 90.7417C28.3689 98.2462 40.043 102.228 52.015 101.99C63.987 101.752 75.4934 97.3083 84.5184 89.4385C93.5434 81.5686 99.5116 70.7742 101.377 58.946C103.243 47.1179 100.887 35.0105 94.7227 24.7448C88.5582 14.4791 78.9781 6.70985 67.6607 2.79809C56.853 -0.937522 45.1191 -0.92773 34.3407 2.79768C33.4976 3.08908 33.0802 4.02513 33.3982 4.85857C33.7161 5.69202 34.6489 6.10709 35.4926 5.81749C39.8757 4.31304 44.4262 3.46385 49.0002 3.27222V7.49989C49.0002 8.32832 49.6718 8.99989 50.5002 8.99989C51.3286 8.99989 52.0002 8.32832 52.0002 7.49989V3.2408C56.9382 3.34416 61.8668 4.21334 66.6054 5.85119C73.1745 8.12174 79.1187 11.7798 84.0638 16.522L81.0522 19.5336C80.4665 20.1194 80.4665 21.0691 81.0522 21.6549C81.638 22.2407 82.5878 22.2407 83.1736 21.6549L86.163 18.6655C88.3364 21.029 90.2793 23.6201 91.9533 26.4078C96.2637 33.586 98.586 41.7255 98.7593 49.9999H94.5004C93.672 49.9999 93.0004 50.6715 93.0004 51.4999C93.0004 52.3283 93.672 52.9999 94.5004 52.9999H98.7279C98.6518 54.8154 98.4719 56.6325 98.1863 58.4427C96.661 68.1134 92.2078 77.0463 85.4782 84.0636L82.4665 81.0519C81.8807 80.4661 80.9309 80.4661 80.3451 81.0519C79.7594 81.6377 79.7594 82.5874 80.3451 83.1732L83.3346 86.1627C83.0256 86.4468 82.7125 86.7272 82.3953 87.0038C73.9544 94.3643 63.1961 98.5246 52.0002 98.7591V94.4999C52.0002 93.6715 51.3286 92.9999 50.5002 92.9999C49.6718 92.9999 49.0002 93.6715 49.0002 94.4999V98.7277C38.8309 98.3018 29.0338 94.6355 21.0624 88.2245C20.2388 87.5621 19.4396 86.8744 18.6657 86.1628L21.6553 83.1732C22.2411 82.5874 22.2411 81.6377 21.6553 81.0519C21.0695 80.4661 20.1197 80.4661 19.534 81.0519L16.5221 84.0637C10.2467 77.5199 5.93182 69.29 4.14744 60.3144C3.66535 57.8894 3.37474 55.4441 3.27233 52.9999H7.5002C8.32862 52.9999 9.0002 52.3283 9.0002 51.4999C9.0002 50.6715 8.32862 49.9999 7.5002 49.9999H3.24094C3.38965 42.9029 5.11937 35.8893 8.34911 29.4866C8.75085 28.6901 8.46662 27.7095 7.68421 27.2811ZM15.0568 17.1697C14.4733 16.5861 14.4733 15.64 15.0568 15.0564C15.6404 14.4729 16.5865 14.4729 17.17 15.0564L49 46.8864V23.4999C49 22.6715 49.6716 21.9999 50.5 21.9999C51.3284 21.9999 52 22.6715 52 23.4999V46.7434C53.9324 47.1956 55.3715 48.9297 55.3715 51C55.3715 53.4142 53.4143 55.3714 51 55.3714C48.5858 55.3714 46.6286 53.4142 46.6286 51C46.6286 50.339 46.7753 49.7124 47.0379 49.1507L15.0568 17.1697Z" fill="#26394B"/>
</svg>
