<svg width="22" height="24" viewBox="0 0 22 24" fill="none" xmlns="http://www.w3.org/2000/svg">
<path d="M18.4185 14.4477C18.4247 14.5934 18.4316 14.6742 18.4316 14.7549C18.4316 16.7004 18.4344 18.6466 18.4316 20.5921C18.4296 22.3112 17.2632 23.47 15.537 23.47C11.5988 23.4707 7.65983 23.4707 3.72158 23.47C2.00096 23.47 0.824237 22.3016 0.823547 20.5928C0.823547 14.8664 0.823547 9.13998 0.823547 3.41426C0.824237 1.70134 1.99682 0.530882 3.71537 0.530882C7.67983 0.529513 11.6443 0.528145 15.6087 0.531566C17.0364 0.53225 18.1449 1.44549 18.3965 2.81501C18.4103 2.89026 18.4096 2.96825 18.424 3.04349C18.4675 3.26377 18.3937 3.39374 18.1807 3.50524C17.7698 3.72004 17.4603 4.05524 17.228 4.45474C15.0848 8.13849 12.943 11.8236 10.8005 15.508C10.4338 16.1388 10.3069 16.8297 10.2863 17.5452C10.2711 18.0638 10.1946 18.5932 10.2704 19.1001C10.4924 20.5866 12.1834 21.3795 13.4945 20.627C14.0439 20.3116 14.5651 19.9456 15.0834 19.581C15.517 19.2759 15.8376 18.8628 16.1023 18.4065C16.8185 17.1731 17.5368 15.9404 18.2551 14.7084C18.2958 14.6379 18.342 14.5709 18.4192 14.4484L18.4185 14.4477ZM8.53669 9.27338C9.14676 9.27338 9.75753 9.27338 10.3676 9.27338C11.21 9.27338 12.0524 9.27543 12.8948 9.27201C13.2753 9.27064 13.5041 9.0962 13.5483 8.78905C13.6007 8.42375 13.3187 8.1727 12.8493 8.1727C9.99535 8.17201 7.14144 8.17201 4.28753 8.17338C4.18551 8.17338 4.08004 8.17954 3.98146 8.20416C3.73605 8.26505 3.5713 8.48806 3.57681 8.73227C3.58164 8.96759 3.74226 9.18171 3.97595 9.23849C4.09107 9.26653 4.21377 9.27132 4.33303 9.27132C5.73448 9.27338 7.13524 9.27269 8.53669 9.27269V9.27338ZM10.1718 4.89529C8.76969 4.89529 7.36824 4.89529 5.9661 4.89666C5.85511 4.89666 5.74137 4.90144 5.63383 4.92744C5.38774 4.98695 5.22298 5.20996 5.22781 5.45486C5.23194 5.69018 5.39256 5.90362 5.62625 5.96245C5.7331 5.98913 5.84684 5.99528 5.95783 5.99528C8.76969 5.99665 11.5822 5.99665 14.3941 5.99528C14.4968 5.99528 14.6016 5.99255 14.7009 5.97066C14.9773 5.90977 15.1386 5.69018 15.1241 5.41108C15.1069 5.08478 14.867 4.89666 14.4534 4.89597C13.0257 4.89392 11.5981 4.89597 10.1704 4.89529H10.1718ZM7.60951 11.4494C6.51896 11.4494 5.42841 11.4494 4.33786 11.4494C3.83945 11.4494 3.56854 11.6499 3.57681 12.0097C3.58508 12.3613 3.84773 12.5501 4.33303 12.5501C6.19634 12.5501 8.05966 12.5501 9.92366 12.5501C10.2932 12.5501 10.662 12.5508 11.0314 12.5494C11.2817 12.548 11.4871 12.4612 11.5981 12.2238C11.7787 11.8366 11.4926 11.4535 11.0108 11.4508C9.87747 11.4453 8.74349 11.4494 7.6102 11.4487L7.60951 11.4494ZM6.65338 14.7275C6.13775 14.7268 5.6228 14.7268 5.10717 14.7268C4.78938 14.7268 4.4709 14.7186 4.1538 14.7303C3.81395 14.7426 3.5844 14.9656 3.57681 15.2659C3.56923 15.5723 3.80912 15.8036 4.15725 15.8261C4.21722 15.8302 4.27719 15.8275 4.33786 15.8275C4.79283 15.8275 5.24849 15.8275 5.70346 15.8275C6.78574 15.8275 7.86802 15.8275 8.9503 15.8275C9.01923 15.8275 9.08817 15.8302 9.15641 15.8261C9.51005 15.8063 9.7465 15.584 9.74581 15.2748C9.74443 14.9642 9.50867 14.7337 9.15297 14.7296C8.31954 14.7214 7.48681 14.7268 6.65338 14.7268V14.7275ZM6.37351 19.1049C7.04287 19.1049 7.71291 19.1049 8.38227 19.1049C8.45948 19.1049 8.53738 19.107 8.61389 19.0967C8.91583 19.057 9.12677 18.8292 9.1247 18.5501C9.12264 18.2697 8.91169 18.048 8.607 18.0104C8.53945 18.0022 8.46982 18.0042 8.40158 18.0042C7.03666 18.0042 5.67175 18.0036 4.30614 18.0049C4.20412 18.0049 4.09865 18.009 4.00007 18.0309C3.75122 18.087 3.58233 18.2991 3.5775 18.5447C3.57268 18.7957 3.74915 19.0221 4.00766 19.0782C4.10692 19.1001 4.2117 19.1029 4.31442 19.1029C5.00101 19.1049 5.68829 19.1042 6.37489 19.1042L6.37351 19.1049Z" fill="white"/>
<path d="M17.0922 6.89697C18.2076 7.5359 19.2995 8.16183 20.4114 8.7987C20.3597 8.89447 20.3184 8.97588 20.2722 9.05523C18.5764 11.9701 16.8785 14.8836 15.1861 17.8005C14.9187 18.2615 14.5754 18.6398 14.1211 18.9237C13.7654 19.1467 13.4193 19.3848 13.0671 19.6133C12.6728 19.8691 12.2612 19.9067 11.8531 19.6605C11.4478 19.4156 11.2865 19.0407 11.3244 18.5735C11.3671 18.0385 11.3706 17.4981 11.4492 16.9679C11.4967 16.6471 11.6084 16.3153 11.7704 16.0342C13.5069 13.0242 15.2592 10.0239 17.0067 7.02147C17.0274 6.9859 17.0529 6.95307 17.0915 6.89697H17.0922Z" fill="white"/>
<path d="M17.6292 5.94609C17.836 5.59379 18.0159 5.26407 18.2179 4.94871C18.6839 4.21948 19.5863 3.97527 20.3604 4.36519C20.5741 4.47259 20.783 4.59162 20.9843 4.72091C21.6991 5.18061 21.9466 6.08154 21.5571 6.83334C21.3807 7.17332 21.1766 7.49826 20.9691 7.8574C19.8572 7.22121 18.7549 6.59049 17.6292 5.94609Z" fill="white"/>
</svg>
