<svg width="12" height="9" viewBox="0 0 12 9" fill="none" xmlns="http://www.w3.org/2000/svg">
<path d="M10.6208 0.232888C10.6952 0.159152 10.7841 0.100576 10.8821 0.0605866C10.9802 0.0205975 11.0855 0 11.1919 0C11.2982 0 11.4035 0.0205975 11.5016 0.0605866C11.5996 0.100576 11.6885 0.159152 11.763 0.232888C12.075 0.538909 12.0793 1.03341 11.7739 1.34473L5.32319 8.74643C5.24995 8.82449 5.16108 8.88723 5.062 8.93081C4.96292 8.97438 4.85572 8.99788 4.74697 8.99986C4.63821 9.00185 4.53018 8.98227 4.42949 8.94233C4.3288 8.9024 4.23756 8.84294 4.16135 8.7676L0.236178 4.90686C0.0847971 4.75701 0 4.55552 0 4.34565C0 4.13578 0.0847971 3.93428 0.236178 3.78443C0.31063 3.7107 0.399489 3.65212 0.497552 3.61213C0.595616 3.57214 0.700914 3.55154 0.80728 3.55154C0.913647 3.55154 1.01894 3.57214 1.11701 3.61213C1.21507 3.65212 1.30393 3.7107 1.37838 3.78443L4.70791 7.0596L10.5989 0.256183C10.6057 0.248 10.613 0.240221 10.6208 0.232888Z" fill="white"/>
</svg>
