<svg width="112" height="24" viewBox="0 0 112 24" fill="none" xmlns="http://www.w3.org/2000/svg">
<g clip-path="url(#clip0_281_976)">
<path d="M2.38251 11.8858C2.28536 7.05142 9.86776 7.05142 9.77061 11.837C9.80769 12.7593 9.47874 13.6585 8.85608 14.3372C8.23341 15.0159 7.36798 15.4184 6.45003 15.4562C6.32606 15.4612 6.20192 15.4593 6.07815 15.4506C4.18216 15.4506 2.33553 14.2794 2.3841 11.8858H2.38251ZM1.79882 7.53942C1.22426 8.0962 0.76848 8.76462 0.459229 9.504C0.149978 10.2434 -0.00627747 11.0382 -2.77194e-05 11.8402V22.825C-0.0486022 24.3882 2.43029 24.3394 2.38251 22.825V16.7202C6.17371 19.8466 12.3474 16.8178 12.1531 11.8362C12.2989 8.22262 9.04119 5.68262 5.88226 5.68262C4.33342 5.74788 2.87005 6.41371 1.79962 7.54022" fill="white"/>
<path d="M13.9536 1.22405V17.096C13.9523 17.3398 14.023 17.5785 14.1568 17.7819C14.2906 17.9852 14.4815 18.1441 14.7053 18.2384C14.9291 18.3326 15.1757 18.358 15.4139 18.3113C15.652 18.2646 15.871 18.1479 16.0431 17.976C16.1609 17.8637 16.2525 17.7265 16.3113 17.5743C16.3701 17.4222 16.3946 17.2589 16.3832 17.096V1.22405C16.3928 0.922624 16.283 0.62966 16.0779 0.409476C15.8728 0.189291 15.589 0.0598793 15.289 0.0496509C15.2495 0.0472518 15.2099 0.0472518 15.1704 0.0496509C14.8625 0.0359781 14.5618 0.14568 14.3344 0.354647C14.107 0.563613 13.9715 0.854743 13.9576 1.16405C13.9576 1.18325 13.9576 1.20245 13.9576 1.22165" fill="white"/>
<path d="M27.4064 11.9998C27.455 13.9046 26.2916 15.7598 23.9027 15.711C23.4092 15.7527 22.9127 15.685 22.4482 15.5125C21.9837 15.3401 21.5626 15.0672 21.2148 14.7131C20.867 14.359 20.6009 13.9324 20.4354 13.4635C20.2699 12.9946 20.2091 12.4949 20.2572 11.9998C20.239 11.5307 20.3131 11.0626 20.475 10.6223C20.637 10.1819 20.8837 9.77793 21.2011 9.43338C21.5184 9.08883 21.9003 8.81046 22.3247 8.61417C22.7492 8.41788 23.208 8.30752 23.6749 8.28938C23.7545 8.28938 23.827 8.28938 23.9027 8.28938C24.358 8.28367 24.8099 8.36812 25.2328 8.53792C25.6556 8.70771 26.041 8.95952 26.3669 9.27896C26.6929 9.5984 26.953 9.97922 27.1325 10.3997C27.3119 10.8201 27.4071 11.2719 27.4128 11.7294C27.4128 11.8198 27.4128 11.9102 27.4064 11.9998ZM19.5317 7.70458C14.1846 12.979 21.6212 21.3846 27.5035 16.8854C27.5521 18.3998 29.9346 18.4974 29.8861 16.8854V12.0966C30.0804 8.43418 26.9214 5.94298 23.7123 5.94298C22.9297 5.91077 22.1496 6.05171 21.4272 6.35584C20.7048 6.65997 20.0577 7.11986 19.5317 7.70298" fill="white"/>
<path d="M31.1067 9.55743C31.0756 10.0066 31.1329 10.4574 31.2753 10.8843C31.4177 11.3112 31.6423 11.7057 31.9365 12.0454C32.2306 12.385 32.5885 12.6632 32.9897 12.8638C33.3908 13.0645 33.8274 13.1839 34.2744 13.215C34.4011 13.2237 34.5282 13.2256 34.6551 13.2206C37.3776 13.611 34.9465 17.3718 33.4407 14.9806C31.6418 12.2462 29.843 15.6646 32.3713 17.3254C35.8224 20.2558 40.4402 14.9318 37.2327 11.8558C36.309 10.6838 34.8502 11.123 33.7815 10.3902C32.3713 9.02223 35.093 7.26463 35.7723 8.92463C37.9597 12.2462 40.0508 6.14143 34.6575 5.84863H34.5595C34.0944 5.86005 33.636 5.96341 33.2106 6.1528C32.7852 6.34219 32.4012 6.61391 32.0803 6.95245C31.7595 7.29098 31.5081 7.68969 31.3407 8.12581C31.1732 8.56194 31.0929 9.02693 31.1043 9.49423V9.55823" fill="white"/>
<path d="M43.3906 0.00382922C41.3003 -0.0937708 42.4669 4.98543 42.224 6.10863H41.6889C40.668 6.05903 39.2578 6.01023 39.2578 7.32863C39.2092 8.64623 40.6672 8.59743 41.6881 8.54863H42.1746V17.1446C42.1515 17.462 42.2548 17.7757 42.4619 18.0166C42.669 18.2574 42.9628 18.4058 43.2787 18.429C43.5947 18.4523 43.9069 18.3485 44.1466 18.1404C44.3864 17.9324 44.5341 17.6372 44.5572 17.3198C44.5612 17.2615 44.5612 17.203 44.5572 17.1446V8.49983H46.2589C46.4077 8.50441 46.5559 8.47948 46.6951 8.42646C46.8343 8.37344 46.9617 8.29337 47.07 8.19083C47.1784 8.08829 47.2655 7.9653 47.3265 7.82888C47.3875 7.69247 47.4211 7.54531 47.4255 7.39583C47.4279 7.35827 47.4279 7.32059 47.4255 7.28303C47.4367 7.13385 47.4185 6.98391 47.372 6.84178C47.3255 6.69965 47.2516 6.56812 47.1545 6.45468C47.0574 6.34124 46.9391 6.24813 46.8062 6.18065C46.6733 6.11318 46.5284 6.07267 46.3799 6.06143C46.3399 6.05903 46.2997 6.05903 46.2597 6.06143H44.5572C44.3143 5.03343 45.4809 0.00382922 43.4877 0.00382922H43.3906Z" fill="white"/>
<path d="M48.6541 7.28008C48.7513 7.57288 48.3141 18.2193 48.9941 17.9753C49.1641 18.1428 49.3798 18.2558 49.6139 18.2999C49.848 18.344 50.0898 18.3172 50.3086 18.2229C50.5275 18.1286 50.7135 17.971 50.8429 17.7702C50.9724 17.5694 51.0396 17.3345 51.0359 17.0953V7.28008C51.0451 6.9781 50.9346 6.68479 50.7287 6.46458C50.5228 6.24438 50.2383 6.11529 49.9378 6.10568C49.8988 6.10328 49.8597 6.10328 49.8207 6.10568C49.6698 6.10314 49.5199 6.13053 49.3796 6.18627C49.2392 6.24202 49.1112 6.32503 49.0028 6.43055C48.8945 6.53607 48.8079 6.66203 48.7481 6.80122C48.6882 6.94041 48.6563 7.09008 48.6541 7.24168V7.28008ZM49.9178 1.22408C49.6173 1.21459 49.3254 1.3254 49.1062 1.53212C48.887 1.73885 48.7584 2.02458 48.7489 2.32648C48.7489 2.36541 48.7489 2.40461 48.7489 2.44408C48.738 2.59334 48.7566 2.74328 48.8035 2.88533C48.8504 3.02738 48.9247 3.15875 49.0222 3.27191C49.1196 3.38508 49.2384 3.47782 49.3716 3.54484C49.5048 3.61186 49.6498 3.65183 49.7984 3.66248C49.8374 3.66488 49.8765 3.66488 49.9155 3.66248C50.061 3.67069 50.2067 3.65001 50.3443 3.60161C50.4818 3.55322 50.6086 3.47806 50.7172 3.38043C50.8258 3.28281 50.9142 3.16463 50.9774 3.03265C51.0405 2.90068 51.0772 2.75749 51.0852 2.61128C51.0896 2.55483 51.0896 2.49813 51.0852 2.44168C51.0906 2.12477 50.9709 1.8186 50.7523 1.59002C50.5338 1.36145 50.2341 1.22903 49.9186 1.22168" fill="white"/>
<path d="M52.9055 1.22405V17.0961C52.904 17.34 52.9747 17.5789 53.1085 17.7824C53.2424 17.986 53.4334 18.1449 53.6574 18.2392C53.8813 18.3335 54.1281 18.3588 54.3664 18.312C54.6047 18.2651 54.8238 18.1482 54.9958 17.9761C55.1135 17.8636 55.205 17.7264 55.2638 17.5743C55.3226 17.4221 55.3472 17.2588 55.3359 17.0961V1.22405C55.3406 1.07454 55.316 0.925539 55.2635 0.78558C55.2109 0.645621 55.1314 0.517443 55.0295 0.408375C54.9276 0.299306 54.8053 0.211486 54.6695 0.149934C54.5338 0.0883813 54.3874 0.0543043 54.2386 0.0496509C54.199 0.0472518 54.1594 0.0472518 54.1199 0.0496509C53.812 0.0359781 53.5113 0.14568 53.2839 0.354647C53.0565 0.563613 52.921 0.854743 52.9071 1.16405C52.9071 1.18325 52.9071 1.20245 52.9071 1.22165" fill="white"/>
<path d="M57.1077 7.27993V17.0959C57.1062 17.2549 57.136 17.4126 57.1952 17.56C57.2545 17.7075 57.3421 17.8417 57.453 17.9551C57.564 18.0685 57.6961 18.1588 57.8418 18.2208C57.9875 18.2829 58.1439 18.3155 58.3022 18.3167H58.3253C58.6337 18.3178 58.9299 18.1958 59.1488 17.9775C59.3677 17.7592 59.4914 17.4626 59.4926 17.1527C59.4926 17.1335 59.4926 17.1151 59.4926 17.0959V7.27993C59.5021 6.97802 59.3918 6.68471 59.186 6.46448C58.9802 6.24425 58.6958 6.11514 58.3953 6.10553C58.3564 6.10313 58.3173 6.10313 58.2783 6.10553C58.1312 6.09931 57.9843 6.12227 57.846 6.17311C57.7078 6.22395 57.5809 6.30167 57.4725 6.40183C57.3642 6.50198 57.2765 6.6226 57.2146 6.7568C57.1527 6.891 57.1177 7.03614 57.1117 7.18393C57.1101 7.21511 57.1101 7.24635 57.1117 7.27753L57.1077 7.27993ZM58.3268 1.22153C58.178 1.21673 58.0297 1.24144 57.8904 1.29425C57.7511 1.34707 57.6235 1.42695 57.515 1.52933C57.4064 1.63171 57.319 1.75459 57.2577 1.89093C57.1964 2.02727 57.1625 2.17441 57.1579 2.32393C57.1555 2.36309 57.1555 2.40237 57.1579 2.44153C57.147 2.59073 57.1656 2.74061 57.2124 2.88261C57.2593 3.02461 57.3335 3.15594 57.4309 3.2691C57.5283 3.38225 57.6469 3.47501 57.78 3.54207C57.9131 3.60913 58.0581 3.64918 58.2066 3.65993C58.2459 3.66233 58.2852 3.66233 58.3245 3.65993C58.6183 3.6763 58.9066 3.57476 59.126 3.37764C59.3453 3.18051 59.4778 2.90394 59.4942 2.60873C59.4973 2.55218 59.4959 2.49547 59.4902 2.43913C59.501 2.29 59.4824 2.1402 59.4355 1.99829C59.3886 1.85638 59.3143 1.72515 59.2169 1.61208C59.1195 1.49901 59.0009 1.40632 58.8679 1.33931C58.7348 1.2723 58.59 1.23228 58.4415 1.22153C58.4025 1.21913 58.3634 1.21913 58.3245 1.22153" fill="white"/>
<path d="M61.1067 16.8871C61.0581 18.4503 63.5864 18.4503 63.4893 16.8871V11.9999C63.3921 7.16553 70.9745 7.21433 70.8782 11.9999V16.8847C70.9015 17.186 71.037 17.4674 71.2578 17.6726C71.4786 17.8778 71.7683 17.9918 72.069 17.9918C72.3698 17.9918 72.6595 17.8778 72.8803 17.6726C73.1011 17.4674 73.2366 17.186 73.2599 16.8847C73.5514 12.0991 73.4988 6.04313 67.1348 5.84473C60.9124 6.03993 60.8639 12.0471 61.1067 16.8847" fill="white"/>
<path d="M94.2185 17.0959C94.3156 18.7079 91.8845 18.6103 91.836 17.0959C85.9537 21.6375 78.5154 13.1895 83.8642 7.91513C87.4611 4.00793 94.4614 6.88953 94.2161 12.2615V17.0959H94.2185ZM88.2391 15.9239C92.954 16.0703 92.9054 8.45273 88.2391 8.54953C83.4756 8.40393 83.2805 16.0695 88.2391 15.9239Z" fill="#E55030"/>
<path d="M98.3027 17.0958C98.2794 17.397 98.1439 17.6784 97.9231 17.8836C97.7023 18.0889 97.4126 18.2029 97.1118 18.2029C96.8111 18.2029 96.5213 18.0889 96.3006 17.8836C96.0798 17.6784 95.9443 17.397 95.921 17.0958V12.2158C95.143 8.84137 101.998 3.51977 103.26 7.27977C103.256 7.60179 103.126 7.90924 102.899 8.13697C102.673 8.3647 102.367 8.49482 102.046 8.49977C97.5247 8.40297 98.3513 14.1654 98.3035 17.0958" fill="#E55030"/>
<path d="M110.892 6.10734C111.192 6.13073 111.472 6.26693 111.676 6.48872C111.881 6.71051 111.994 7.00156 111.994 7.30374C111.994 7.60593 111.881 7.89698 111.676 8.11877C111.472 8.34056 111.192 8.47676 110.892 8.50014H109.191V17.0961C109.186 17.4184 109.058 17.7264 108.831 17.9549C108.605 18.1833 108.299 18.3143 107.979 18.3201C107.663 18.3128 107.363 18.1803 107.145 17.9515C106.926 17.7228 106.806 17.4164 106.812 17.0993V8.50014C105.84 8.50014 103.847 8.79294 103.895 7.28014C103.847 5.76574 105.886 6.10814 106.812 6.10814C107.103 4.98814 105.886 -0.0942567 107.979 0.00014327C110.068 -0.146257 108.902 4.98174 109.193 6.10494L110.892 6.10734Z" fill="#E55030"/>
</g>
<defs>
<clipPath id="clip0_281_976">
<rect width="112" height="24" fill="white"/>
</clipPath>
</defs>
</svg>
