<svg width="23" height="24" viewBox="0 0 23 24" fill="none" xmlns="http://www.w3.org/2000/svg">
<g clip-path="url(#clip0_296_79)">
<path d="M16.5802 16.9011L16.7758 16.7566C17.7635 16.0266 19.1561 16.2355 19.8861 17.2233L21.1521 18.9364C21.8821 19.9241 21.6732 21.3166 20.6854 22.0466L20.4898 22.1912L16.5802 16.9011Z" fill="#22CBC1"/>
<path d="M4.84789 1.02832L5.04577 0.882074C6.03353 0.152073 7.42604 0.361023 8.15604 1.34878L9.4224 3.06228C10.1524 4.05003 9.94345 5.44254 8.9557 6.17255L8.75781 6.31879L4.84789 1.02832Z" fill="#22CBC1"/>
<path d="M20.4894 22.192C19.627 22.8294 18.5951 23.1973 17.5239 23.2493L16.1473 23.316C14.3331 23.404 12.595 22.5795 11.5155 21.1188L3.24061 9.92217C2.1611 8.46149 1.88302 6.55796 2.49958 4.84952L2.96742 3.55314C3.33145 2.54437 3.98597 1.66592 4.84849 1.02848L8.75873 6.31937L7.9454 7.47755C7.5395 8.05558 7.54881 8.82847 7.96863 9.39653L13.4057 16.7534C13.8255 17.3214 14.5616 17.5572 15.2334 17.3388L16.5792 16.9012L20.4894 22.192Z" fill="#22CBC1"/>
</g>
<defs>
<clipPath id="clip0_296_79">
<rect width="23" height="24" fill="white"/>
</clipPath>
</defs>
</svg>
