<svg width="92" height="92" viewBox="0 0 92 92" fill="none" xmlns="http://www.w3.org/2000/svg">
<path d="M92 46C92 71.4051 71.4051 92 46 92C20.5949 92 0 71.4051 0 46C0 20.5949 20.5949 0 46 0C71.4051 0 92 20.5949 92 46Z" fill="#EEFAFA"/>
<path d="M79.5258 27.966C79.9789 27.7222 80.1496 27.1567 79.8952 26.7095C75.3665 18.7519 68.1755 12.6317 59.5733 9.43824C50.6797 6.13658 40.8876 6.18978 32.0304 9.58788C23.1732 12.986 15.8583 19.496 11.4552 27.8989C7.05216 36.3019 5.86289 46.0217 8.11008 55.2383C10.3573 64.455 15.8868 72.5366 23.6634 77.97C31.4401 83.4033 40.9305 85.8158 50.3577 84.7559C59.785 83.6959 68.5027 79.2361 74.8786 72.2114C81.0455 65.417 84.6125 56.6738 84.9703 47.5248C84.9904 47.0107 84.5785 46.5872 84.0641 46.5793C83.5496 46.5715 83.1275 46.9824 83.1067 47.4965C82.7562 56.1922 79.3612 64.5004 73.4989 70.9592C67.4276 77.6482 59.1264 81.895 50.1495 82.9043C41.1727 83.9136 32.1357 81.6164 24.7306 76.4426C17.3255 71.2688 12.0601 63.5733 9.92028 54.797C7.78045 46.0206 8.9129 36.7652 13.1056 28.7637C17.2983 20.7622 24.2638 14.5632 32.6978 11.3275C41.1319 8.09172 50.4562 8.04106 58.9249 11.185C67.1021 14.2207 73.9402 20.0338 78.2538 27.5924C78.5088 28.0393 79.0727 28.2097 79.5258 27.966Z" fill="#26394B"/>
<path d="M43.8674 72.9971C43.0172 72.9271 42.1671 72.8556 41.3169 72.7856C36.366 72.3729 31.59 71.304 27.027 69.2653C24.4838 68.1278 23.1436 66.2802 23.024 63.5473C22.973 62.388 22.9978 61.2082 23.1523 60.0605C23.5169 57.3496 25.0685 55.3969 27.326 53.9576C29.5674 52.5285 32.0742 51.7731 34.6189 51.1256C35.7112 50.847 36.818 50.6225 37.9117 50.3498C38.1261 50.2958 38.3565 50.1733 38.5038 50.0129C39.2315 49.2225 39.7259 48.2906 39.9811 47.2509C40.0277 47.0613 39.9286 46.7434 39.7813 46.6136C37.6434 44.7193 36.1414 42.4195 35.2766 39.6969C35.2212 39.5248 35.0477 39.3134 34.8858 39.2638C34.0181 39.0028 33.4377 38.4238 33.0658 37.6407C32.3483 36.127 32.2536 34.5666 32.7975 32.9698C32.8748 32.7452 32.8908 32.4725 32.85 32.2377C32.3323 29.238 32.449 26.3098 33.9335 23.5755C35.7053 20.3118 38.5811 18.4918 42.081 17.5585C43.0231 17.3077 43.9987 17.1823 44.9597 17H47.8034C48.9233 17.2231 50.0666 17.3675 51.1589 17.6869C54.4634 18.6522 57.1583 20.4649 58.847 23.558C60.1055 25.865 60.3724 28.3543 60.1026 30.9253C60.0501 31.4313 59.9276 31.93 59.8737 32.4361C59.8518 32.6402 59.8999 32.8648 59.9655 33.0646C60.4993 34.7095 60.3651 36.2976 59.5645 37.823C59.1956 38.5259 58.6385 39.0232 57.8539 39.2594C57.6994 39.3061 57.5185 39.4811 57.4704 39.6357C56.6129 42.405 55.0861 44.7295 52.9147 46.6442C52.7878 46.7551 52.7047 47.0307 52.7426 47.1955C52.992 48.2396 53.482 49.1715 54.2024 49.9677C54.3336 50.1121 54.5699 50.1981 54.7711 50.2389C58.2141 50.9345 61.5041 52.0735 64.6817 53.5624C67.7412 54.9959 69.3074 57.4619 69.6661 60.7357C69.7901 61.8688 69.7478 63.0267 69.7099 64.1715C69.653 65.8456 68.7387 67.0779 67.4947 68.0855C65.5742 69.643 63.3021 70.4771 60.9601 71.1334C57.1365 72.2052 53.2195 72.6821 49.2646 72.8965C48.9583 72.9125 48.655 72.965 48.3488 73H43.8645L43.8674 72.9971ZM34.4425 31.1805C34.8697 31.1498 35.2154 31.0828 35.5537 31.1119C35.8949 31.1425 36.0262 31.0273 36.1268 30.7124C36.4068 29.8476 36.7174 28.9916 37.0368 28.1399C37.3153 27.3947 37.6405 27.2649 38.3886 27.5653C38.6919 27.6878 38.9967 27.8103 39.2928 27.9489C42.1218 29.2613 45.0559 29.537 48.0907 28.8647C48.7308 28.7232 49.1742 28.9551 49.2952 29.4757C49.4133 29.9788 49.091 30.3872 48.4421 30.5228C46.3494 30.9588 44.2407 31.0405 42.1466 30.5957C40.8735 30.3244 39.6296 29.9147 38.3113 29.5501C38.024 30.4061 37.7047 31.3292 37.4072 32.2596C37.1403 33.0937 36.7276 33.2892 35.9285 32.929C35.2285 32.6125 34.7356 32.7569 34.4643 33.4496C33.9831 34.6847 34.0546 35.9185 34.6991 37.0822C34.8216 37.3038 35.1249 37.5372 35.3641 37.562C36.4578 37.6713 36.4549 37.6465 36.7597 38.6965C37.3722 40.8052 38.3026 42.752 39.8382 44.3503C42.24 46.8498 45.1318 47.9436 48.5602 47.0467C51.4783 46.284 53.4426 44.2905 54.7769 41.6758C55.3267 40.5981 55.6796 39.4184 56.0909 38.2736C56.2498 37.8288 56.4875 37.4861 56.976 37.5561C57.6658 37.6553 58.0012 37.2761 58.2302 36.7453C58.6633 35.7362 58.71 34.6891 58.3541 33.6508C58.0625 32.8006 57.4923 32.5906 56.6829 32.9669C56.0384 33.2673 55.5834 33.0719 55.369 32.4098C55.1561 31.7521 54.9461 31.0944 54.7186 30.4411C54.2753 29.1675 53.4013 28.347 52.0966 27.9795C51.8866 27.9197 51.6722 27.873 51.4593 27.8293C49.6496 27.4618 47.8398 27.4924 46.0272 27.8133C45.3111 27.9401 44.8839 27.7228 44.7687 27.1964C44.6578 26.6831 44.9903 26.2864 45.6918 26.1581C46.2634 26.0531 46.8424 25.9627 47.4213 25.9175C50.0491 25.7104 52.5939 26.0108 54.9301 27.3218C55.2742 27.5143 55.5775 27.908 55.738 28.277C56.0923 29.0922 56.3358 29.9555 56.6479 30.7896C56.6975 30.9223 56.8623 31.0813 56.9921 31.1003C57.4179 31.1586 57.851 31.1586 58.3439 31.1834C58.3862 30.829 58.446 30.4557 58.4708 30.0809C58.7143 26.3287 57.4894 23.1963 54.3336 21.0482C50.4954 18.4364 46.2663 18.0791 41.89 19.3741C38.8421 20.2768 36.4476 22.0574 35.1118 25.0367C34.2296 27.0054 34.0983 29.0674 34.4395 31.1805H34.4425ZM47.2667 71.2559C47.4767 71.2559 47.6546 71.2675 47.8311 71.2544C49.7546 71.1071 51.6853 71.0153 53.6015 70.7936C56.8244 70.4203 60.0035 69.8049 63.044 68.6222C64.4936 68.0593 65.8862 67.387 66.9887 66.2466C67.6012 65.6137 68.0285 64.8846 68.0387 63.9746C68.0489 63.0457 68.0591 62.1153 68.0328 61.1878C67.9833 59.4393 67.3504 57.9285 66.1123 56.6802C64.9208 55.4786 63.4873 54.6328 61.908 54.1063C59.6156 53.3422 57.2794 52.7122 54.9636 52.018C54.688 51.9349 54.5713 52.0326 54.4109 52.2718C53.9545 52.947 53.517 53.6674 52.9278 54.2157C51.7976 55.2686 50.577 56.2238 49.3783 57.2008C48.951 57.5494 48.4771 57.841 47.9784 58.1896C49.1421 58.891 50.2416 59.5545 51.3689 60.2341C51.4768 60.0095 51.5658 59.8316 51.6489 59.6508C52.3635 58.1166 53.0707 56.5796 53.7955 55.0513C54.0303 54.5555 54.4853 54.3922 54.9228 54.5934C55.3617 54.7946 55.5527 55.2598 55.3311 55.7425C54.4051 57.7594 53.4674 59.7718 52.5166 61.777C52.2599 62.318 51.7685 62.4434 51.2333 62.1372C50.6179 61.7843 50.0171 61.4051 49.4089 61.0391C48.7133 60.6205 48.0163 60.2035 47.2653 59.7543V71.2603L47.2667 71.2559ZM44.7322 58.175C43.8426 57.526 42.9895 56.9369 42.1743 56.3011C40.7773 55.2132 39.3978 54.0903 38.4936 52.5314C38.2428 52.0968 38.0095 52.0297 37.5588 52.1201C34.4177 52.753 31.4165 53.7782 28.5509 55.2132C26.715 56.1334 25.4594 57.5596 25.0452 59.5662C24.79 60.7999 24.8148 62.0905 24.7083 63.3548C24.5611 65.0771 25.4856 66.2043 26.7908 67.1187C28.0566 68.0053 29.4668 68.5901 30.9265 69.0597C35.3481 70.4801 39.9125 71.0269 44.5295 71.2442C44.8489 71.2588 45.1682 71.2457 45.4891 71.2457V59.7281C45.2834 59.8389 45.1259 59.9162 44.9757 60.0066C43.8368 60.692 42.7008 61.3832 41.5604 62.0628C40.8721 62.4726 40.4113 62.3311 40.07 61.6005C39.1834 59.7047 38.3026 57.8075 37.4232 55.9073C37.1272 55.2686 37.2511 54.7684 37.7426 54.5555C38.2457 54.3382 38.6599 54.5599 38.969 55.2219C39.6617 56.7065 40.3515 58.1925 41.0442 59.6756C41.1258 59.8506 41.2221 60.0197 41.3285 60.2239C42.4704 59.5356 43.5743 58.8706 44.7337 58.1721L44.7322 58.175ZM41.7208 47.9465C41.2235 48.8419 40.7933 49.7256 40.2611 50.5423C39.6748 51.4449 39.6325 51.4187 40.3121 52.2703C40.3909 52.3695 40.4711 52.4701 40.5586 52.5635C42.1948 54.328 44.1328 55.7163 46.1453 57.0083C46.2605 57.0827 46.5055 57.0798 46.6207 57.0054C48.5704 55.7513 50.4545 54.4111 52.0528 52.7137C52.3751 52.371 52.6464 51.9772 52.903 51.5806C52.9774 51.4654 52.9759 51.2247 52.903 51.1052C52.2803 50.0712 51.6329 49.0504 50.962 47.9786C47.9667 49.5273 44.8197 49.5317 41.7208 47.945V47.9465Z" fill="#26394B"/>
<path d="M47.2668 71.2559V59.7499C48.0178 60.1991 48.7148 60.6162 49.4105 61.0347C50.0186 61.4007 50.6194 61.7799 51.2348 62.1328C51.77 62.439 52.2614 62.3151 52.5181 61.7726C53.4703 59.7674 54.4066 57.755 55.3326 55.7382C55.5542 55.2555 55.3632 54.7917 54.9243 54.589C54.4882 54.3878 54.0332 54.5526 53.797 55.0469C53.0708 56.5752 52.365 58.1123 51.6504 59.6464C51.5673 59.8258 51.4783 60.0037 51.3704 60.2297C50.2446 59.5502 49.1436 58.8866 47.9799 58.1852C48.4771 57.8367 48.9511 57.545 49.3798 57.1965C50.5785 56.2209 51.7991 55.2642 52.9293 54.2113C53.5185 53.663 53.956 52.9441 54.4124 52.2674C54.5728 52.0297 54.6895 51.932 54.9651 52.0137C57.2809 52.7064 59.6171 53.3378 61.9095 54.102C63.4888 54.6284 64.9223 55.4742 66.1138 56.6759C67.3519 57.9242 67.9848 59.4349 68.0343 61.1834C68.0606 62.1124 68.0504 63.0413 68.0402 63.9702C68.03 64.8802 67.6027 65.6094 66.9902 66.2423C65.8863 67.3827 64.4936 68.0535 63.0455 68.6178C60.005 69.8005 56.8259 70.4145 53.603 70.7892C51.6883 71.0109 49.7575 71.1028 47.8326 71.2501C47.6561 71.2632 47.4782 71.2515 47.2682 71.2515L47.2668 71.2559Z" fill="#22CBC1"/>
<path d="M44.7323 58.175C43.5729 58.8735 42.469 59.5385 41.3271 60.2268C41.2207 60.0226 41.1244 59.8535 41.0428 59.6785C40.3501 58.1939 39.6603 56.7079 38.9676 55.2248C38.6585 54.5642 38.2443 54.3411 37.7412 54.5584C37.2497 54.7713 37.1258 55.27 37.4218 55.9102C38.3012 57.8089 39.182 59.7076 40.0686 61.6034C40.4099 62.334 40.8707 62.4755 41.559 62.0657C42.7008 61.3847 43.8354 60.6935 44.9743 60.0095C45.1245 59.9191 45.282 59.8418 45.4876 59.731V71.2486C45.1668 71.2486 44.846 71.2617 44.5281 71.2471C39.9126 71.0298 35.3481 70.4815 30.9251 69.0626C29.4654 68.5945 28.0537 68.0083 26.7894 67.1216C25.4842 66.2073 24.5597 65.08 24.7069 63.3578C24.8149 62.0934 24.7901 60.8028 25.0438 59.5691C25.458 57.5625 26.7136 56.1363 28.5495 55.2161C31.4151 53.7811 34.4163 52.756 37.5574 52.1231C38.0081 52.0326 38.2414 52.0997 38.4922 52.5343C39.3964 54.0932 40.7759 55.2161 42.1729 56.304C42.9896 56.9398 43.8427 57.529 44.7308 58.1779L44.7323 58.175ZM32.5817 62.2028C32.3061 62.178 32.0903 62.1576 31.8745 62.1401C31.5303 62.1109 31.1861 62.0584 30.842 62.0599C30.3797 62.0613 30.0224 62.2334 29.9597 62.7584C29.9014 63.2484 30.1201 63.5575 30.6699 63.6873C30.9864 63.7632 31.3174 63.7763 31.6411 63.82C31.8847 63.8521 32.1282 63.8886 32.3586 63.9207C32.3236 64.5973 32.239 65.2171 32.2872 65.8252C32.3061 66.0658 32.5803 66.4027 32.8107 66.4785C33.0426 66.5558 33.4159 66.4318 33.6317 66.27C33.8023 66.1416 33.8709 65.8296 33.9146 65.5875C34.0007 65.1121 34.0371 64.6279 34.0998 64.1015C34.6729 64.1569 35.1935 64.2225 35.7171 64.2532C36.296 64.2867 36.6766 63.9746 36.7116 63.4788C36.7452 63.0151 36.4287 62.6651 35.8804 62.5834C35.3481 62.5047 34.8129 62.4449 34.3025 62.3807C34.3477 61.7084 34.4484 61.1061 34.3988 60.5155C34.3769 60.2589 34.0911 59.9147 33.8446 59.8199C33.6259 59.7354 33.2161 59.8608 33.0338 60.0387C32.8384 60.2312 32.7757 60.587 32.7203 60.8845C32.6444 61.2928 32.6284 61.7113 32.5803 62.2013L32.5817 62.2028Z" fill="#22CBC1"/>
<path d="M32.5816 62.2028C32.6297 61.7128 32.6458 61.2943 32.7216 60.8859C32.777 60.5884 32.8397 60.2326 33.0351 60.0401C33.216 59.8608 33.6258 59.7368 33.846 59.8214C34.0924 59.9162 34.3797 60.2603 34.4001 60.517C34.4497 61.1061 34.3491 61.7084 34.3039 62.3821C34.8143 62.4463 35.3495 62.5061 35.8817 62.5849C36.4301 62.6651 36.7465 63.0165 36.713 63.4802C36.678 63.9761 36.2959 64.2881 35.7184 64.2546C35.1949 64.224 34.6743 64.1584 34.1012 64.1029C34.0384 64.6294 34.002 65.1135 33.916 65.5889C33.8722 65.8325 33.8051 66.1445 33.633 66.2714C33.4172 66.4333 33.0454 66.5572 32.812 66.48C32.5816 66.4041 32.3075 66.0673 32.2885 65.8266C32.2404 65.2185 32.325 64.5988 32.36 63.9221C32.1295 63.89 31.886 63.855 31.6425 63.8215C31.3187 63.7777 30.9877 63.7646 30.6712 63.6888C30.1215 63.5575 29.9042 63.2498 29.9611 62.7598C30.0223 62.2349 30.381 62.0628 30.8433 62.0613C31.1875 62.0613 31.5316 62.1124 31.8758 62.1415C32.0916 62.1605 32.3075 62.1794 32.5831 62.2042L32.5816 62.2028Z" fill="#26394B"/>
</svg>
